<?xml version="1.0" encoding="us-ascii" standalone="no"?><svg xmlns="http://www.w3.org/2000/svg" xmlns:xlink="http://www.w3.org/1999/xlink" contentStyleType="text/css" height="432px" preserveAspectRatio="none" style="width:1002px;height:432px;background:#FFFFFF;" version="1.1" viewBox="0 0 1002 432" width="1002px" zoomAndPan="magnify"><defs/><g><!--cluster ISiK-Basis--><g id="cluster_ISiK-Basis"><path d="M8.5,6 L85.5,6 A3.75,3.75 0 0 1 88,8.5 L95,28.2969 L446.5,28.2969 A2.5,2.5 0 0 1 449,30.7969 L449,422.5 A2.5,2.5 0 0 1 446.5,425 L8.5,425 A2.5,2.5 0 0 1 6,422.5 L6,8.5 A2.5,2.5 0 0 1 8.5,6 " fill="none" style="stroke:#000000;stroke-width:1.5;"/><line style="stroke:#000000;stroke-width:1.5;" x1="6" x2="95" y1="28.2969" y2="28.2969"/><text fill="#000000" font-family="sans-serif" font-size="14" font-weight="bold" lengthAdjust="spacing" textLength="76" x="10" y="20.9951">ISiK-Basis</text></g><!--cluster ISiK-Medikation--><g id="cluster_ISiK-Medikation"><path d="M475.5,6 L596.5,6 A3.75,3.75 0 0 1 599,8.5 L606,28.2969 L704.5,28.2969 A2.5,2.5 0 0 1 707,30.7969 L707,208.5 A2.5,2.5 0 0 1 704.5,211 L475.5,211 A2.5,2.5 0 0 1 473,208.5 L473,8.5 A2.5,2.5 0 0 1 475.5,6 " fill="none" style="stroke:#000000;stroke-width:1.5;"/><line style="stroke:#000000;stroke-width:1.5;" x1="473" x2="606" y1="28.2969" y2="28.2969"/><text fill="#000000" font-family="sans-serif" font-size="14" font-weight="bold" lengthAdjust="spacing" textLength="120" x="477" y="20.9951">ISiK-Medikation</text></g><!--cluster ISiK-Labor (MVP)--><g id="cluster_ISiK-Labor (MVP)"><path d="M733.5,16.5 L865.5,16.5 A3.75,3.75 0 0 1 868,19 L875,38.7969 L992.5,38.7969 A2.5,2.5 0 0 1 995,41.2969 L995,198 A2.5,2.5 0 0 1 992.5,200.5 L733.5,200.5 A2.5,2.5 0 0 1 731,198 L731,19 A2.5,2.5 0 0 1 733.5,16.5 " fill="none" style="stroke:#000000;stroke-width:1.5;"/><line style="stroke:#000000;stroke-width:1.5;" x1="731" x2="875" y1="38.7969" y2="38.7969"/><text fill="#000000" font-family="sans-serif" font-size="14" font-weight="bold" lengthAdjust="spacing" textLength="131" x="735" y="31.4951">ISiK-Labor (MVP)</text></g><!--class ISiKPatient--><g id="elem_ISiKPatient"><rect codeLine="27" fill="#F1F1F1" height="153.7813" id="ISiKPatient" rx="2.5" ry="2.5" style="stroke:#181818;stroke-width:0.5;" width="152" x="22" y="41"/><ellipse cx="37" cy="57" fill="#8DA5C4" rx="11" ry="11" style="stroke:#181818;stroke-width:1.0;"/><path d="M36.7969,52.6719 L36.7969,56.2969 L37.7969,56.2969 Q39,56.2969 39.4844,55.8906 Q39.9688,55.4844 39.9688,54.4844 Q39.9688,53.4844 39.4844,53.0781 Q39,52.6719 37.7969,52.6719 L36.7969,52.6719 Z M34.3438,50.6094 L37.7031,50.6094 Q40.2656,50.6094 41.3906,51.5313 Q42.5156,52.4375 42.5156,54.4844 Q42.5156,56.5313 41.3906,57.4531 Q40.2656,58.3594 37.7031,58.3594 L36.7969,58.3594 L36.7969,63 L34.3438,63 L34.3438,50.6094 Z " fill="#000000"/><text fill="#000000" font-family="sans-serif" font-size="14" lengthAdjust="spacing" textLength="72" x="51" y="61.8467">ISiKPatient</text><rect fill="#FFFFFF" height="15.9688" style="stroke:#181818;stroke-width:1.0;stroke-dasharray:2.0,2.0;" width="46" x="131" y="38"/><text fill="#000000" font-family="sans-serif" font-size="12" font-style="italic" lengthAdjust="spacing" textLength="44" x="132" y="50.1387">Patient</text><line style="stroke:#181818;stroke-width:0.5;" x1="23" x2="173" y1="73" y2="73"/><text fill="#000000" font-family="sans-serif" font-size="14" lengthAdjust="spacing" textLength="12" x="28" y="89.9951">id</text><text fill="#000000" font-family="sans-serif" font-size="14" lengthAdjust="spacing" textLength="59" x="28" y="106.292">identifier</text><line style="stroke:#181818;stroke-width:1.0;" x1="23" x2="173" y1="113.5938" y2="113.5938"/><line style="stroke:#181818;stroke-width:1.0;" x1="23" x2="173" y1="121.5938" y2="121.5938"/><text fill="#000000" font-family="sans-serif" font-size="14" font-weight="bold" lengthAdjust="spacing" textLength="89" x="28" y="138.5889">Geschlecht</text><text fill="#000000" font-family="sans-serif" font-size="14" font-weight="bold" lengthAdjust="spacing" textLength="38" x="28" y="154.8857">Alter</text><text fill="#000000" font-family="sans-serif" font-size="14" font-weight="bold" lengthAdjust="spacing" textLength="118" x="28" y="171.1826">K&#246;rpergewicht</text><text fill="#000000" font-family="sans-serif" font-size="14" lengthAdjust="spacing" textLength="12" x="28" y="187.4795">...</text></g><!--class ISiKAllergie--><g id="elem_ISiKAllergie"><rect codeLine="37" fill="#F1F1F1" height="129.4844" id="ISiKAllergie" rx="2.5" ry="2.5" style="stroke:#181818;stroke-width:0.5;" width="224" x="209" y="53.5"/><ellipse cx="224" cy="69.5" fill="#8DA5C4" rx="11" ry="11" style="stroke:#181818;stroke-width:1.0;"/><path d="M223.7969,65.1719 L223.7969,68.7969 L224.7969,68.7969 Q226,68.7969 226.4844,68.3906 Q226.9688,67.9844 226.9688,66.9844 Q226.9688,65.9844 226.4844,65.5781 Q226,65.1719 224.7969,65.1719 L223.7969,65.1719 Z M221.3438,63.1094 L224.7031,63.1094 Q227.2656,63.1094 228.3906,64.0313 Q229.5156,64.9375 229.5156,66.9844 Q229.5156,69.0313 228.3906,69.9531 Q227.2656,70.8594 224.7031,70.8594 L223.7969,70.8594 L223.7969,75.5 L221.3438,75.5 L221.3438,63.1094 Z " fill="#000000"/><text fill="#000000" font-family="sans-serif" font-size="14" lengthAdjust="spacing" textLength="74" x="238" y="74.3467">ISiKAllergie</text><rect fill="#FFFFFF" height="15.9688" style="stroke:#181818;stroke-width:1.0;stroke-dasharray:2.0,2.0;" width="116" x="320" y="50.5"/><text fill="#000000" font-family="sans-serif" font-size="12" font-style="italic" lengthAdjust="spacing" textLength="114" x="321" y="62.6387">AllergyIntolerance</text><line style="stroke:#181818;stroke-width:0.5;" x1="210" x2="432" y1="85.5" y2="85.5"/><text fill="#000000" font-family="sans-serif" font-size="14" lengthAdjust="spacing" textLength="30" x="215" y="102.4951">TBD</text><text fill="#000000" font-family="sans-serif" font-size="14" lengthAdjust="spacing" textLength="4" x="215" y="118.792">&#160;</text><text fill="#000000" font-family="sans-serif" font-size="14" font-weight="bold" lengthAdjust="spacing" textLength="54" x="215" y="135.0889">Beginn</text><text fill="#000000" font-family="sans-serif" font-size="14" font-weight="bold" lengthAdjust="spacing" textLength="78" x="215" y="151.3857">Abklingen</text><text fill="#000000" font-family="sans-serif" font-size="14" font-weight="bold" lengthAdjust="spacing" textLength="106" x="215" y="167.6826">Lebensphase</text><line style="stroke:#181818;stroke-width:0.5;" x1="210" x2="432" y1="174.9844" y2="174.9844"/></g><!--class ISiKDiagnose--><g id="elem_ISiKDiagnose"><rect codeLine="44" fill="#F1F1F1" height="153.7813" id="ISiKDiagnose" rx="2.5" ry="2.5" style="stroke:#181818;stroke-width:0.5;" width="185" x="21.5" y="255"/><ellipse cx="36.5" cy="271" fill="#8DA5C4" rx="11" ry="11" style="stroke:#181818;stroke-width:1.0;"/><path d="M36.2969,266.6719 L36.2969,270.2969 L37.2969,270.2969 Q38.5,270.2969 38.9844,269.8906 Q39.4688,269.4844 39.4688,268.4844 Q39.4688,267.4844 38.9844,267.0781 Q38.5,266.6719 37.2969,266.6719 L36.2969,266.6719 Z M33.8438,264.6094 L37.2031,264.6094 Q39.7656,264.6094 40.8906,265.5313 Q42.0156,266.4375 42.0156,268.4844 Q42.0156,270.5313 40.8906,271.4531 Q39.7656,272.3594 37.2031,272.3594 L36.2969,272.3594 L36.2969,277 L33.8438,277 L33.8438,264.6094 Z " fill="#000000"/><text fill="#000000" font-family="sans-serif" font-size="14" lengthAdjust="spacing" textLength="90" x="50.5" y="275.8467">ISiKDiagnose</text><rect fill="#FFFFFF" height="15.9688" style="stroke:#181818;stroke-width:1.0;stroke-dasharray:2.0,2.0;" width="61" x="148.5" y="252"/><text fill="#000000" font-family="sans-serif" font-size="12" font-style="italic" lengthAdjust="spacing" textLength="59" x="149.5" y="264.1387">Condition</text><line style="stroke:#181818;stroke-width:0.5;" x1="22.5" x2="205.5" y1="287" y2="287"/><line style="stroke:#181818;stroke-width:1.0;" x1="22.5" x2="205.5" y1="295" y2="295"/><line style="stroke:#181818;stroke-width:1.0;" x1="22.5" x2="205.5" y1="303" y2="303"/><text fill="#000000" font-family="sans-serif" font-size="14" font-weight="bold" lengthAdjust="spacing" textLength="131" x="27.5" y="319.9951">klinischer Status</text><text fill="#000000" font-family="sans-serif" font-size="14" font-weight="bold" lengthAdjust="spacing" textLength="148" x="27.5" y="336.292">Verifikationsstatus</text><text fill="#000000" font-family="sans-serif" font-size="14" font-weight="bold" lengthAdjust="spacing" textLength="29" x="27.5" y="352.5889">Typ</text><text fill="#000000" font-family="sans-serif" font-size="14" font-weight="bold" lengthAdjust="spacing" textLength="77" x="27.5" y="368.8857">Kategorie</text><text fill="#000000" font-family="sans-serif" font-size="14" font-weight="bold" lengthAdjust="spacing" textLength="79" x="27.5" y="385.1826">Kritikalit&#228;t</text><text fill="#000000" font-family="sans-serif" font-size="14" font-weight="bold" lengthAdjust="spacing" textLength="41" x="27.5" y="401.4795">Code</text></g><!--class ISiKMedikation--><g id="elem_ISiKMedikation"><rect codeLine="57" fill="#F1F1F1" height="153.7813" id="ISiKMedikation" rx="2.5" ry="2.5" style="stroke:#181818;stroke-width:0.5;" width="203" x="488.5" y="41"/><ellipse cx="503.5" cy="57" fill="#8DA5C4" rx="11" ry="11" style="stroke:#181818;stroke-width:1.0;"/><path d="M503.2969,52.6719 L503.2969,56.2969 L504.2969,56.2969 Q505.5,56.2969 505.9844,55.8906 Q506.4688,55.4844 506.4688,54.4844 Q506.4688,53.4844 505.9844,53.0781 Q505.5,52.6719 504.2969,52.6719 L503.2969,52.6719 Z M500.8438,50.6094 L504.2031,50.6094 Q506.7656,50.6094 507.8906,51.5313 Q509.0156,52.4375 509.0156,54.4844 Q509.0156,56.5313 507.8906,57.4531 Q506.7656,58.3594 504.2031,58.3594 L503.2969,58.3594 L503.2969,63 L500.8438,63 L500.8438,50.6094 Z " fill="#000000"/><text fill="#000000" font-family="sans-serif" font-size="14" lengthAdjust="spacing" textLength="99" x="517.5" y="61.8467">ISiKMedikation</text><rect fill="#FFFFFF" height="15.9688" style="stroke:#181818;stroke-width:1.0;stroke-dasharray:2.0,2.0;" width="70" x="624.5" y="38"/><text fill="#000000" font-family="sans-serif" font-size="12" font-style="italic" lengthAdjust="spacing" textLength="68" x="625.5" y="50.1387">Medication</text><line style="stroke:#181818;stroke-width:0.5;" x1="489.5" x2="690.5" y1="73" y2="73"/><text fill="#000000" font-family="sans-serif" font-size="14" lengthAdjust="spacing" textLength="12" x="494.5" y="89.9951">id</text><text fill="#000000" font-family="sans-serif" font-size="14" lengthAdjust="spacing" textLength="59" x="494.5" y="106.292">identifier</text><line style="stroke:#181818;stroke-width:1.0;" x1="489.5" x2="690.5" y1="113.5938" y2="113.5938"/><line style="stroke:#181818;stroke-width:1.0;" x1="489.5" x2="690.5" y1="121.5938" y2="121.5938"/><text fill="#000000" font-family="sans-serif" font-size="14" font-weight="bold" lengthAdjust="spacing" textLength="44" x="494.5" y="138.5889">Name</text><text fill="#000000" font-family="sans-serif" font-size="14" font-weight="bold" lengthAdjust="spacing" textLength="38" x="494.5" y="154.8857">Stoff</text><text fill="#000000" font-family="sans-serif" font-size="14" lengthAdjust="spacing" textLength="91" x="494.5" y="171.1826">code.coding:</text><text fill="#000000" font-family="sans-serif" font-size="14" font-weight="bold" lengthAdjust="spacing" textLength="32" x="585.5" y="171.1826">PZN</text><text fill="#000000" font-family="sans-serif" font-size="14" font-weight="bold" lengthAdjust="spacing" textLength="130" x="494.5" y="187.4795">Applikationsweg</text></g><!--class ISiKLaborErgebnis--><g id="elem_ISiKLaborErgebnis"><rect codeLine="70" fill="#F1F1F1" height="133.4844" id="ISiKLaborErgebnis" rx="2.5" ry="2.5" style="stroke:#181818;stroke-width:0.5;" width="232" x="747" y="51.5"/><ellipse cx="762" cy="67.5" fill="#8DA5C4" rx="11" ry="11" style="stroke:#181818;stroke-width:1.0;"/><path d="M761.7969,63.1719 L761.7969,66.7969 L762.7969,66.7969 Q764,66.7969 764.4844,66.3906 Q764.9688,65.9844 764.9688,64.9844 Q764.9688,63.9844 764.4844,63.5781 Q764,63.1719 762.7969,63.1719 L761.7969,63.1719 Z M759.3438,61.1094 L762.7031,61.1094 Q765.2656,61.1094 766.3906,62.0313 Q767.5156,62.9375 767.5156,64.9844 Q767.5156,67.0313 766.3906,67.9531 Q765.2656,68.8594 762.7031,68.8594 L761.7969,68.8594 L761.7969,73.5 L759.3438,73.5 L759.3438,61.1094 Z " fill="#000000"/><text fill="#000000" font-family="sans-serif" font-size="14" lengthAdjust="spacing" textLength="123" x="776" y="72.3467">ISiKLaborErgebnis</text><rect fill="#FFFFFF" height="15.9688" style="stroke:#181818;stroke-width:1.0;stroke-dasharray:2.0,2.0;" width="75" x="907" y="48.5"/><text fill="#000000" font-family="sans-serif" font-size="12" font-style="italic" lengthAdjust="spacing" textLength="73" x="908" y="60.6387">Observation</text><line style="stroke:#181818;stroke-width:0.5;" x1="748" x2="978" y1="83.5" y2="83.5"/><text fill="#000000" font-family="sans-serif" font-size="14" lengthAdjust="spacing" textLength="30" x="753" y="100.4951">TBD</text><text fill="#000000" font-family="sans-serif" font-size="14" font-weight="bold" lengthAdjust="spacing" textLength="31" x="753" y="137.0889">GFR</text><text fill="#000000" font-family="sans-serif" font-size="14" font-weight="bold" lengthAdjust="spacing" textLength="116" x="753" y="153.3857">Serumkreation</text><text fill="#000000" font-family="sans-serif" font-size="14" font-weight="bold" lengthAdjust="spacing" textLength="114" x="753" y="169.6826">Risikomeldung</text><line style="stroke:#181818;stroke-width:1.0;stroke-dasharray:1.0,2.0;" x1="748" x2="812.5" y1="115.9453" y2="115.9453"/><text fill="#000000" font-family="sans-serif" font-size="14" lengthAdjust="spacing" textLength="101" x="812.5" y="120.292">Nierenfunktion</text><line style="stroke:#181818;stroke-width:1.0;stroke-dasharray:1.0,2.0;" x1="913.5" x2="978" y1="115.9453" y2="115.9453"/><line style="stroke:#181818;stroke-width:1.0;stroke-dasharray:1.0,2.0;" x1="748" x2="978" y1="176.9844" y2="176.9844"/></g><!--SRC=[bLHDJzj04BtxLuoeAi2gRKgXHL4KAH2A45yHGHnwMziJU-NrhhMx1bAItz8Blw6dtlB7EhP9uY1GIwJOisz6Es_slVKctA5EkOnH8mor2WNc23ctaE0zbnaAYnBEzFmfHJcU_vd_GkcOZCk2QPQ3u1Bjf41GsgRA0MSJ2XPbB44Ob7a-UIG0fULs0iVLQ_vaTpv3XT9F5POhoGGQw5khULZQ9k6whTGOhMrLkEvp3LNTAPsWYLBDCKJvUkcC_kya0Hsm-F1VN43IbAYXssMbLRtU-xcr6CsclZ-Thf3TTleBp9JlgrPwhvtUX-dKyzJZ2ldQJd-3gVAyzkO7TNzmO1DkhWPNdIguHNsdX31K86EUaF0yXn6N4k5EoGwarXQc4mG9jsaP-f7AWmHpPdaMc08ZxtJ4pxmBZ7d6gYCBGg72G4T1phZqZ2t7wEq55yoYvam4iOfCiAh-kBlJ3nE1F4ef3D5O9Cl5I8jHWJ_v-BaEfVyWp8FZB8nMTpraXXlID1BC6AYn8PMJxD1z3dhTxjRmquU3GN__Q6-xrtjqI2eUDy_A7sEEkbfvtkhfkYULYWAZjDAiHlfq9_HYSJR_hGlKrMrPblY-xypQLFf2K0b7w3RHv5HQHG6J4RvAw-Pmu3Jx7s920YnRXnbTEL9c0PpNxYfIPf2WjQO3pXAf33KzKYHdTNQlzbeVjzgVqyHawf5bjZIBJcIEfGR6hALk9iNoE4ZTH97fbu2cpXaJjUiMu96A6xgp5pAkxB2kPGllLd74tXpdtufUidn9RsJLUDmi8Y95dexfV3kkE_nnkJpqeX2BmUynUKbyesP-paAbOUlYThYziKQzJXoJGK8wL-XUXOPksTlqA-Lh2rqIT_habZAhQibH0CttwEJxTSEi6G1rcMSQwnrR-3KtF5CvYhYKoSAMDV6_]--></g></svg>