<?xml version="1.0" encoding="us-ascii" standalone="no"?><svg xmlns="http://www.w3.org/2000/svg" xmlns:xlink="http://www.w3.org/1999/xlink" contentStyleType="text/css" height="268px" preserveAspectRatio="none" style="width:741px;height:268px;background:#FFFFFF;" version="1.1" viewBox="0 0 741 268" width="741px" zoomAndPan="magnify"><defs/><g><!--class Entit?t01--><g id="elem_Entit&#228;t01"><rect codeLine="11" fill="#F1F1F1" height="145.7813" id="Entit&#228;t01" rx="2.5" ry="2.5" style="stroke:#181818;stroke-width:0.5;" width="340" x="7" y="7"/><ellipse cx="141.75" cy="23" fill="#ADD1B2" rx="11" ry="11" style="stroke:#181818;stroke-width:1.0;"/><path d="M145.8594,29 L138.1406,29 L138.1406,16.6094 L145.8594,16.6094 L145.8594,18.7656 L140.5938,18.7656 L140.5938,21.4375 L145.3594,21.4375 L145.3594,23.5938 L140.5938,23.5938 L140.5938,26.8438 L145.8594,26.8438 L145.8594,29 Z " fill="#000000"/><text fill="#000000" font-family="sans-serif" font-size="14" lengthAdjust="spacing" textLength="62" x="162.25" y="27.8467">Entit&#228;t01</text><line style="stroke:#181818;stroke-width:0.5;" x1="8" x2="346" y1="39" y2="39"/><text fill="#000000" font-family="sans-serif" font-size="14" lengthAdjust="spacing" textLength="126" x="27" y="55.9951">optionales Attribut</text><text fill="#000000" font-family="sans-serif" font-size="14" font-weight="bold" lengthAdjust="spacing" textLength="199" x="27" y="72.292">optionales fettes Attribut</text><ellipse cx="18" cy="85.2422" fill="#000000" rx="3" ry="3" style="stroke:#000000;stroke-width:1.0;"/><text fill="#000000" font-family="sans-serif" font-size="14" font-weight="bold" lengthAdjust="spacing" textLength="251" x="27" y="88.5889">vorgeschriebens fettes Attribut</text><text fill="#000000" font-family="sans-serif" font-size="14" lengthAdjust="spacing" textLength="165" x="27" y="104.8857">optionales Attribut : text</text><text fill="#000000" font-family="sans-serif" font-size="14" font-weight="bold" lengthAdjust="spacing" textLength="199" x="27" y="121.1826">optionales fettes Attribut</text><text fill="#000000" font-family="sans-serif" font-size="14" lengthAdjust="spacing" textLength="111" x="230" y="121.1826">nummer &#171;auto&#187;</text><ellipse cx="18" cy="134.1328" fill="#000000" rx="3" ry="3" style="stroke:#000000;stroke-width:1.0;"/><text fill="#000000" font-family="sans-serif" font-size="14" font-weight="bold" lengthAdjust="spacing" textLength="251" x="27" y="137.4795">vorgeschriebens fettes Attribut</text><line style="stroke:#181818;stroke-width:0.5;" x1="8" x2="346" y1="144.7813" y2="144.7813"/></g><!--class Entit?t02--><g id="elem_Entit&#228;t02"><rect fill="#F1F1F1" height="48" id="Entit&#228;t02" rx="2.5" ry="2.5" style="stroke:#181818;stroke-width:0.5;" width="94" x="130" y="213"/><ellipse cx="145" cy="229" fill="#ADD1B2" rx="11" ry="11" style="stroke:#181818;stroke-width:1.0;"/><path d="M147.9688,234.6406 Q147.3906,234.9375 146.75,235.0781 Q146.1094,235.2344 145.4063,235.2344 Q142.9063,235.2344 141.5781,233.5938 Q140.2656,231.9375 140.2656,228.8125 Q140.2656,225.6875 141.5781,224.0313 Q142.9063,222.375 145.4063,222.375 Q146.1094,222.375 146.75,222.5313 Q147.4063,222.6875 147.9688,222.9844 L147.9688,225.7031 Q147.3438,225.125 146.75,224.8594 Q146.1563,224.5781 145.5313,224.5781 Q144.1875,224.5781 143.5,225.6563 Q142.8125,226.7188 142.8125,228.8125 Q142.8125,230.9063 143.5,231.9844 Q144.1875,233.0469 145.5313,233.0469 Q146.1563,233.0469 146.75,232.7813 Q147.3438,232.5 147.9688,231.9219 L147.9688,234.6406 Z " fill="#000000"/><text fill="#000000" font-family="sans-serif" font-size="14" lengthAdjust="spacing" textLength="62" x="159" y="233.8467">Entit&#228;t02</text><line style="stroke:#181818;stroke-width:0.5;" x1="131" x2="223" y1="245" y2="245"/><line style="stroke:#181818;stroke-width:0.5;" x1="131" x2="223" y1="253" y2="253"/></g><!--class Entit?t03--><g id="elem_Entit&#228;t03"><rect fill="#F1F1F1" height="48" id="Entit&#228;t03" rx="2.5" ry="2.5" style="stroke:#181818;stroke-width:0.5;" width="94" x="382" y="56"/><ellipse cx="397" cy="72" fill="#ADD1B2" rx="11" ry="11" style="stroke:#181818;stroke-width:1.0;"/><path d="M399.9688,77.6406 Q399.3906,77.9375 398.75,78.0781 Q398.1094,78.2344 397.4063,78.2344 Q394.9063,78.2344 393.5781,76.5938 Q392.2656,74.9375 392.2656,71.8125 Q392.2656,68.6875 393.5781,67.0313 Q394.9063,65.375 397.4063,65.375 Q398.1094,65.375 398.75,65.5313 Q399.4063,65.6875 399.9688,65.9844 L399.9688,68.7031 Q399.3438,68.125 398.75,67.8594 Q398.1563,67.5781 397.5313,67.5781 Q396.1875,67.5781 395.5,68.6563 Q394.8125,69.7188 394.8125,71.8125 Q394.8125,73.9063 395.5,74.9844 Q396.1875,76.0469 397.5313,76.0469 Q398.1563,76.0469 398.75,75.7813 Q399.3438,75.5 399.9688,74.9219 L399.9688,77.6406 Z " fill="#000000"/><text fill="#000000" font-family="sans-serif" font-size="14" lengthAdjust="spacing" textLength="62" x="411" y="76.8467">Entit&#228;t03</text><line style="stroke:#181818;stroke-width:0.5;" x1="383" x2="475" y1="88" y2="88"/><line style="stroke:#181818;stroke-width:0.5;" x1="383" x2="475" y1="96" y2="96"/></g><!--class Entit?t04--><g id="elem_Entit&#228;t04"><rect fill="#F1F1F1" height="48" id="Entit&#228;t04" rx="2.5" ry="2.5" style="stroke:#181818;stroke-width:0.5;" width="94" x="382" y="213"/><ellipse cx="397" cy="229" fill="#ADD1B2" rx="11" ry="11" style="stroke:#181818;stroke-width:1.0;"/><path d="M399.9688,234.6406 Q399.3906,234.9375 398.75,235.0781 Q398.1094,235.2344 397.4063,235.2344 Q394.9063,235.2344 393.5781,233.5938 Q392.2656,231.9375 392.2656,228.8125 Q392.2656,225.6875 393.5781,224.0313 Q394.9063,222.375 397.4063,222.375 Q398.1094,222.375 398.75,222.5313 Q399.4063,222.6875 399.9688,222.9844 L399.9688,225.7031 Q399.3438,225.125 398.75,224.8594 Q398.1563,224.5781 397.5313,224.5781 Q396.1875,224.5781 395.5,225.6563 Q394.8125,226.7188 394.8125,228.8125 Q394.8125,230.9063 395.5,231.9844 Q396.1875,233.0469 397.5313,233.0469 Q398.1563,233.0469 398.75,232.7813 Q399.3438,232.5 399.9688,231.9219 L399.9688,234.6406 Z " fill="#000000"/><text fill="#000000" font-family="sans-serif" font-size="14" lengthAdjust="spacing" textLength="62" x="411" y="233.8467">Entit&#228;t04</text><line style="stroke:#181818;stroke-width:0.5;" x1="383" x2="475" y1="245" y2="245"/><line style="stroke:#181818;stroke-width:0.5;" x1="383" x2="475" y1="253" y2="253"/></g><!--class Entit?t05--><g id="elem_Entit&#228;t05"><rect fill="#F1F1F1" height="48" id="Entit&#228;t05" rx="2.5" ry="2.5" style="stroke:#181818;stroke-width:0.5;" width="94" x="511" y="56"/><ellipse cx="526" cy="72" fill="#ADD1B2" rx="11" ry="11" style="stroke:#181818;stroke-width:1.0;"/><path d="M528.9688,77.6406 Q528.3906,77.9375 527.75,78.0781 Q527.1094,78.2344 526.4063,78.2344 Q523.9063,78.2344 522.5781,76.5938 Q521.2656,74.9375 521.2656,71.8125 Q521.2656,68.6875 522.5781,67.0313 Q523.9063,65.375 526.4063,65.375 Q527.1094,65.375 527.75,65.5313 Q528.4063,65.6875 528.9688,65.9844 L528.9688,68.7031 Q528.3438,68.125 527.75,67.8594 Q527.1563,67.5781 526.5313,67.5781 Q525.1875,67.5781 524.5,68.6563 Q523.8125,69.7188 523.8125,71.8125 Q523.8125,73.9063 524.5,74.9844 Q525.1875,76.0469 526.5313,76.0469 Q527.1563,76.0469 527.75,75.7813 Q528.3438,75.5 528.9688,74.9219 L528.9688,77.6406 Z " fill="#000000"/><text fill="#000000" font-family="sans-serif" font-size="14" lengthAdjust="spacing" textLength="62" x="540" y="76.8467">Entit&#228;t05</text><line style="stroke:#181818;stroke-width:0.5;" x1="512" x2="604" y1="88" y2="88"/><line style="stroke:#181818;stroke-width:0.5;" x1="512" x2="604" y1="96" y2="96"/></g><!--class Entit?t06--><g id="elem_Entit&#228;t06"><rect fill="#F1F1F1" height="48" id="Entit&#228;t06" rx="2.5" ry="2.5" style="stroke:#181818;stroke-width:0.5;" width="94" x="511" y="213"/><ellipse cx="526" cy="229" fill="#ADD1B2" rx="11" ry="11" style="stroke:#181818;stroke-width:1.0;"/><path d="M528.9688,234.6406 Q528.3906,234.9375 527.75,235.0781 Q527.1094,235.2344 526.4063,235.2344 Q523.9063,235.2344 522.5781,233.5938 Q521.2656,231.9375 521.2656,228.8125 Q521.2656,225.6875 522.5781,224.0313 Q523.9063,222.375 526.4063,222.375 Q527.1094,222.375 527.75,222.5313 Q528.4063,222.6875 528.9688,222.9844 L528.9688,225.7031 Q528.3438,225.125 527.75,224.8594 Q527.1563,224.5781 526.5313,224.5781 Q525.1875,224.5781 524.5,225.6563 Q523.8125,226.7188 523.8125,228.8125 Q523.8125,230.9063 524.5,231.9844 Q525.1875,233.0469 526.5313,233.0469 Q527.1563,233.0469 527.75,232.7813 Q528.3438,232.5 528.9688,231.9219 L528.9688,234.6406 Z " fill="#000000"/><text fill="#000000" font-family="sans-serif" font-size="14" lengthAdjust="spacing" textLength="62" x="540" y="233.8467">Entit&#228;t06</text><line style="stroke:#181818;stroke-width:0.5;" x1="512" x2="604" y1="245" y2="245"/><line style="stroke:#181818;stroke-width:0.5;" x1="512" x2="604" y1="253" y2="253"/></g><!--class Entit?t07--><g id="elem_Entit&#228;t07"><rect fill="#F1F1F1" height="48" id="Entit&#228;t07" rx="2.5" ry="2.5" style="stroke:#181818;stroke-width:0.5;" width="94" x="640" y="56"/><ellipse cx="655" cy="72" fill="#ADD1B2" rx="11" ry="11" style="stroke:#181818;stroke-width:1.0;"/><path d="M657.9688,77.6406 Q657.3906,77.9375 656.75,78.0781 Q656.1094,78.2344 655.4063,78.2344 Q652.9063,78.2344 651.5781,76.5938 Q650.2656,74.9375 650.2656,71.8125 Q650.2656,68.6875 651.5781,67.0313 Q652.9063,65.375 655.4063,65.375 Q656.1094,65.375 656.75,65.5313 Q657.4063,65.6875 657.9688,65.9844 L657.9688,68.7031 Q657.3438,68.125 656.75,67.8594 Q656.1563,67.5781 655.5313,67.5781 Q654.1875,67.5781 653.5,68.6563 Q652.8125,69.7188 652.8125,71.8125 Q652.8125,73.9063 653.5,74.9844 Q654.1875,76.0469 655.5313,76.0469 Q656.1563,76.0469 656.75,75.7813 Q657.3438,75.5 657.9688,74.9219 L657.9688,77.6406 Z " fill="#000000"/><text fill="#000000" font-family="sans-serif" font-size="14" lengthAdjust="spacing" textLength="62" x="669" y="76.8467">Entit&#228;t07</text><line style="stroke:#181818;stroke-width:0.5;" x1="641" x2="733" y1="88" y2="88"/><line style="stroke:#181818;stroke-width:0.5;" x1="641" x2="733" y1="96" y2="96"/></g><!--class Entit?t08--><g id="elem_Entit&#228;t08"><rect fill="#F1F1F1" height="48" id="Entit&#228;t08" rx="2.5" ry="2.5" style="stroke:#181818;stroke-width:0.5;" width="94" x="640" y="213"/><ellipse cx="655" cy="229" fill="#ADD1B2" rx="11" ry="11" style="stroke:#181818;stroke-width:1.0;"/><path d="M657.9688,234.6406 Q657.3906,234.9375 656.75,235.0781 Q656.1094,235.2344 655.4063,235.2344 Q652.9063,235.2344 651.5781,233.5938 Q650.2656,231.9375 650.2656,228.8125 Q650.2656,225.6875 651.5781,224.0313 Q652.9063,222.375 655.4063,222.375 Q656.1094,222.375 656.75,222.5313 Q657.4063,222.6875 657.9688,222.9844 L657.9688,225.7031 Q657.3438,225.125 656.75,224.8594 Q656.1563,224.5781 655.5313,224.5781 Q654.1875,224.5781 653.5,225.6563 Q652.8125,226.7188 652.8125,228.8125 Q652.8125,230.9063 653.5,231.9844 Q654.1875,233.0469 655.5313,233.0469 Q656.1563,233.0469 656.75,232.7813 Q657.3438,232.5 657.9688,231.9219 L657.9688,234.6406 Z " fill="#000000"/><text fill="#000000" font-family="sans-serif" font-size="14" lengthAdjust="spacing" textLength="62" x="669" y="233.8467">Entit&#228;t08</text><line style="stroke:#181818;stroke-width:0.5;" x1="641" x2="733" y1="245" y2="245"/><line style="stroke:#181818;stroke-width:0.5;" x1="641" x2="733" y1="253" y2="253"/></g><!--link Entit?t01 to Entit?t02--><g id="link_Entit&#228;t01_Entit&#228;t02"><path codeLine="16" d="M177,161.44 C177,182.83 177,188.72 177,204.73 " fill="none" id="Entit&#228;t01-Entit&#228;t02" style="stroke:#181818;stroke-width:1.0;stroke-dasharray:7.0,7.0;"/><line style="stroke:#181818;stroke-width:1.0;" x1="177" x2="171" y1="161.44" y2="153.44"/><line style="stroke:#181818;stroke-width:1.0;" x1="177" x2="183" y1="161.44" y2="153.44"/><line style="stroke:#181818;stroke-width:1.0;" x1="177" x2="177" y1="161.44" y2="153.44"/><line style="stroke:#181818;stroke-width:1.0;" x1="173" x2="181" y1="163.44" y2="163.44"/><line style="stroke:#181818;stroke-width:1.0;" x1="181" x2="173" y1="208.73" y2="208.73"/><line style="stroke:#181818;stroke-width:1.0;" x1="181" x2="173" y1="205.73" y2="205.73"/><line style="stroke:#181818;stroke-width:1.0;" x1="177" x2="177" y1="204.73" y2="212.73"/></g><!--link Entit?t03 to Entit?t04--><g id="link_Entit&#228;t03_Entit&#228;t04"><path codeLine="17" d="M429,122.19 C429,151.69 429,168.27 429,197.79 " fill="none" id="Entit&#228;t03-Entit&#228;t04" style="stroke:#181818;stroke-width:1.0;stroke-dasharray:7.0,7.0;"/><line style="stroke:#181818;stroke-width:1.0;" x1="429" x2="423" y1="112.19" y2="104.19"/><line style="stroke:#181818;stroke-width:1.0;" x1="429" x2="435" y1="112.19" y2="104.19"/><line style="stroke:#181818;stroke-width:1.0;" x1="429" x2="429" y1="112.19" y2="104.19"/><ellipse cx="429" cy="118.19" fill="none" rx="4" ry="4" style="stroke:#181818;stroke-width:1.0;"/><line style="stroke:#181818;stroke-width:1.0;" x1="429" x2="429" y1="201.79" y2="212.79"/><ellipse cx="429" cy="201.79" fill="none" rx="4" ry="4" style="stroke:#181818;stroke-width:1.0;"/><line style="stroke:#181818;stroke-width:1.0;" x1="433" x2="425" y1="208.79" y2="208.79"/></g><!--link Entit?t05 to Entit?t06--><g id="link_Entit&#228;t05_Entit&#228;t06"><path codeLine="18" d="M558,112.19 C558,141.69 558,165.27 558,194.79 " fill="none" id="Entit&#228;t05-Entit&#228;t06" style="stroke:#181818;stroke-width:1.0;"/><line style="stroke:#181818;stroke-width:1.0;" x1="554" x2="562" y1="108.19" y2="108.19"/><line style="stroke:#181818;stroke-width:1.0;" x1="554" x2="562" y1="111.19" y2="111.19"/><line style="stroke:#181818;stroke-width:1.0;" x1="558" x2="558" y1="112.19" y2="104.19"/><line style="stroke:#181818;stroke-width:1.0;" x1="558" x2="564" y1="204.79" y2="212.79"/><line style="stroke:#181818;stroke-width:1.0;" x1="558" x2="552" y1="204.79" y2="212.79"/><line style="stroke:#181818;stroke-width:1.0;" x1="558" x2="558" y1="204.79" y2="212.79"/><ellipse cx="558" cy="198.79" fill="none" rx="4" ry="4" style="stroke:#181818;stroke-width:1.0;"/></g><!--link Entit?t07 to Entit?t08--><g id="link_Entit&#228;t07_Entit&#228;t08"><path codeLine="19" d="M687,119.19 C687,148.69 687,175.27 687,204.79 " fill="none" id="Entit&#228;t07-Entit&#228;t08" style="stroke:#181818;stroke-width:1.0;"/><line style="stroke:#181818;stroke-width:1.0;" x1="687" x2="687" y1="115.19" y2="104.19"/><ellipse cx="687" cy="115.19" fill="none" rx="4" ry="4" style="stroke:#181818;stroke-width:1.0;"/><line style="stroke:#181818;stroke-width:1.0;" x1="683" x2="691" y1="108.19" y2="108.19"/><line style="stroke:#181818;stroke-width:1.0;" x1="691" x2="683" y1="208.79" y2="208.79"/><line style="stroke:#181818;stroke-width:1.0;" x1="691" x2="683" y1="205.79" y2="205.79"/><line style="stroke:#181818;stroke-width:1.0;" x1="687" x2="687" y1="204.79" y2="212.79"/></g><!--SRC=[bSuzJiD040NWVayn7P8bM_o3K1I9Weg6AzZm4g_YdR76uq2KzLbeSWmwNmn2irjGa6ga-PvctXbjeQtdDoZeHQNf44316wtnxdc3pi3qhFEX1Q_ch_aJx8QDvxxMEb3d6RRhGQBMYdDWyxQZf-EO3tP-GNj7HDAR5wux3FHefhuPxRWkYWnMCCkyA7uJFvcjw1h3QwiU3VYlu7JAOteWmyS__XEF8K1fiQX7a-Nob3vPZobMLOofsMN2AvgagYJ3wuGt56DPoZxXRS8xYbAM-Tbxzmq0]--></g></svg>