<?xml version="1.0" encoding="us-ascii" standalone="no"?><svg xmlns="http://www.w3.org/2000/svg" xmlns:xlink="http://www.w3.org/1999/xlink" contentStyleType="text/css" height="849px" preserveAspectRatio="none" style="width:824px;height:849px;background:#FFFFFF;" version="1.1" viewBox="0 0 824 849" width="824px" zoomAndPan="magnify"><defs/><g><!--cluster AMTS--><g id="cluster_AMTS"><rect fill="none" height="789" rx="35" ry="35" style="stroke:#181818;stroke-width:1.0;" width="610.5" x="208" y="7"/><text fill="#000000" font-family="sans-serif" font-size="14" font-weight="bold" lengthAdjust="spacing" textLength="44" x="491.25" y="26.9951">AMTS</text></g><!--cluster Medikation--><g id="cluster_Medikation"><rect fill="none" height="187" rx="35" ry="35" style="stroke:#181818;stroke-width:1.0;" width="480" x="298.5" y="66"/><text fill="#000000" font-family="sans-serif" font-size="14" font-weight="bold" lengthAdjust="spacing" textLength="85" x="496" y="85.9951">Medikation</text></g><!--cluster Reconciliation--><g id="cluster_Reconciliation"><rect fill="none" height="231" rx="35" ry="35" style="stroke:#181818;stroke-width:1.0;" width="299" x="248" y="293"/><text fill="#000000" font-family="sans-serif" font-size="14" font-weight="bold" lengthAdjust="spacing" textLength="109" x="343" y="312.9951">Reconciliation</text></g><g id="elem_Risikofaktoren"><ellipse cx="397.4293" cy="654.7859" fill="#F1F1F1" rx="71.9293" ry="16.7859" style="stroke:#181818;stroke-width:0.5;"/><text fill="#000000" font-family="sans-serif" font-size="14" lengthAdjust="spacing" textLength="98" x="345.4293" y="658.5334">Risikofaktoren</text></g><g id="elem_Allergien &amp;\n Inteloranzen"><ellipse cx="397.6249" cy="577.0473" fill="#F1F1F1" rx="75.1249" ry="26.0473" style="stroke:#181818;stroke-width:0.5;"/><text fill="#000000" font-family="sans-serif" font-size="14" lengthAdjust="spacing" textLength="75" x="360.1249" y="571.7455">Allergien &amp;</text><text fill="#000000" font-family="sans-serif" font-size="14" lengthAdjust="spacing" textLength="86" x="356.6249" y="588.0424">Inteloranzen</text></g><g id="elem_Lebenzust&#228;nde"><ellipse cx="676.2754" cy="655.0551" fill="#F1F1F1" rx="75.7754" ry="17.5551" style="stroke:#181818;stroke-width:0.5;"/><text fill="#000000" font-family="sans-serif" font-size="14" lengthAdjust="spacing" textLength="108" x="619.2754" y="658.8026">Lebenzust&#228;nde</text></g><g id="elem_Umfassender\n Medikationsplan"><ellipse cx="676.5097" cy="576.0473" fill="#F1F1F1" rx="93.5097" ry="26.0473" style="stroke:#181818;stroke-width:0.5;"/><text fill="#000000" font-family="sans-serif" font-size="14" lengthAdjust="spacing" textLength="92" x="630.5097" y="570.7455">Umfassender</text><text fill="#000000" font-family="sans-serif" font-size="14" lengthAdjust="spacing" textLength="112" x="622.5097" y="587.0424">Medikationsplan</text></g><g id="elem_Neu-Verordung"><ellipse cx="397.4948" cy="191.899" fill="#F1F1F1" rx="74.9948" ry="17.399" style="stroke:#181818;stroke-width:0.5;"/><text fill="#000000" font-family="sans-serif" font-size="14" lengthAdjust="spacing" textLength="106" x="341.4948" y="195.6465">Neu-Verordung</text></g><g id="elem_&#196;nderung"><ellipse cx="397.313" cy="123.7771" fill="#F1F1F1" rx="60.813" ry="14.7771" style="stroke:#181818;stroke-width:0.5;"/><text fill="#000000" font-family="sans-serif" font-size="14" lengthAdjust="spacing" textLength="68" x="360.313" y="127.5247">&#196;nderung</text></g><g id="elem_Abgabe"><ellipse cx="676.6151" cy="195.1874" fill="#F1F1F1" rx="49.6151" ry="14.6874" style="stroke:#181818;stroke-width:0.5;"/><text fill="#000000" font-family="sans-serif" font-size="14" lengthAdjust="spacing" textLength="53" x="647.1151" y="198.9349">Abgabe</text></g><g id="elem_Wechselwirkung"><ellipse cx="676.2532" cy="126.9506" fill="#F1F1F1" rx="77.7532" ry="17.9506" style="stroke:#181818;stroke-width:0.5;"/><text fill="#000000" font-family="sans-serif" font-size="14" lengthAdjust="spacing" textLength="113" x="617.1994" y="130.5809">Wechselwirkung</text></g><g id="elem_Station&#228;re Aufnahme mit\n Medikationsumstellung"><ellipse cx="397.6797" cy="364.0359" fill="#F1F1F1" rx="125.6797" ry="27.5359" style="stroke:#181818;stroke-width:0.5;"/><text fill="#000000" font-family="sans-serif" font-size="14" lengthAdjust="spacing" textLength="169" x="310.1797" y="359.6351">Station&#228;re Aufnahme mit</text><text fill="#000000" font-family="sans-serif" font-size="14" lengthAdjust="spacing" textLength="160" x="316.6797" y="375.9319">Medikationsumstellung</text></g><g id="elem_Entlassung mit\n Medikationsumstellung"><ellipse cx="397.4321" cy="453.9864" fill="#F1F1F1" rx="122.9321" ry="26.9864" style="stroke:#181818;stroke-width:0.5;"/><text fill="#000000" font-family="sans-serif" font-size="14" lengthAdjust="spacing" textLength="102" x="346.4321" y="448.6847">Entlassung mit</text><text fill="#000000" font-family="sans-serif" font-size="14" lengthAdjust="spacing" textLength="160" x="319.4321" y="464.9815">Medikationsumstellung</text></g><!--entity cl1--><g id="elem_cl1"><path d="M313.8242,716.0033 C317.3067,710.4095 322.7575,710.9582 326.0023,716.2688 C328.2747,710.2429 334.4591,709.8761 338.278,714.4833 C341.1997,708.6523 345.6357,709.3054 349.4026,713.55 C354.4021,706.7787 359.5275,709.0569 362.8907,715.2522 C365.6404,709.5927 369.4833,708.8164 373.7181,713.7316 C377.33,707.8219 383.851,708.4565 387.2788,713.9506 C389.4375,708.1557 394.2964,706.8335 398.6154,711.6406 C402.7121,705.7508 407.0062,705.8464 410.5956,712.1395 C415.1548,706.9749 419.6153,708.5743 421.8688,714.4862 C426.0484,707.6257 430.7167,708.7237 434.5738,714.8029 C438.3576,708.2973 443.9343,709.1474 447.8246,714.6857 C451.2097,709.0215 456.4707,709.8701 458.6481,715.812 C462.1651,708.8028 468.7919,710.0345 471.972,716.1539 C475.392,710.2198 479.9796,710.927 483.4461,716.1059 C490.6268,718.6633 492.213,724.5873 486.8886,730.1993 C493.3764,736.4698 493.1524,743.5538 484.2154,747.4315 C479.9413,754.6032 475.2195,753.0273 470.7146,747.6805 C468.0701,753.7362 463.9854,754.4756 459.6608,749.34 C455.8438,756.0935 449.4454,755.6164 445.8108,749.1489 C442.6113,755.2768 438.7698,754.2247 434.7441,750.0351 C433.3745,756.7395 428.1654,757.7578 423.7695,752.91 C420.6721,758.7375 415.0122,758.776 411.6762,753.1622 C407.7185,759.8328 403.5411,760.576 398.7581,753.965 C394.5656,759.0299 390.1442,759.3287 386.5858,753.271 C382.0533,759.4991 378.0768,758.367 373.8323,752.9554 C369.6199,758.5497 364.8154,757.6342 362.5265,751.1543 C357.7736,757.7993 352.9814,756.9 349.2363,750.1541 C344.116,755.6254 340.6945,754.7428 337.7421,748.0975 C333.7097,752.8822 329.2765,753.1809 326.5346,746.802 C322.227,752.4028 316.3494,752.7695 313.2465,745.553 C307.1387,741.9214 306.5745,736.8571 311.7236,731.964 C304.2078,725.6828 306.4847,720.3293 313.8242,716.0033 " fill="#F1F1F1" style="stroke:#181818;stroke-width:0.5;"/><text fill="#000000" font-family="sans-serif" font-size="14" lengthAdjust="spacing" textLength="155" x="320" y="734.9951">Neue Informationslage</text></g><!--entity Heilberufler--><g id="elem_Heilberufler"><ellipse cx="95" cy="486.5" fill="#F1F1F1" rx="8" ry="8" style="stroke:#181818;stroke-width:0.5;"/><path d="M95,494.5 L95,521.5 M82,502.5 L108,502.5 M95,521.5 L82,536.5 M95,521.5 L108,536.5 " fill="none" style="stroke:#181818;stroke-width:0.5;"/><text fill="#000000" font-family="sans-serif" font-size="14" lengthAdjust="spacing" textLength="78" x="56" y="550.9951">Heilberufler</text></g><!--entity Versicherter--><g id="elem_Versicherter"><ellipse cx="95" cy="700.5" fill="#F1F1F1" rx="8" ry="8" style="stroke:#181818;stroke-width:0.5;"/><path d="M95,708.5 L95,735.5 M82,716.5 L108,716.5 M95,735.5 L82,750.5 M95,735.5 L108,750.5 " fill="none" style="stroke:#181818;stroke-width:0.5;"/><text fill="#000000" font-family="sans-serif" font-size="14" lengthAdjust="spacing" textLength="84" x="53" y="764.9951">Versicherter</text></g><g id="elem_Medikationsprozess"><ellipse cx="94.7915" cy="823.1583" fill="#F1F1F1" rx="88.7915" ry="20.1583" style="stroke:#181818;stroke-width:0.5;"/><text fill="#000000" font-family="sans-serif" font-size="14" lengthAdjust="spacing" textLength="139" x="25.2915" y="826.005">Medikationsprozess</text></g><!--link Medikationsprozess to AMTS--><g id="link_Medikationsprozess_AMTS"><path d="M174.56,813.85 C218.38,808.745 272.83,802.4025 316.83,797.2775 C319.58,796.9572 322.2892,796.6416 324.9524,796.3314 C325.6182,796.2539 320.3214,796.8708 320.9814,796.794 " fill="none" id="Medikationsprozess-to-AMTS" style="stroke:#181818;stroke-width:1.0;stroke-dasharray:7.0,7.0;"/><polygon fill="#181818" points="326.9411,796.0998,317.5388,793.1679,321.9747,796.6783,318.4643,801.1142,326.9411,796.0998" style="stroke:#181818;stroke-width:1.0;"/></g><!--link Heilberufler to Medikation--><g id="link_Heilberufler_Medikation"><path d="M105.36,477.94 C117.99,434.13 144.57,362.74 192,320 C227.395,288.105 277.4875,269.4375 319.235,258.7038 C324.4534,257.362 329.5415,256.1443 334.4541,255.0401 C336.9105,254.4881 339.3229,253.9644 341.6859,253.4679 C342.2767,253.3437 336.9885,254.4354 337.5729,254.3146 " fill="none" id="Heilberufler-to-Medikation" style="stroke:#181818;stroke-width:1.0;"/><polygon fill="#181818" points="343.4488,253.1005,333.8256,251.0044,338.5523,254.1123,335.4444,258.8389,343.4488,253.1005" style="stroke:#181818;stroke-width:1.0;"/></g><!--link Heilberufler to Reconciliation--><g id="link_Heilberufler_Reconciliation"><path d="M134.06,516 C153.96,516 179.9594,516 207.8509,516 C214.8238,516 221.915,516 229.0587,516 C232.6305,516 236.2155,516 239.8053,516 C241.6003,516 243.3965,516 245.1928,516 C246.091,516 240.9893,516 241.8874,516 " fill="none" id="Heilberufler-to-Reconciliation" style="stroke:#181818;stroke-width:1.0;"/><polygon fill="#181818" points="247.8874,516,238.8874,512,242.8874,516,238.8874,520,247.8874,516" style="stroke:#181818;stroke-width:1.0;"/></g><!--link Heilberufler to cl1--><g id="link_Heilberufler_cl1"><path d="M117.53,554.2 C135.47,586.14 161.61,632.92 184,674 C187.62,680.63 185.94,684.49 192,689 C224.18,712.93 260.8346,723.0997 298.8346,727.7597 " fill="none" id="Heilberufler-to-cl1" style="stroke:#181818;stroke-width:1.0;"/><polygon fill="#181818" points="304.79,728.49,296.3438,723.4243,299.8272,727.8814,295.37,731.3648,304.79,728.49" style="stroke:#181818;stroke-width:1.0;"/></g><!--reverse link Versicherter to AMTS--><g id="link_Versicherter_AMTS"><path d="M142.6777,752.2003 C159.3377,759.4003 173.47,764.48 192,769 C194.7278,769.6653 197.4813,770.3077 200.2564,770.9279 C201.6439,771.238 203.0368,771.5425 204.4345,771.8416 C205.1334,771.9912 205.8335,772.1394 206.5348,772.2862 C206.8854,772.3597 207.2363,772.4327 207.5875,772.5055 " fill="none" id="Versicherter-backto-AMTS" style="stroke:#181818;stroke-width:1.0;"/><polygon fill="#181818" points="137.17,749.82,143.8447,757.0622,141.7597,751.8036,147.0183,749.7186,137.17,749.82" style="stroke:#181818;stroke-width:1.0;"/></g><!--link Versicherter to cl1--><g id="link_Versicherter_cl1"><path d="M137.15,730 C180.15,730 243.01,730 298.97,730 " fill="none" id="Versicherter-to-cl1" style="stroke:#181818;stroke-width:1.0;"/><polygon fill="#181818" points="304.97,730,295.97,726,299.97,730,295.97,734,304.97,730" style="stroke:#181818;stroke-width:1.0;"/></g><!--SRC=[XLBDJeD04BxlKqmyM3ZGn6jZcd0mqSHwQFsvU5cM0JOikytk4cDDRpvAtwGlvb2GWcZaLBwPxwVVe33pu0rOcHSUKcbHU6aqSwNKMsvv1LikIfxZnhyh1EUDfHV61Vs0nIrAbQ2jCuLsqO7FQ9qK1LgFbdNx4CIhnqq87mpewS4LfhBaZL_OJfedUC0w8X5ZqrhduHa_VkgKl4POdEGymG7mWg9mgDwaBVlD_TXrZS9e8PMSE6_y2JeUB49SPveN5K8b_Qk6SrHNLywZKkCWDzehxXo1_nFQFC5QEbcQZ9SK37Kx2c95LUOIDLoIo9qc8iNMktxX7XFKkzhvuu7gwC2dAYDpRFePMsyLxuX2cJg52oeNIJOpjcet57Lo0TpHmbLtdptRirbpC8YYvVYUi-7DfkDWQ6tD3fqBOJvVVj-V3J-O4_rC-35RmlXEKoe5PhEXFLn7qL1mCcj2ZD5UvqpxvK__qKNJM2CxKlm2]--></g></svg>