<?xml version="1.0" encoding="us-ascii" standalone="no"?><svg xmlns="http://www.w3.org/2000/svg" xmlns:xlink="http://www.w3.org/1999/xlink" contentStyleType="text/css" height="656px" preserveAspectRatio="none" style="width:1716px;height:656px;background:#FFFFFF;" version="1.1" viewBox="0 0 1716 656" width="1716px" zoomAndPan="magnify"><defs/><g><!--cluster ISiK-Medikation--><g id="cluster_ISiK-Medikation"><path d="M8.5,163 L129.5,163 A3.75,3.75 0 0 1 132,165.5 L139,185.2969 L1110.5,185.2969 A2.5,2.5 0 0 1 1113,187.7969 L1113,646.5 A2.5,2.5 0 0 1 1110.5,649 L8.5,649 A2.5,2.5 0 0 1 6,646.5 L6,165.5 A2.5,2.5 0 0 1 8.5,163 " fill="none" style="stroke:#000000;stroke-width:1.5;"/><line style="stroke:#000000;stroke-width:1.5;" x1="6" x2="139" y1="185.2969" y2="185.2969"/><text fill="#000000" font-family="sans-serif" font-size="14" font-weight="bold" lengthAdjust="spacing" textLength="120" x="10" y="177.9951">ISiK-Medikation</text></g><!--cluster hl7--><g id="cluster_hl7"><path d="M1139.5,6 L1164.5,6 A3.75,3.75 0 0 1 1167,8.5 L1174,28.2969 L1498.5,28.2969 A2.5,2.5 0 0 1 1501,30.7969 L1501,392.5 A2.5,2.5 0 0 1 1498.5,395 L1139.5,395 A2.5,2.5 0 0 1 1137,392.5 L1137,8.5 A2.5,2.5 0 0 1 1139.5,6 " fill="none" style="stroke:#000000;stroke-width:1.5;"/><line style="stroke:#000000;stroke-width:1.5;" x1="1137" x2="1174" y1="28.2969" y2="28.2969"/><text fill="#000000" font-family="sans-serif" font-size="14" font-weight="bold" lengthAdjust="spacing" textLength="24" x="1141" y="20.9951">hl7</text></g><!--cluster fhir--><g id="cluster_fhir"><path d="M1163.5,49 L1191.5,49 A3.75,3.75 0 0 1 1194,51.5 L1201,71.2969 L1474.5,71.2969 A2.5,2.5 0 0 1 1477,73.7969 L1477,368.5 A2.5,2.5 0 0 1 1474.5,371 L1163.5,371 A2.5,2.5 0 0 1 1161,368.5 L1161,51.5 A2.5,2.5 0 0 1 1163.5,49 " fill="none" style="stroke:#000000;stroke-width:1.5;"/><line style="stroke:#000000;stroke-width:1.5;" x1="1161" x2="1201" y1="71.2969" y2="71.2969"/><text fill="#000000" font-family="sans-serif" font-size="14" font-weight="bold" lengthAdjust="spacing" textLength="27" x="1165" y="63.9951">fhir</text></g><!--cluster r4--><g id="cluster_r4"><path d="M1187.5,92 L1205.5,92 A3.75,3.75 0 0 1 1208,94.5 L1215,114.2969 L1450.5,114.2969 A2.5,2.5 0 0 1 1453,116.7969 L1453,344.5 A2.5,2.5 0 0 1 1450.5,347 L1187.5,347 A2.5,2.5 0 0 1 1185,344.5 L1185,94.5 A2.5,2.5 0 0 1 1187.5,92 " fill="none" style="stroke:#000000;stroke-width:1.5;"/><line style="stroke:#000000;stroke-width:1.5;" x1="1185" x2="1215" y1="114.2969" y2="114.2969"/><text fill="#000000" font-family="sans-serif" font-size="14" font-weight="bold" lengthAdjust="spacing" textLength="17" x="1189" y="106.9951">r4</text></g><!--cluster core--><g id="cluster_core"><path d="M1211.5,135 L1248.5,135 A3.75,3.75 0 0 1 1251,137.5 L1258,157.2969 L1426.5,157.2969 A2.5,2.5 0 0 1 1429,159.7969 L1429,320.5 A2.5,2.5 0 0 1 1426.5,323 L1211.5,323 A2.5,2.5 0 0 1 1209,320.5 L1209,137.5 A2.5,2.5 0 0 1 1211.5,135 " fill="none" style="stroke:#000000;stroke-width:1.5;"/><line style="stroke:#000000;stroke-width:1.5;" x1="1209" x2="1258" y1="157.2969" y2="157.2969"/><text fill="#000000" font-family="sans-serif" font-size="14" font-weight="bold" lengthAdjust="spacing" textLength="36" x="1213" y="149.9951">core</text></g><!--cluster ISiK-Basis--><g id="cluster_ISiK-Basis"><path d="M1527.5,151 L1604.5,151 A3.75,3.75 0 0 1 1607,153.5 L1614,173.2969 L1706.5,173.2969 A2.5,2.5 0 0 1 1709,175.7969 L1709,304.5 A2.5,2.5 0 0 1 1706.5,307 L1527.5,307 A2.5,2.5 0 0 1 1525,304.5 L1525,153.5 A2.5,2.5 0 0 1 1527.5,151 " fill="none" style="stroke:#000000;stroke-width:1.5;"/><line style="stroke:#000000;stroke-width:1.5;" x1="1525" x2="1614" y1="173.2969" y2="173.2969"/><text fill="#000000" font-family="sans-serif" font-size="14" font-weight="bold" lengthAdjust="spacing" textLength="76" x="1529" y="165.9951">ISiK-Basis</text></g><!--class ISiKMedikation--><g id="elem_ISiKMedikation"><rect codeLine="27" fill="#F1F1F1" height="80.5938" id="ISiKMedikation" rx="2.5" ry="2.5" style="stroke:#181818;stroke-width:0.5;" width="203" x="120.5" y="198"/><ellipse cx="135.5" cy="214" fill="#8DA5C4" rx="11" ry="11" style="stroke:#181818;stroke-width:1.0;"/><path d="M135.2969,209.6719 L135.2969,213.2969 L136.2969,213.2969 Q137.5,213.2969 137.9844,212.8906 Q138.4688,212.4844 138.4688,211.4844 Q138.4688,210.4844 137.9844,210.0781 Q137.5,209.6719 136.2969,209.6719 L135.2969,209.6719 Z M132.8438,207.6094 L136.2031,207.6094 Q138.7656,207.6094 139.8906,208.5313 Q141.0156,209.4375 141.0156,211.4844 Q141.0156,213.5313 139.8906,214.4531 Q138.7656,215.3594 136.2031,215.3594 L135.2969,215.3594 L135.2969,220 L132.8438,220 L132.8438,207.6094 Z " fill="#000000"/><text fill="#000000" font-family="sans-serif" font-size="14" lengthAdjust="spacing" textLength="99" x="149.5" y="218.8467">ISiKMedikation</text><rect fill="#FFFFFF" height="15.9688" style="stroke:#181818;stroke-width:1.0;stroke-dasharray:2.0,2.0;" width="70" x="256.5" y="195"/><text fill="#000000" font-family="sans-serif" font-size="12" font-style="italic" lengthAdjust="spacing" textLength="68" x="257.5" y="207.1387">Medication</text><line style="stroke:#181818;stroke-width:0.5;" x1="121.5" x2="322.5" y1="230" y2="230"/><text fill="#000000" font-family="sans-serif" font-size="14" lengthAdjust="spacing" textLength="12" x="126.5" y="246.9951">id</text><text fill="#000000" font-family="sans-serif" font-size="14" lengthAdjust="spacing" textLength="59" x="126.5" y="263.292">identifier</text><line style="stroke:#181818;stroke-width:0.5;" x1="121.5" x2="322.5" y1="270.5938" y2="270.5938"/></g><!--class ISiKMedikationsInformation--><g id="elem_ISiKMedikationsInformation"><rect codeLine="31" fill="#F1F1F1" height="80.5938" id="ISiKMedikationsInformation" rx="2.5" ry="2.5" style="stroke:#181818;stroke-width:0.5;" width="354" x="359" y="198"/><ellipse cx="374" cy="214" fill="#8DA5C4" rx="11" ry="11" style="stroke:#181818;stroke-width:1.0;"/><path d="M373.7969,209.6719 L373.7969,213.2969 L374.7969,213.2969 Q376,213.2969 376.4844,212.8906 Q376.9688,212.4844 376.9688,211.4844 Q376.9688,210.4844 376.4844,210.0781 Q376,209.6719 374.7969,209.6719 L373.7969,209.6719 Z M371.3438,207.6094 L374.7031,207.6094 Q377.2656,207.6094 378.3906,208.5313 Q379.5156,209.4375 379.5156,211.4844 Q379.5156,213.5313 378.3906,214.4531 Q377.2656,215.3594 374.7031,215.3594 L373.7969,215.3594 L373.7969,220 L371.3438,220 L371.3438,207.6094 Z " fill="#000000"/><text fill="#000000" font-family="sans-serif" font-size="14" lengthAdjust="spacing" textLength="184" x="388" y="218.8467">ISiKMedikationsInformation</text><rect fill="#FFFFFF" height="15.9688" style="stroke:#181818;stroke-width:1.0;stroke-dasharray:2.0,2.0;" width="136" x="580" y="195"/><text fill="#000000" font-family="sans-serif" font-size="12" font-style="italic" lengthAdjust="spacing" textLength="134" x="581" y="207.1387">MedicationStatement</text><line style="stroke:#181818;stroke-width:0.5;" x1="360" x2="712" y1="230" y2="230"/><text fill="#000000" font-family="sans-serif" font-size="14" lengthAdjust="spacing" textLength="12" x="365" y="246.9951">id</text><text fill="#000000" font-family="sans-serif" font-size="14" lengthAdjust="spacing" textLength="59" x="365" y="263.292">identifier</text><line style="stroke:#181818;stroke-width:0.5;" x1="360" x2="712" y1="270.5938" y2="270.5938"/></g><!--class ISiKMedikationsListe--><g id="elem_ISiKMedikationsListe"><rect codeLine="35" fill="#F1F1F1" height="80.5938" id="ISiKMedikationsListe" rx="2.5" ry="2.5" style="stroke:#181818;stroke-width:0.5;" width="196" x="748" y="198"/><ellipse cx="763" cy="214" fill="#8DA5C4" rx="11" ry="11" style="stroke:#181818;stroke-width:1.0;"/><path d="M762.7969,209.6719 L762.7969,213.2969 L763.7969,213.2969 Q765,213.2969 765.4844,212.8906 Q765.9688,212.4844 765.9688,211.4844 Q765.9688,210.4844 765.4844,210.0781 Q765,209.6719 763.7969,209.6719 L762.7969,209.6719 Z M760.3438,207.6094 L763.7031,207.6094 Q766.2656,207.6094 767.3906,208.5313 Q768.5156,209.4375 768.5156,211.4844 Q768.5156,213.5313 767.3906,214.4531 Q766.2656,215.3594 763.7031,215.3594 L762.7969,215.3594 L762.7969,220 L760.3438,220 L760.3438,207.6094 Z " fill="#000000"/><text fill="#000000" font-family="sans-serif" font-size="14" lengthAdjust="spacing" textLength="139" x="777" y="218.8467">ISiKMedikationsListe</text><rect fill="#FFFFFF" height="15.9688" style="stroke:#181818;stroke-width:1.0;stroke-dasharray:2.0,2.0;" width="23" x="924" y="195"/><text fill="#000000" font-family="sans-serif" font-size="12" font-style="italic" lengthAdjust="spacing" textLength="21" x="925" y="207.1387">List</text><line style="stroke:#181818;stroke-width:0.5;" x1="749" x2="943" y1="230" y2="230"/><text fill="#000000" font-family="sans-serif" font-size="14" lengthAdjust="spacing" textLength="12" x="754" y="246.9951">id</text><text fill="#000000" font-family="sans-serif" font-size="14" lengthAdjust="spacing" textLength="59" x="754" y="263.292">identifier</text><line style="stroke:#181818;stroke-width:0.5;" x1="749" x2="943" y1="270.5938" y2="270.5938"/></g><!--class ISiKMedikationsVerabreichung--><g id="elem_ISiKMedikationsVerabreichung"><rect codeLine="39" fill="#F1F1F1" height="80.5938" id="ISiKMedikationsVerabreichung" rx="2.5" ry="2.5" style="stroke:#181818;stroke-width:0.5;" width="401" x="21.5" y="411"/><ellipse cx="36.5" cy="427" fill="#8DA5C4" rx="11" ry="11" style="stroke:#181818;stroke-width:1.0;"/><path d="M36.2969,422.6719 L36.2969,426.2969 L37.2969,426.2969 Q38.5,426.2969 38.9844,425.8906 Q39.4688,425.4844 39.4688,424.4844 Q39.4688,423.4844 38.9844,423.0781 Q38.5,422.6719 37.2969,422.6719 L36.2969,422.6719 Z M33.8438,420.6094 L37.2031,420.6094 Q39.7656,420.6094 40.8906,421.5313 Q42.0156,422.4375 42.0156,424.4844 Q42.0156,426.5313 40.8906,427.4531 Q39.7656,428.3594 37.2031,428.3594 L36.2969,428.3594 L36.2969,433 L33.8438,433 L33.8438,420.6094 Z " fill="#000000"/><text fill="#000000" font-family="sans-serif" font-size="14" lengthAdjust="spacing" textLength="208" x="50.5" y="431.8467">ISiKMedikationsVerabreichung</text><rect fill="#FFFFFF" height="15.9688" style="stroke:#181818;stroke-width:1.0;stroke-dasharray:2.0,2.0;" width="159" x="266.5" y="408"/><text fill="#000000" font-family="sans-serif" font-size="12" font-style="italic" lengthAdjust="spacing" textLength="157" x="267.5" y="420.1387">MedicationAdministration</text><line style="stroke:#181818;stroke-width:0.5;" x1="22.5" x2="421.5" y1="443" y2="443"/><text fill="#000000" font-family="sans-serif" font-size="14" lengthAdjust="spacing" textLength="12" x="27.5" y="459.9951">id</text><text fill="#000000" font-family="sans-serif" font-size="14" lengthAdjust="spacing" textLength="59" x="27.5" y="476.292">identifier</text><line style="stroke:#181818;stroke-width:0.5;" x1="22.5" x2="421.5" y1="483.5938" y2="483.5938"/></g><!--class ISiKMedikationsVerordnung--><g id="elem_ISiKMedikationsVerordnung"><rect codeLine="43" fill="#F1F1F1" height="80.5938" id="ISiKMedikationsVerordnung" rx="2.5" ry="2.5" style="stroke:#181818;stroke-width:0.5;" width="344" x="458" y="411"/><ellipse cx="473" cy="427" fill="#8DA5C4" rx="11" ry="11" style="stroke:#181818;stroke-width:1.0;"/><path d="M472.7969,422.6719 L472.7969,426.2969 L473.7969,426.2969 Q475,426.2969 475.4844,425.8906 Q475.9688,425.4844 475.9688,424.4844 Q475.9688,423.4844 475.4844,423.0781 Q475,422.6719 473.7969,422.6719 L472.7969,422.6719 Z M470.3438,420.6094 L473.7031,420.6094 Q476.2656,420.6094 477.3906,421.5313 Q478.5156,422.4375 478.5156,424.4844 Q478.5156,426.5313 477.3906,427.4531 Q476.2656,428.3594 473.7031,428.3594 L472.7969,428.3594 L472.7969,433 L470.3438,433 L470.3438,420.6094 Z " fill="#000000"/><text fill="#000000" font-family="sans-serif" font-size="14" lengthAdjust="spacing" textLength="189" x="487" y="431.8467">ISiKMedikationsVerordnung</text><rect fill="#FFFFFF" height="15.9688" style="stroke:#181818;stroke-width:1.0;stroke-dasharray:2.0,2.0;" width="121" x="684" y="408"/><text fill="#000000" font-family="sans-serif" font-size="12" font-style="italic" lengthAdjust="spacing" textLength="119" x="685" y="420.1387">MedicationRequest</text><line style="stroke:#181818;stroke-width:0.5;" x1="459" x2="801" y1="443" y2="443"/><text fill="#000000" font-family="sans-serif" font-size="14" lengthAdjust="spacing" textLength="12" x="464" y="459.9951">id</text><text fill="#000000" font-family="sans-serif" font-size="14" lengthAdjust="spacing" textLength="59" x="464" y="476.292">identifier</text><line style="stroke:#181818;stroke-width:0.5;" x1="459" x2="801" y1="483.5938" y2="483.5938"/></g><!--class ISiKMedikationTransaction--><g id="elem_ISiKMedikationTransaction"><rect codeLine="47" fill="#F1F1F1" height="80.5938" id="ISiKMedikationTransaction" rx="2.5" ry="2.5" style="stroke:#181818;stroke-width:0.5;" width="259" x="837.5" y="411"/><ellipse cx="852.5" cy="427" fill="#8DA5C4" rx="11" ry="11" style="stroke:#181818;stroke-width:1.0;"/><path d="M852.2969,422.6719 L852.2969,426.2969 L853.2969,426.2969 Q854.5,426.2969 854.9844,425.8906 Q855.4688,425.4844 855.4688,424.4844 Q855.4688,423.4844 854.9844,423.0781 Q854.5,422.6719 853.2969,422.6719 L852.2969,422.6719 Z M849.8438,420.6094 L853.2031,420.6094 Q855.7656,420.6094 856.8906,421.5313 Q858.0156,422.4375 858.0156,424.4844 Q858.0156,426.5313 856.8906,427.4531 Q855.7656,428.3594 853.2031,428.3594 L852.2969,428.3594 L852.2969,433 L849.8438,433 L849.8438,420.6094 Z " fill="#000000"/><text fill="#000000" font-family="sans-serif" font-size="14" lengthAdjust="spacing" textLength="180" x="866.5" y="431.8467">ISiKMedikationTransaction</text><rect fill="#FFFFFF" height="15.9688" style="stroke:#181818;stroke-width:1.0;stroke-dasharray:2.0,2.0;" width="45" x="1054.5" y="408"/><text fill="#000000" font-family="sans-serif" font-size="12" font-style="italic" lengthAdjust="spacing" textLength="43" x="1055.5" y="420.1387">Bundle</text><line style="stroke:#181818;stroke-width:0.5;" x1="838.5" x2="1095.5" y1="443" y2="443"/><text fill="#000000" font-family="sans-serif" font-size="14" lengthAdjust="spacing" textLength="12" x="843.5" y="459.9951">id</text><text fill="#000000" font-family="sans-serif" font-size="14" lengthAdjust="spacing" textLength="59" x="843.5" y="476.292">identifier</text><line style="stroke:#181818;stroke-width:0.5;" x1="838.5" x2="1095.5" y1="483.5938" y2="483.5938"/></g><!--class ISiKMedikationTransactionResponse--><g id="elem_ISiKMedikationTransactionResponse"><rect codeLine="51" fill="#F1F1F1" height="80.5938" id="ISiKMedikationTransactionResponse" rx="2.5" ry="2.5" style="stroke:#181818;stroke-width:0.5;" width="330" x="57" y="552"/><ellipse cx="72" cy="568" fill="#8DA5C4" rx="11" ry="11" style="stroke:#181818;stroke-width:1.0;"/><path d="M71.7969,563.6719 L71.7969,567.2969 L72.7969,567.2969 Q74,567.2969 74.4844,566.8906 Q74.9688,566.4844 74.9688,565.4844 Q74.9688,564.4844 74.4844,564.0781 Q74,563.6719 72.7969,563.6719 L71.7969,563.6719 Z M69.3438,561.6094 L72.7031,561.6094 Q75.2656,561.6094 76.3906,562.5313 Q77.5156,563.4375 77.5156,565.4844 Q77.5156,567.5313 76.3906,568.4531 Q75.2656,569.3594 72.7031,569.3594 L71.7969,569.3594 L71.7969,574 L69.3438,574 L69.3438,561.6094 Z " fill="#000000"/><text fill="#000000" font-family="sans-serif" font-size="14" lengthAdjust="spacing" textLength="251" x="86" y="572.8467">ISiKMedikationTransactionResponse</text><rect fill="#FFFFFF" height="15.9688" style="stroke:#181818;stroke-width:1.0;stroke-dasharray:2.0,2.0;" width="45" x="345" y="549"/><text fill="#000000" font-family="sans-serif" font-size="12" font-style="italic" lengthAdjust="spacing" textLength="43" x="346" y="561.1387">Bundle</text><line style="stroke:#181818;stroke-width:0.5;" x1="58" x2="386" y1="584" y2="584"/><text fill="#000000" font-family="sans-serif" font-size="14" lengthAdjust="spacing" textLength="12" x="63" y="600.9951">id</text><text fill="#000000" font-family="sans-serif" font-size="14" lengthAdjust="spacing" textLength="59" x="63" y="617.292">identifier</text><line style="stroke:#181818;stroke-width:0.5;" x1="58" x2="386" y1="624.5938" y2="624.5938"/></g><!--class Bundle--><g id="elem_Bundle"><rect codeLine="57" fill="#F1F1F1" height="137.4844" id="Bundle" rx="2.5" ry="2.5" style="stroke:#181818;stroke-width:0.5;" width="81" x="1331.5" y="170"/><ellipse cx="1346.5" cy="186" fill="#FFAAAA" rx="11" ry="11" style="stroke:#181818;stroke-width:1.0;"/><path d="M1346.2969,181.6719 L1346.2969,185.2969 L1347.2969,185.2969 Q1348.5,185.2969 1348.9844,184.8906 Q1349.4688,184.4844 1349.4688,183.4844 Q1349.4688,182.4844 1348.9844,182.0781 Q1348.5,181.6719 1347.2969,181.6719 L1346.2969,181.6719 Z M1343.8438,179.6094 L1347.2031,179.6094 Q1349.7656,179.6094 1350.8906,180.5313 Q1352.0156,181.4375 1352.0156,183.4844 Q1352.0156,185.5313 1350.8906,186.4531 Q1349.7656,187.3594 1347.2031,187.3594 L1346.2969,187.3594 L1346.2969,192 L1343.8438,192 L1343.8438,179.6094 Z " fill="#000000"/><text fill="#000000" font-family="sans-serif" font-size="14" lengthAdjust="spacing" textLength="49" x="1360.5" y="190.8467">Bundle</text><line style="stroke:#181818;stroke-width:0.5;" x1="1332.5" x2="1411.5" y1="202" y2="202"/><text fill="#000000" font-family="sans-serif" font-size="14" lengthAdjust="spacing" textLength="12" x="1337.5" y="218.9951">id</text><text fill="#000000" font-family="sans-serif" font-size="14" lengthAdjust="spacing" textLength="59" x="1337.5" y="235.292">identifier</text><line style="stroke:#181818;stroke-width:1.0;" x1="1332.5" x2="1411.5" y1="242.5938" y2="242.5938"/><line style="stroke:#181818;stroke-width:1.0;" x1="1332.5" x2="1411.5" y1="250.5938" y2="250.5938"/><text fill="#000000" font-family="sans-serif" font-size="14" lengthAdjust="spacing" textLength="12" x="1337.5" y="267.5889">...</text><text fill="#000000" font-family="sans-serif" font-size="14" lengthAdjust="spacing" textLength="66" x="1337.5" y="283.8857">struct e {</text><text fill="#000000" font-family="sans-serif" font-size="14" lengthAdjust="spacing" textLength="61" x="1337.5" y="300.1826">eintrag }</text></g><!--class List--><g id="elem_List"><rect codeLine="66" fill="#F1F1F1" height="104.8906" id="List" rx="2.5" ry="2.5" style="stroke:#181818;stroke-width:0.5;" width="71" x="1225.5" y="186"/><ellipse cx="1247.7" cy="202" fill="#FFAAAA" rx="11" ry="11" style="stroke:#181818;stroke-width:1.0;"/><path d="M1247.4969,197.6719 L1247.4969,201.2969 L1248.4969,201.2969 Q1249.7,201.2969 1250.1844,200.8906 Q1250.6688,200.4844 1250.6688,199.4844 Q1250.6688,198.4844 1250.1844,198.0781 Q1249.7,197.6719 1248.4969,197.6719 L1247.4969,197.6719 Z M1245.0438,195.6094 L1248.4031,195.6094 Q1250.9656,195.6094 1252.0906,196.5313 Q1253.2156,197.4375 1253.2156,199.4844 Q1253.2156,201.5313 1252.0906,202.4531 Q1250.9656,203.3594 1248.4031,203.3594 L1247.4969,203.3594 L1247.4969,208 L1245.0438,208 L1245.0438,195.6094 Z " fill="#000000"/><text fill="#000000" font-family="sans-serif" font-size="14" lengthAdjust="spacing" textLength="23" x="1263.3" y="206.8467">List</text><line style="stroke:#181818;stroke-width:0.5;" x1="1226.5" x2="1295.5" y1="218" y2="218"/><text fill="#000000" font-family="sans-serif" font-size="14" lengthAdjust="spacing" textLength="12" x="1231.5" y="234.9951">id</text><text fill="#000000" font-family="sans-serif" font-size="14" lengthAdjust="spacing" textLength="59" x="1231.5" y="251.292">identifier</text><line style="stroke:#181818;stroke-width:1.0;" x1="1226.5" x2="1295.5" y1="258.5938" y2="258.5938"/><line style="stroke:#181818;stroke-width:1.0;" x1="1226.5" x2="1295.5" y1="266.5938" y2="266.5938"/><text fill="#000000" font-family="sans-serif" font-size="14" lengthAdjust="spacing" textLength="12" x="1231.5" y="283.5889">...</text></g><!--class ISiKPatient--><g id="elem_ISiKPatient"><rect codeLine="75" fill="#F1F1F1" height="104.8906" id="ISiKPatient" rx="2.5" ry="2.5" style="stroke:#181818;stroke-width:0.5;" width="152" x="1541" y="186"/><ellipse cx="1556" cy="202" fill="#CCCCFF" rx="11" ry="11" style="stroke:#181818;stroke-width:1.0;"/><path d="M1555.7969,197.6719 L1555.7969,201.2969 L1556.7969,201.2969 Q1558,201.2969 1558.4844,200.8906 Q1558.9688,200.4844 1558.9688,199.4844 Q1558.9688,198.4844 1558.4844,198.0781 Q1558,197.6719 1556.7969,197.6719 L1555.7969,197.6719 Z M1553.3438,195.6094 L1556.7031,195.6094 Q1559.2656,195.6094 1560.3906,196.5313 Q1561.5156,197.4375 1561.5156,199.4844 Q1561.5156,201.5313 1560.3906,202.4531 Q1559.2656,203.3594 1556.7031,203.3594 L1555.7969,203.3594 L1555.7969,208 L1553.3438,208 L1553.3438,195.6094 Z " fill="#000000"/><text fill="#000000" font-family="sans-serif" font-size="14" lengthAdjust="spacing" textLength="72" x="1570" y="206.8467">ISiKPatient</text><rect fill="#FFFFFF" height="15.9688" style="stroke:#181818;stroke-width:1.0;stroke-dasharray:2.0,2.0;" width="46" x="1650" y="183"/><text fill="#000000" font-family="sans-serif" font-size="12" font-style="italic" lengthAdjust="spacing" textLength="44" x="1651" y="195.1387">Patient</text><line style="stroke:#181818;stroke-width:0.5;" x1="1542" x2="1692" y1="218" y2="218"/><text fill="#000000" font-family="sans-serif" font-size="14" lengthAdjust="spacing" textLength="12" x="1547" y="234.9951">id</text><text fill="#000000" font-family="sans-serif" font-size="14" lengthAdjust="spacing" textLength="59" x="1547" y="251.292">identifier</text><line style="stroke:#181818;stroke-width:1.0;" x1="1542" x2="1692" y1="258.5938" y2="258.5938"/><line style="stroke:#181818;stroke-width:1.0;" x1="1542" x2="1692" y1="266.5938" y2="266.5938"/><text fill="#000000" font-family="sans-serif" font-size="14" lengthAdjust="spacing" textLength="12" x="1547" y="283.5889">...</text></g><!--SRC=[hLFDJjj04BxxAKPK5MrKsvI6WY8hKe16GXI12EfzRO_jKTQxxkuwvITvbbvuZDxoOXqdAN4fbPh2IFREpin-yxyD4pG5gHGDmeNHiSGIeIG7ENuZDKRfKC6fcTyNgBBvZ_btL9uTawg44IL8KkXkAWHjNA4zyBQX4ibOv0Z7TLdUtB40bIDt0v-QOtxlTjv38sNIbIEjX4GB0-SCnRLRAZgTbYf3vreMdSxAXgqcskHeay8GngYUDftnjs4Gq0E7r_yK2oZE4Wr4aQYTxlStZwqLqMmQ1DFfMhBRLd-0cGu2tL9ts-ezc4vzNz-j9H_RwdsOQjzlWnyi_8C7st1rVdpUQvWlQ2PQIii6AgMS6qybZ4WfX8bMFIYSgsml37DoHHq7YIx374lXQ1pQ2XF_P4Id_XccD1PDoS9OwZWqILWAKhvrTOP-DpmJ3Wq96QOwiU7Q-lNkpY3E9L9IC1kZTSWZbo9VHXNUKhQoGnLSItljURy6xP5NRcmYXRMmKBJaKSCd2xuVHMykthqwE1xi7NNVzljt7dUDqkM_6PMCq7Ypfu7iYSgqAVy07JdEhEJNpqF_J9mvHCtnF23kfeXDKyzQvUr01sb9Yk7D2zI2dMYJgaSUBl5hZS-C_ye8PKMohF9XhLA9BuLtYRRYs75JtDd3p6qLSZ_82ZA1wV8U6DnQZzqI4vQOm-60wQ-OVFFzzJy8WkRWrjI90uJ58oOanTtAcuK5UCYl6P7_TjFEPh51XyAI_NrvBhXmZ07HYbdLwOXfEDpKcUVz1000]--></g></svg>