<?xml version="1.0" encoding="us-ascii" standalone="no"?><svg xmlns="http://www.w3.org/2000/svg" xmlns:xlink="http://www.w3.org/1999/xlink" contentStyleType="text/css" height="1365px" preserveAspectRatio="none" style="width:2176px;height:1365px;background:#FFFFFF;" version="1.1" viewBox="0 0 2176 1365" width="2176px" zoomAndPan="magnify"><defs/><g><!--cluster adverseUC--><g id="cluster_adverseUC"><rect fill="none" height="343" rx="35" ry="35" style="stroke:#181818;stroke-width:1.0;" width="454" x="162.5" y="875.1382"/><text fill="#000000" font-family="sans-serif" font-size="14" font-weight="bold" lengthAdjust="spacing" textLength="145" x="317" y="895.1333">Adverse Use Case</text></g><!--cluster Verwechslung--><g id="cluster_Verwechslung"><rect fill="none" height="154" rx="35" ry="35" style="stroke:#181818;stroke-width:1.0;" width="405.5" x="187" y="918.1382"/><text fill="#000000" font-family="sans-serif" font-size="14" font-weight="bold" lengthAdjust="spacing" textLength="114" x="332.75" y="938.1333">Verwechslung</text></g><!--cluster gnrlUC--><g id="cluster_gnrlUC"><rect fill="none" height="661" rx="35" ry="35" style="stroke:#181818;stroke-width:1.0;" width="470" x="139" y="182.1382"/><text fill="#000000" font-family="sans-serif" font-size="14" font-weight="bold" lengthAdjust="spacing" textLength="77" x="335.5" y="202.1333">Allgemein</text></g><!--cluster AMTS--><g id="cluster_AMTS"><rect fill="none" height="149" rx="35" ry="35" style="stroke:#181818;stroke-width:1.0;" width="174" x="182.5" y="241.1382"/><text fill="#000000" font-family="sans-serif" font-size="14" font-weight="bold" lengthAdjust="spacing" textLength="44" x="247.5" y="261.1333">AMTS</text></g><!--cluster Medikations-Liste--><g id="cluster_Medikations-Liste"><rect fill="none" height="154" rx="35" ry="35" style="stroke:#181818;stroke-width:1.0;" width="406" x="171" y="414.1382"/><text fill="#000000" font-family="sans-serif" font-size="14" font-weight="bold" lengthAdjust="spacing" textLength="138" x="305" y="434.1333">Medikations-Liste</text></g><!--cluster fncts--><g id="cluster_fncts"><path d="M665.4548,66.1368 C701.232,24.1658 743.9787,29.4573 771.8921,75.6324 C802.9258,20.5015 839.3175,19.9288 877.841,67.9386 C907.144,14.674 947.778,17.6477 980.8729,64.0175 C1017.5768,15.7672 1054.6826,19.1806 1077.9775,76.3669 C1103.7505,20.5899 1148.6366,20.3442 1182.4414,68.2767 C1208.3245,16.0396 1256.5966,19.7478 1283.2098,67.5411 C1311.1302,10.2901 1358.7866,6 1392.8874,61.5308 C1419.4127,8.4935 1461.8973,12.9954 1490.6861,59.3026 C1518.7449,10.9702 1566.1685,9.7551 1588.8771,64.404 C1630.828,12.2712 1667.5616,13.8277 1699.0116,74.6433 C1727.4193,23.9653 1765.8641,24.4323 1799.4894,69.1476 C1834.1569,15.131 1870.4657,14.5152 1902.2552,71.8047 C1923.1607,30.8134 1968.1539,26.4756 1993.641,66.6459 C2029.1655,12.1788 2060.9252,24.1369 2095,68.1382 C2104.9989,69.2946 2107.1526,74.3542 2103.9219,83.297 C2138.8088,110.5902 2144.3841,144.073 2102.8947,170.4662 C2163.0401,205.842 2169.1081,246.0558 2107.143,285.9246 C2158.1899,316.1324 2158.6444,351.6047 2107.5106,382.2025 C2157.0541,408.694 2151.8561,454.505 2105.5153,479.0205 C2146.4656,506.4617 2143.6773,541.2215 2107.6598,570.4677 C2162.7752,602.2971 2164.0332,649.7579 2111.1117,684.8477 C2158.7333,711.6221 2147.8048,752.8289 2109.9356,778.53 C2155.6023,813.7051 2154.4028,843.2214 2103.3266,871.5208 C2153.9804,900.5542 2163.0748,943.8796 2108.2943,977.8395 C2154.0963,1013.0449 2144.0031,1056.1412 2098.9505,1083.2966 C2140.0054,1103.7584 2156.086,1138.4449 2113.3011,1172.4083 C2154.237,1219.6667 2140.4553,1251.6591 2088,1276.1382 C2093.9083,1278.3604 2093.3106,1282.1595 2089.7898,1286.0793 C2065.5595,1326.9755 2023.708,1326.6193 2001.7542,1283.6887 C1973.4176,1341.2845 1924.3102,1332.5935 1890.7945,1289.3899 C1860.2725,1345.2995 1825.4245,1339.5643 1789.4377,1294.8971 C1761.5248,1334.8844 1720.1634,1339.1334 1699.1291,1288.0742 C1656.5383,1338.9968 1619.5603,1342.5584 1580.77,1283.9668 C1554.7823,1325.4717 1508.4649,1330.248 1479.7866,1287.1795 C1461.4649,1331.2655 1421.5463,1343.243 1390.9823,1299.5673 C1350.1776,1352.6623 1313.248,1358.0075 1274.6593,1297.3022 C1241.798,1341.8009 1208.9934,1347.1577 1176.4586,1296.9637 C1148.0168,1337.8505 1112.1452,1337.7978 1086.4209,1294.0721 C1052.5159,1346.1863 1004.0852,1338.7992 981.8764,1282.7657 C944.3935,1333.3028 908.1803,1338.5342 872.8961,1280.5575 C842.67,1319.3935 805.2109,1327.2945 776.3581,1279.0353 C741.6331,1324.3641 683.6372,1321.3462 657,1269.1382 C666.814,1265.3691 672.832,1271.3028 670.7038,1281.1538 C614.5001,1259.2594 612.1433,1210.2217 660.2585,1177.7859 C607.5123,1136.3648 610.4942,1104.3211 668.7057,1071.7383 C627.1546,1044.6177 626.8364,1006.7513 669.3789,980.2495 C620.6748,951.7391 612.1421,918.7632 658.098,879.639 C610.8606,855.6067 614.3429,809.9214 652.7286,781.2179 C600.6702,739.6612 617.1069,709.5262 662.5533,677.177 C620.1585,645.2576 614.0088,611.7741 660.7074,578.1933 C618.9877,544.9953 614.5361,512.4226 662.9226,481.2843 C611.9912,455.7406 615.4429,409.6007 665.0073,386.2618 C606.6646,362.3509 604.1898,311.4742 659.0683,281.1653 C612.0495,244.4396 618.3108,202.9404 665.357,171.6144 C607.1064,137.3308 606.1339,96.8481 664,61.1382 C666.5795,62.1536 667.0393,63.9094 665.4548,66.1368 " fill="none" style="stroke:#181818;stroke-width:1.0;"/><text fill="#000000" font-family="sans-serif" font-size="14" font-weight="bold" lengthAdjust="spacing" textLength="180" x="1286" y="79.1333">Search Functions() For</text></g><!--cluster CSt_MedInfo--><g id="cluster_CSt_MedInfo"><path d="M697,104.1382 L954,104.1382 A3.75,3.75 0 0 1 956.5,106.6382 L963.5,142.7319 L1366.5,142.7319 A2.5,2.5 0 0 1 1369,145.2319 L1369,450.6382 A2.5,2.5 0 0 1 1366.5,453.1382 L697,453.1382 A2.5,2.5 0 0 1 694.5,450.6382 L694.5,106.6382 A2.5,2.5 0 0 1 697,104.1382 " fill="none" style="stroke:#000000;stroke-width:1.5;"/><line style="stroke:#000000;stroke-width:1.5;" x1="694.5" x2="963.5" y1="142.7319" y2="142.7319"/><text fill="#000000" font-family="sans-serif" font-size="14" font-weight="bold" lengthAdjust="spacing" textLength="251" x="698.5" y="119.1333">Systeme mit dem Charakter der</text><text fill="#000000" font-family="sans-serif" font-size="14" font-weight="bold" lengthAdjust="spacing" textLength="184" x="737" y="135.4302">Medikationsinformation</text></g><!--cluster CSt_MedVerab--><g id="cluster_CSt_MedVerab"><path d="M683.5,477.1382 L940.5,477.1382 A3.75,3.75 0 0 1 943,479.6382 L950,515.7319 L1368.5,515.7319 A2.5,2.5 0 0 1 1371,518.2319 L1371,839.6382 A2.5,2.5 0 0 1 1368.5,842.1382 L683.5,842.1382 A2.5,2.5 0 0 1 681,839.6382 L681,479.6382 A2.5,2.5 0 0 1 683.5,477.1382 " fill="none" style="stroke:#000000;stroke-width:1.5;"/><line style="stroke:#000000;stroke-width:1.5;" x1="681" x2="950" y1="515.7319" y2="515.7319"/><text fill="#000000" font-family="sans-serif" font-size="14" font-weight="bold" lengthAdjust="spacing" textLength="251" x="685" y="492.1333">Systeme mit dem Charakter der</text><text fill="#000000" font-family="sans-serif" font-size="14" font-weight="bold" lengthAdjust="spacing" textLength="209" x="711" y="508.4302">Medikationsverabreichung</text></g><!--cluster CSt_MedVerord--><g id="cluster_CSt_MedVerord"><path d="M1418.5,104.1382 L1675.5,104.1382 A3.75,3.75 0 0 1 1678,106.6382 L1685,142.7319 L2068.5,142.7319 A2.5,2.5 0 0 1 2071,145.2319 L2071,466.6382 A2.5,2.5 0 0 1 2068.5,469.1382 L1418.5,469.1382 A2.5,2.5 0 0 1 1416,466.6382 L1416,106.6382 A2.5,2.5 0 0 1 1418.5,104.1382 " fill="none" style="stroke:#000000;stroke-width:1.5;"/><line style="stroke:#000000;stroke-width:1.5;" x1="1416" x2="1685" y1="142.7319" y2="142.7319"/><text fill="#000000" font-family="sans-serif" font-size="14" font-weight="bold" lengthAdjust="spacing" textLength="251" x="1420" y="119.1333">Systeme mit dem Charakter der</text><text fill="#000000" font-family="sans-serif" font-size="14" font-weight="bold" lengthAdjust="spacing" textLength="187" x="1457" y="135.4302">Medikationsverordnung</text></g><g id="elem_Mehrfachverordnung"><ellipse cx="269.4996" cy="1181.2381" fill="#F1F1F1" rx="90.9996" ry="20.5999" style="stroke:#181818;stroke-width:0.5;"/><text fill="#000000" font-family="sans-serif" font-size="14" lengthAdjust="spacing" textLength="144" x="197.4996" y="1184.0848">Mehrfachverordnung</text></g><g id="elem_Informationsl&#252;cke"><ellipse cx="269.4455" cy="1107.3273" fill="#F1F1F1" rx="81.4455" ry="18.6891" style="stroke:#181818;stroke-width:0.5;"/><text fill="#000000" font-family="sans-serif" font-size="14" lengthAdjust="spacing" textLength="122" x="207.3109" y="1110.5471">Informationsl&#252;cke</text></g><g id="elem_Kontraindikation"><ellipse cx="498.4563" cy="1180.9294" fill="#F1F1F1" rx="76.9563" ry="17.7913" style="stroke:#181818;stroke-width:0.5;"/><text fill="#000000" font-family="sans-serif" font-size="14" lengthAdjust="spacing" textLength="111" x="440.0675" y="1184.6482">Kontraindikation</text></g><g id="elem_Wechselwirkung"><ellipse cx="498.2532" cy="1110.0888" fill="#F1F1F1" rx="77.7532" ry="17.9506" style="stroke:#181818;stroke-width:0.5;"/><text fill="#000000" font-family="sans-serif" font-size="14" lengthAdjust="spacing" textLength="113" x="439.1994" y="1113.719">Wechselwirkung</text></g><g id="elem_Patient"><ellipse cx="269.3836" cy="1039.286" fill="#F1F1F1" rx="45.8836" ry="14.6478" style="stroke:#181818;stroke-width:0.5;"/><text fill="#000000" font-family="sans-serif" font-size="14" lengthAdjust="spacing" textLength="48" x="242.3836" y="1043.0335">Patient</text></g><g id="elem_Fall, Kontakt"><ellipse cx="269.4626" cy="974.3307" fill="#F1F1F1" rx="66.4626" ry="15.6925" style="stroke:#181818;stroke-width:0.5;"/><text fill="#000000" font-family="sans-serif" font-size="14" lengthAdjust="spacing" textLength="83" x="224.9626" y="978.0782">Fall, Kontakt</text></g><g id="elem_Verordnung "><ellipse cx="498.5233" cy="1040.0428" fill="#F1F1F1" rx="67.5233" ry="15.9047" style="stroke:#181818;stroke-width:0.5;"/><text fill="#000000" font-family="sans-serif" font-size="14" lengthAdjust="spacing" textLength="82" x="452.5233" y="1043.7904">Verordnung</text></g><g id="elem_Intensit&#228;t, Dauer"><ellipse cx="498.6551" cy="971.1692" fill="#F1F1F1" rx="78.1551" ry="18.031" style="stroke:#181818;stroke-width:0.5;"/><text fill="#000000" font-family="sans-serif" font-size="14" lengthAdjust="spacing" textLength="114" x="439.2659" y="974.7547">Intensit&#228;t, Dauer</text></g><g id="elem_Information"><ellipse cx="269.3963" cy="802.9174" fill="#F1F1F1" rx="64.3963" ry="15.2793" style="stroke:#181818;stroke-width:0.5;"/><text fill="#000000" font-family="sans-serif" font-size="14" lengthAdjust="spacing" textLength="77" x="227.8963" y="806.665">Information</text></g><g id="elem_Verordnung"><ellipse cx="269.613" cy="737.2608" fill="#F1F1F1" rx="66.113" ry="15.6226" style="stroke:#181818;stroke-width:0.5;"/><text fill="#000000" font-family="sans-serif" font-size="14" lengthAdjust="spacing" textLength="82" x="225.613" y="741.0083">Verordnung</text></g><g id="elem_Verabreichung"><ellipse cx="269.5678" cy="669.1517" fill="#F1F1F1" rx="73.0678" ry="17.0136" style="stroke:#181818;stroke-width:0.5;"/><text fill="#000000" font-family="sans-serif" font-size="14" lengthAdjust="spacing" textLength="101" x="216.0678" y="672.8993">Verabreichung</text></g><g id="elem_Abgabe"><ellipse cx="269.6151" cy="602.3255" fill="#F1F1F1" rx="49.6151" ry="14.6874" style="stroke:#181818;stroke-width:0.5;"/><text fill="#000000" font-family="sans-serif" font-size="14" lengthAdjust="spacing" textLength="53" x="240.1151" y="606.0731">Abgabe</text></g><g id="elem_Einstellung"><ellipse cx="498.5594" cy="737.35" fill="#F1F1F1" rx="64.0594" ry="15.2119" style="stroke:#181818;stroke-width:0.5;"/><text fill="#000000" font-family="sans-serif" font-size="14" lengthAdjust="spacing" textLength="76" x="457.5594" y="741.0976">Einstellung</text></g><g id="elem_Rezeptierung"><ellipse cx="498.4333" cy="670.1248" fill="#F1F1F1" rx="70.4333" ry="16.4867" style="stroke:#181818;stroke-width:0.5;"/><text fill="#000000" font-family="sans-serif" font-size="14" lengthAdjust="spacing" textLength="94" x="448.4333" y="673.8724">Rezeptierung</text></g><g id="elem_Pr&#252;fung"><ellipse cx="269.3615" cy="291.3328" fill="#F1F1F1" rx="50.3615" ry="14.6946" style="stroke:#181818;stroke-width:0.5;"/><text fill="#000000" font-family="sans-serif" font-size="14" lengthAdjust="spacing" textLength="54" x="239.3615" y="295.0803">Pr&#252;fung</text></g><g id="elem_Reconcillation"><ellipse cx="269.6781" cy="357.2738" fill="#F1F1F1" rx="71.1781" ry="16.6356" style="stroke:#181818;stroke-width:0.5;"/><text fill="#000000" font-family="sans-serif" font-size="14" lengthAdjust="spacing" textLength="96" x="218.6781" y="361.0213">Reconcillation</text></g><g id="elem_Zusammenstellen"><ellipse cx="269.712" cy="533.0806" fill="#F1F1F1" rx="82.712" ry="18.9424" style="stroke:#181818;stroke-width:0.5;"/><text fill="#000000" font-family="sans-serif" font-size="14" lengthAdjust="spacing" textLength="125" x="206.5208" y="536.1597">Zusammenstellen</text></g><g id="elem_Aufteilen"><ellipse cx="269.3402" cy="464.372" fill="#F1F1F1" rx="54.8402" ry="14.7338" style="stroke:#181818;stroke-width:0.5;"/><text fill="#000000" font-family="sans-serif" font-size="14" lengthAdjust="spacing" textLength="60" x="236.3402" y="468.1195">Aufteilen</text></g><g id="elem_Ver&#228;ndern"><ellipse cx="498.7349" cy="533.0851" fill="#F1F1F1" rx="62.7349" ry="14.947" style="stroke:#181818;stroke-width:0.5;"/><text fill="#000000" font-family="sans-serif" font-size="14" lengthAdjust="spacing" textLength="72" x="459.7349" y="536.8327">Ver&#228;ndern</text></g><!--entity CStAll_MedikationsListe--><g id="elem_CStAll_MedikationsListe"><rect fill="#F1F1F1" height="119.4844" rx="2.5" ry="2.5" style="stroke:#181818;stroke-width:0.5;" width="206" x="736.5" y="1121.6382"/><rect fill="#F1F1F1" height="10" style="stroke:#181818;stroke-width:0.5;" width="15" x="922.5" y="1126.6382"/><rect fill="#F1F1F1" height="2" style="stroke:#181818;stroke-width:0.5;" width="4" x="920.5" y="1128.6382"/><rect fill="#F1F1F1" height="2" style="stroke:#181818;stroke-width:0.5;" width="4" x="920.5" y="1132.6382"/><text fill="#000000" font-family="sans-serif" font-size="14" font-weight="bold" lengthAdjust="spacing" textLength="166" x="751.5" y="1154.6333">ISiK MedikationsListe</text><line style="stroke:#181818;stroke-width:1.0;" x1="737.5" x2="941.5" y1="1157.935" y2="1157.935"/><line style="stroke:#181818;stroke-width:1.0;" x1="737.5" x2="941.5" y1="1159.935" y2="1159.935"/><text fill="#000000" font-family="sans-serif" font-size="14" lengthAdjust="spacing" textLength="129" x="751.5" y="1174.9302">Suche anhand von</text><ellipse cx="757" cy="1187.0288" fill="#000000" rx="2.5" ry="2.5" style="stroke:#000000;stroke-width:0.0;"/><text fill="#000000" font-family="sans-serif" font-size="14" font-weight="bold" lengthAdjust="spacing" textLength="6" x="768.5" y="1191.227">:</text><text fill="#000000" font-family="sans-serif" font-size="14" lengthAdjust="spacing" textLength="76" x="783.5" y="1191.227">medication</text><ellipse cx="757" cy="1203.3257" fill="#000000" rx="2.5" ry="2.5" style="stroke:#000000;stroke-width:0.0;"/><text fill="#000000" font-family="sans-serif" font-size="14" font-weight="bold" lengthAdjust="spacing" textLength="6" x="768.5" y="1207.5239">:</text><text fill="#000000" font-family="sans-serif" font-size="14" lengthAdjust="spacing" textLength="48" x="783.5" y="1207.5239">patient</text><ellipse cx="757" cy="1219.6225" fill="#000000" rx="2.5" ry="2.5" style="stroke:#000000;stroke-width:0.0;"/><text fill="#000000" font-family="sans-serif" font-size="14" font-weight="bold" lengthAdjust="spacing" textLength="6" x="768.5" y="1223.8208">:</text><text fill="#000000" font-family="sans-serif" font-size="14" lengthAdjust="spacing" textLength="52" x="783.5" y="1223.8208">context</text></g><!--entity CStAll_Medikament--><g id="elem_CStAll_Medikament"><rect fill="#F1F1F1" height="86.8906" rx="2.5" ry="2.5" style="stroke:#181818;stroke-width:0.5;" width="169" x="755" y="999.6382"/><rect fill="#F1F1F1" height="10" style="stroke:#181818;stroke-width:0.5;" width="15" x="904" y="1004.6382"/><rect fill="#F1F1F1" height="2" style="stroke:#181818;stroke-width:0.5;" width="4" x="902" y="1006.6382"/><rect fill="#F1F1F1" height="2" style="stroke:#181818;stroke-width:0.5;" width="4" x="902" y="1010.6382"/><text fill="#000000" font-family="sans-serif" font-size="14" font-weight="bold" lengthAdjust="spacing" textLength="129" x="770" y="1032.6333">ISiK Medikament</text><line style="stroke:#181818;stroke-width:1.0;" x1="756" x2="923" y1="1035.935" y2="1035.935"/><line style="stroke:#181818;stroke-width:1.0;" x1="756" x2="923" y1="1037.935" y2="1037.935"/><text fill="#000000" font-family="sans-serif" font-size="14" lengthAdjust="spacing" textLength="129" x="770" y="1052.9302">Suche anhand von</text><ellipse cx="775.5" cy="1065.0288" fill="#000000" rx="2.5" ry="2.5" style="stroke:#000000;stroke-width:0.0;"/><text fill="#000000" font-family="sans-serif" font-size="14" font-weight="bold" lengthAdjust="spacing" textLength="6" x="787" y="1069.227">:</text><text fill="#000000" font-family="sans-serif" font-size="14" lengthAdjust="spacing" textLength="70" x="802" y="1069.227">ingredient</text></g><!--entity CStAll_Patient--><g id="elem_CStAll_Patient"><rect fill="#F1F1F1" height="103.1875" rx="2.5" ry="2.5" style="stroke:#181818;stroke-width:0.5;" width="215" x="732" y="861.6382"/><rect fill="#F1F1F1" height="10" style="stroke:#181818;stroke-width:0.5;" width="15" x="927" y="866.6382"/><rect fill="#F1F1F1" height="2" style="stroke:#181818;stroke-width:0.5;" width="4" x="925" y="868.6382"/><rect fill="#F1F1F1" height="2" style="stroke:#181818;stroke-width:0.5;" width="4" x="925" y="872.6382"/><text fill="#000000" font-family="sans-serif" font-size="14" font-weight="bold" lengthAdjust="spacing" textLength="89" x="747" y="894.6333">ISiK Patient</text><line style="stroke:#181818;stroke-width:1.0;" x1="733" x2="946" y1="897.935" y2="897.935"/><line style="stroke:#181818;stroke-width:1.0;" x1="733" x2="946" y1="899.935" y2="899.935"/><text fill="#000000" font-family="sans-serif" font-size="14" lengthAdjust="spacing" textLength="157" x="747" y="914.9302">Finde alle zugeh&#246;rigen</text><ellipse cx="752.5" cy="927.0288" fill="#000000" rx="2.5" ry="2.5" style="stroke:#000000;stroke-width:0.0;"/><text fill="#000000" font-family="sans-serif" font-size="14" lengthAdjust="spacing" textLength="72" x="759" y="931.227">Encounter</text><text fill="#000000" font-family="sans-serif" font-size="14" font-weight="bold" lengthAdjust="spacing" textLength="22" x="840" y="931.227">via</text><text fill="#000000" font-family="sans-serif" font-size="14" lengthAdjust="spacing" textLength="48" x="871" y="931.227">patient</text><ellipse cx="752.5" cy="943.3257" fill="#000000" rx="2.5" ry="2.5" style="stroke:#000000;stroke-width:0.0;"/><text fill="#000000" font-family="sans-serif" font-size="14" lengthAdjust="spacing" textLength="72" x="759" y="947.5239">Encounter</text><text fill="#000000" font-family="sans-serif" font-size="14" font-weight="bold" lengthAdjust="spacing" textLength="22" x="840" y="947.5239">via</text><text fill="#000000" font-family="sans-serif" font-size="14" lengthAdjust="spacing" textLength="51" x="871" y="947.5239">subject</text></g><!--entity CStAll_KontaktGesundheitseinrichtung--><g id="elem_CStAll_KontaktGesundheitseinrichtung"><rect fill="#F1F1F1" height="152.0781" rx="2.5" ry="2.5" style="stroke:#181818;stroke-width:0.5;" width="330" x="1042" y="1089.1382"/><rect fill="#F1F1F1" height="10" style="stroke:#181818;stroke-width:0.5;" width="15" x="1352" y="1094.1382"/><rect fill="#F1F1F1" height="2" style="stroke:#181818;stroke-width:0.5;" width="4" x="1350" y="1096.1382"/><rect fill="#F1F1F1" height="2" style="stroke:#181818;stroke-width:0.5;" width="4" x="1350" y="1100.1382"/><text fill="#000000" font-family="sans-serif" font-size="14" font-weight="bold" lengthAdjust="spacing" textLength="290" x="1057" y="1122.1333">ISiK Kontakt Gesundheitseinrichtung</text><line style="stroke:#181818;stroke-width:1.0;" x1="1043" x2="1371" y1="1125.435" y2="1125.435"/><line style="stroke:#181818;stroke-width:1.0;" x1="1043" x2="1371" y1="1127.435" y2="1127.435"/><text fill="#000000" font-family="sans-serif" font-size="14" lengthAdjust="spacing" textLength="129" x="1057" y="1142.4302">Suche anhand von</text><ellipse cx="1062.5" cy="1154.5288" fill="#000000" rx="2.5" ry="2.5" style="stroke:#000000;stroke-width:0.0;"/><text fill="#000000" font-family="sans-serif" font-size="14" font-weight="bold" lengthAdjust="spacing" textLength="6" x="1074" y="1158.727">:</text><text fill="#000000" font-family="sans-serif" font-size="14" lengthAdjust="spacing" textLength="48" x="1089" y="1158.727">patient</text><ellipse cx="1062.5" cy="1170.8257" fill="#000000" rx="2.5" ry="2.5" style="stroke:#000000;stroke-width:0.0;"/><text fill="#000000" font-family="sans-serif" font-size="14" font-weight="bold" lengthAdjust="spacing" textLength="6" x="1074" y="1175.0239">:</text><text fill="#000000" font-family="sans-serif" font-size="14" lengthAdjust="spacing" textLength="51" x="1089" y="1175.0239">subject</text><ellipse cx="1062.5" cy="1187.1225" fill="#000000" rx="2.5" ry="2.5" style="stroke:#000000;stroke-width:0.0;"/><text fill="#000000" font-family="sans-serif" font-size="14" font-weight="bold" lengthAdjust="spacing" textLength="6" x="1074" y="1191.3208">:</text><text fill="#000000" font-family="sans-serif" font-size="14" lengthAdjust="spacing" textLength="45" x="1089" y="1191.3208">part-of</text><text fill="#000000" font-family="sans-serif" font-size="14" lengthAdjust="spacing" textLength="157" x="1057" y="1207.6177">Finde alle zugeh&#246;rigen</text><ellipse cx="1062.5" cy="1219.7163" fill="#000000" rx="2.5" ry="2.5" style="stroke:#000000;stroke-width:0.0;"/><text fill="#000000" font-family="sans-serif" font-size="14" lengthAdjust="spacing" textLength="72" x="1069" y="1223.9145">Encounter</text><text fill="#000000" font-family="sans-serif" font-size="14" font-weight="bold" lengthAdjust="spacing" textLength="22" x="1150" y="1223.9145">via</text><text fill="#000000" font-family="sans-serif" font-size="14" lengthAdjust="spacing" textLength="45" x="1181" y="1223.9145">part-of</text></g><!--entity CStAll_PersonImGesundheitsberuf--><g id="elem_CStAll_PersonImGesundheitsberuf"><rect fill="#F1F1F1" height="54.2969" rx="2.5" ry="2.5" style="stroke:#181818;stroke-width:0.5;" width="301" x="1056.5" y="1000.1382"/><rect fill="#F1F1F1" height="10" style="stroke:#181818;stroke-width:0.5;" width="15" x="1337.5" y="1005.1382"/><rect fill="#F1F1F1" height="2" style="stroke:#181818;stroke-width:0.5;" width="4" x="1335.5" y="1007.1382"/><rect fill="#F1F1F1" height="2" style="stroke:#181818;stroke-width:0.5;" width="4" x="1335.5" y="1011.1382"/><text fill="#000000" font-family="sans-serif" font-size="14" font-weight="bold" lengthAdjust="spacing" textLength="261" x="1071.5" y="1033.1333">ISiK Person im Gesundheitsberuf</text><line style="stroke:#181818;stroke-width:1.0;" x1="1057.5" x2="1356.5" y1="1036.435" y2="1036.435"/><line style="stroke:#181818;stroke-width:1.0;" x1="1057.5" x2="1356.5" y1="1038.435" y2="1038.435"/></g><!--entity _MedInfo--><g id="elem__MedInfo"><rect fill="#F1F1F1" height="119.4844" rx="2.5" ry="2.5" style="stroke:#181818;stroke-width:0.5;" width="258" x="710.5" y="317.6382"/><rect fill="#F1F1F1" height="10" style="stroke:#181818;stroke-width:0.5;" width="15" x="948.5" y="322.6382"/><rect fill="#F1F1F1" height="2" style="stroke:#181818;stroke-width:0.5;" width="4" x="946.5" y="324.6382"/><rect fill="#F1F1F1" height="2" style="stroke:#181818;stroke-width:0.5;" width="4" x="946.5" y="328.6382"/><text fill="#000000" font-family="sans-serif" font-size="14" font-weight="bold" lengthAdjust="spacing" textLength="218" x="725.5" y="350.6333">ISiK MedikationsInformation</text><line style="stroke:#181818;stroke-width:1.0;" x1="711.5" x2="967.5" y1="353.935" y2="353.935"/><line style="stroke:#181818;stroke-width:1.0;" x1="711.5" x2="967.5" y1="355.935" y2="355.935"/><text fill="#000000" font-family="sans-serif" font-size="14" lengthAdjust="spacing" textLength="129" x="725.5" y="370.9302">Suche anhand von</text><ellipse cx="731" cy="383.0288" fill="#000000" rx="2.5" ry="2.5" style="stroke:#000000;stroke-width:0.0;"/><text fill="#000000" font-family="sans-serif" font-size="14" font-weight="bold" lengthAdjust="spacing" textLength="6" x="742.5" y="387.227">:</text><text fill="#000000" font-family="sans-serif" font-size="14" lengthAdjust="spacing" textLength="76" x="752.5" y="387.227">medication</text><ellipse cx="731" cy="399.3257" fill="#000000" rx="2.5" ry="2.5" style="stroke:#000000;stroke-width:0.0;"/><text fill="#000000" font-family="sans-serif" font-size="14" font-weight="bold" lengthAdjust="spacing" textLength="6" x="742.5" y="403.5239">:</text><text fill="#000000" font-family="sans-serif" font-size="14" lengthAdjust="spacing" textLength="48" x="752.5" y="403.5239">patient</text><ellipse cx="731" cy="415.6225" fill="#000000" rx="2.5" ry="2.5" style="stroke:#000000;stroke-width:0.0;"/><text fill="#000000" font-family="sans-serif" font-size="14" font-weight="bold" lengthAdjust="spacing" textLength="6" x="742.5" y="419.8208">:</text><text fill="#000000" font-family="sans-serif" font-size="14" lengthAdjust="spacing" textLength="52" x="752.5" y="419.8208">context</text></g><!--entity ISiK Medikament--><g id="elem_ISiK Medikament"><rect fill="#F1F1F1" height="46.2969" rx="2.5" ry="2.5" style="stroke:#181818;stroke-width:0.5;" width="153" x="763" y="236.1382"/><rect fill="#F1F1F1" height="10" style="stroke:#181818;stroke-width:0.5;" width="15" x="896" y="241.1382"/><rect fill="#F1F1F1" height="2" style="stroke:#181818;stroke-width:0.5;" width="4" x="894" y="243.1382"/><rect fill="#F1F1F1" height="2" style="stroke:#181818;stroke-width:0.5;" width="4" x="894" y="247.1382"/><text fill="#000000" font-family="sans-serif" font-size="14" lengthAdjust="spacing" textLength="113" x="778" y="269.1333">ISiK Medikament</text></g><!--entity ISiK Patient--><g id="elem_ISiK Patient"><rect fill="#F1F1F1" height="46.2969" rx="2.5" ry="2.5" style="stroke:#181818;stroke-width:0.5;" width="116" x="781.5" y="155.1382"/><rect fill="#F1F1F1" height="10" style="stroke:#181818;stroke-width:0.5;" width="15" x="877.5" y="160.1382"/><rect fill="#F1F1F1" height="2" style="stroke:#181818;stroke-width:0.5;" width="4" x="875.5" y="162.1382"/><rect fill="#F1F1F1" height="2" style="stroke:#181818;stroke-width:0.5;" width="4" x="875.5" y="166.1382"/><text fill="#000000" font-family="sans-serif" font-size="14" lengthAdjust="spacing" textLength="76" x="796.5" y="188.1333">ISiK Patient</text></g><!--entity ISiK Kontakt Gesundheitseinrichtung--><g id="elem_ISiK Kontakt Gesundheitseinrichtung"><rect fill="#F1F1F1" height="46.2969" rx="2.5" ry="2.5" style="stroke:#181818;stroke-width:0.5;" width="292" x="1061" y="358.1382"/><rect fill="#F1F1F1" height="10" style="stroke:#181818;stroke-width:0.5;" width="15" x="1333" y="363.1382"/><rect fill="#F1F1F1" height="2" style="stroke:#181818;stroke-width:0.5;" width="4" x="1331" y="365.1382"/><rect fill="#F1F1F1" height="2" style="stroke:#181818;stroke-width:0.5;" width="4" x="1331" y="369.1382"/><text fill="#000000" font-family="sans-serif" font-size="14" lengthAdjust="spacing" textLength="252" x="1076" y="391.1333">ISiK Kontakt Gesundheitseinrichtung</text></g><!--entity ISiK Person im Gesundheitsberuf--><g id="elem_ISiK Person im Gesundheitsberuf"><rect fill="#F1F1F1" height="46.2969" rx="2.5" ry="2.5" style="stroke:#181818;stroke-width:0.5;" width="266" x="1074" y="277.1382"/><rect fill="#F1F1F1" height="10" style="stroke:#181818;stroke-width:0.5;" width="15" x="1320" y="282.1382"/><rect fill="#F1F1F1" height="2" style="stroke:#181818;stroke-width:0.5;" width="4" x="1318" y="284.1382"/><rect fill="#F1F1F1" height="2" style="stroke:#181818;stroke-width:0.5;" width="4" x="1318" y="288.1382"/><text fill="#000000" font-family="sans-serif" font-size="14" lengthAdjust="spacing" textLength="226" x="1089" y="310.1333">ISiK Person im Gesundheitsberuf</text></g><!--entity ISiK MedikationsListe--><g id="elem_ISiK MedikationsListe"><rect fill="#F1F1F1" height="46.2969" rx="2.5" ry="2.5" style="stroke:#181818;stroke-width:0.5;" width="183" x="1115.5" y="196.1382"/><rect fill="#F1F1F1" height="10" style="stroke:#181818;stroke-width:0.5;" width="15" x="1278.5" y="201.1382"/><rect fill="#F1F1F1" height="2" style="stroke:#181818;stroke-width:0.5;" width="4" x="1276.5" y="203.1382"/><rect fill="#F1F1F1" height="2" style="stroke:#181818;stroke-width:0.5;" width="4" x="1276.5" y="207.1382"/><text fill="#000000" font-family="sans-serif" font-size="14" lengthAdjust="spacing" textLength="143" x="1130.5" y="229.1333">ISiK MedikationsListe</text></g><!--entity _MedVerab--><g id="elem__MedVerab"><rect fill="#F1F1F1" height="135.7813" rx="2.5" ry="2.5" style="stroke:#181818;stroke-width:0.5;" width="285" x="697" y="690.1382"/><rect fill="#F1F1F1" height="10" style="stroke:#181818;stroke-width:0.5;" width="15" x="962" y="695.1382"/><rect fill="#F1F1F1" height="2" style="stroke:#181818;stroke-width:0.5;" width="4" x="960" y="697.1382"/><rect fill="#F1F1F1" height="2" style="stroke:#181818;stroke-width:0.5;" width="4" x="960" y="701.1382"/><text fill="#000000" font-family="sans-serif" font-size="14" font-weight="bold" lengthAdjust="spacing" textLength="245" x="712" y="723.1333">ISiK MedikationsVerabreichung</text><line style="stroke:#181818;stroke-width:1.0;" x1="698" x2="981" y1="726.435" y2="726.435"/><line style="stroke:#181818;stroke-width:1.0;" x1="698" x2="981" y1="728.435" y2="728.435"/><text fill="#000000" font-family="sans-serif" font-size="14" lengthAdjust="spacing" textLength="129" x="712" y="743.4302">Suche anhand von</text><ellipse cx="717.5" cy="755.5288" fill="#000000" rx="2.5" ry="2.5" style="stroke:#000000;stroke-width:0.0;"/><text fill="#000000" font-family="sans-serif" font-size="14" font-weight="bold" lengthAdjust="spacing" textLength="6" x="729" y="759.727">:</text><text fill="#000000" font-family="sans-serif" font-size="14" lengthAdjust="spacing" textLength="76" x="739" y="759.727">medication</text><ellipse cx="717.5" cy="771.8257" fill="#000000" rx="2.5" ry="2.5" style="stroke:#000000;stroke-width:0.0;"/><text fill="#000000" font-family="sans-serif" font-size="14" font-weight="bold" lengthAdjust="spacing" textLength="6" x="729" y="776.0239">:</text><text fill="#000000" font-family="sans-serif" font-size="14" lengthAdjust="spacing" textLength="48" x="739" y="776.0239">patient</text><ellipse cx="717.5" cy="788.1225" fill="#000000" rx="2.5" ry="2.5" style="stroke:#000000;stroke-width:0.0;"/><text fill="#000000" font-family="sans-serif" font-size="14" font-weight="bold" lengthAdjust="spacing" textLength="6" x="729" y="792.3208">:</text><text fill="#000000" font-family="sans-serif" font-size="14" lengthAdjust="spacing" textLength="52" x="739" y="792.3208">context</text><ellipse cx="717.5" cy="804.4194" fill="#000000" rx="2.5" ry="2.5" style="stroke:#000000;stroke-width:0.0;"/><text fill="#000000" font-family="sans-serif" font-size="14" font-weight="bold" lengthAdjust="spacing" textLength="6" x="729" y="808.6177">:</text><text fill="#000000" font-family="sans-serif" font-size="14" lengthAdjust="spacing" textLength="68" x="739" y="808.6177">performer</text></g><!--entity ISiK Medikament --><g id="elem_ISiK Medikament "><rect fill="#F1F1F1" height="46.2969" rx="2.5" ry="2.5" style="stroke:#181818;stroke-width:0.5;" width="157" x="761" y="609.1382"/><rect fill="#F1F1F1" height="10" style="stroke:#181818;stroke-width:0.5;" width="15" x="898" y="614.1382"/><rect fill="#F1F1F1" height="2" style="stroke:#181818;stroke-width:0.5;" width="4" x="896" y="616.1382"/><rect fill="#F1F1F1" height="2" style="stroke:#181818;stroke-width:0.5;" width="4" x="896" y="620.1382"/><text fill="#000000" font-family="sans-serif" font-size="14" lengthAdjust="spacing" textLength="113" x="776" y="642.1333">ISiK Medikament</text></g><!--entity ISiK Patient --><g id="elem_ISiK Patient "><rect fill="#F1F1F1" height="46.2969" rx="2.5" ry="2.5" style="stroke:#181818;stroke-width:0.5;" width="120" x="779.5" y="528.1382"/><rect fill="#F1F1F1" height="10" style="stroke:#181818;stroke-width:0.5;" width="15" x="879.5" y="533.1382"/><rect fill="#F1F1F1" height="2" style="stroke:#181818;stroke-width:0.5;" width="4" x="877.5" y="535.1382"/><rect fill="#F1F1F1" height="2" style="stroke:#181818;stroke-width:0.5;" width="4" x="877.5" y="539.1382"/><text fill="#000000" font-family="sans-serif" font-size="14" lengthAdjust="spacing" textLength="76" x="794.5" y="561.1333">ISiK Patient</text></g><!--entity ISiK Kontakt Gesundheitseinrichtung --><g id="elem_ISiK Kontakt Gesundheitseinrichtung "><rect fill="#F1F1F1" height="46.2969" rx="2.5" ry="2.5" style="stroke:#181818;stroke-width:0.5;" width="296" x="1059" y="735.1382"/><rect fill="#F1F1F1" height="10" style="stroke:#181818;stroke-width:0.5;" width="15" x="1335" y="740.1382"/><rect fill="#F1F1F1" height="2" style="stroke:#181818;stroke-width:0.5;" width="4" x="1333" y="742.1382"/><rect fill="#F1F1F1" height="2" style="stroke:#181818;stroke-width:0.5;" width="4" x="1333" y="746.1382"/><text fill="#000000" font-family="sans-serif" font-size="14" lengthAdjust="spacing" textLength="252" x="1074" y="768.1333">ISiK Kontakt Gesundheitseinrichtung</text></g><!--entity ISiK Person im Gesundheitsberuf --><g id="elem_ISiK Person im Gesundheitsberuf "><rect fill="#F1F1F1" height="46.2969" rx="2.5" ry="2.5" style="stroke:#181818;stroke-width:0.5;" width="270" x="1072" y="654.1382"/><rect fill="#F1F1F1" height="10" style="stroke:#181818;stroke-width:0.5;" width="15" x="1322" y="659.1382"/><rect fill="#F1F1F1" height="2" style="stroke:#181818;stroke-width:0.5;" width="4" x="1320" y="661.1382"/><rect fill="#F1F1F1" height="2" style="stroke:#181818;stroke-width:0.5;" width="4" x="1320" y="665.1382"/><text fill="#000000" font-family="sans-serif" font-size="14" lengthAdjust="spacing" textLength="226" x="1087" y="687.1333">ISiK Person im Gesundheitsberuf</text></g><!--entity _MedVerord--><g id="elem__MedVerord"><rect fill="#F1F1F1" height="135.7813" rx="2.5" ry="2.5" style="stroke:#181818;stroke-width:0.5;" width="263" x="1432" y="317.1382"/><rect fill="#F1F1F1" height="10" style="stroke:#181818;stroke-width:0.5;" width="15" x="1675" y="322.1382"/><rect fill="#F1F1F1" height="2" style="stroke:#181818;stroke-width:0.5;" width="4" x="1673" y="324.1382"/><rect fill="#F1F1F1" height="2" style="stroke:#181818;stroke-width:0.5;" width="4" x="1673" y="328.1382"/><text fill="#000000" font-family="sans-serif" font-size="14" font-weight="bold" lengthAdjust="spacing" textLength="223" x="1447" y="350.1333">ISiK MedikationsVerordnung</text><line style="stroke:#181818;stroke-width:1.0;" x1="1433" x2="1694" y1="353.435" y2="353.435"/><line style="stroke:#181818;stroke-width:1.0;" x1="1433" x2="1694" y1="355.435" y2="355.435"/><text fill="#000000" font-family="sans-serif" font-size="14" lengthAdjust="spacing" textLength="129" x="1447" y="370.4302">Suche anhand von</text><ellipse cx="1452.5" cy="382.5288" fill="#000000" rx="2.5" ry="2.5" style="stroke:#000000;stroke-width:0.0;"/><text fill="#000000" font-family="sans-serif" font-size="14" font-weight="bold" lengthAdjust="spacing" textLength="6" x="1464" y="386.727">:</text><text fill="#000000" font-family="sans-serif" font-size="14" lengthAdjust="spacing" textLength="76" x="1474" y="386.727">medication</text><ellipse cx="1452.5" cy="398.8257" fill="#000000" rx="2.5" ry="2.5" style="stroke:#000000;stroke-width:0.0;"/><text fill="#000000" font-family="sans-serif" font-size="14" font-weight="bold" lengthAdjust="spacing" textLength="6" x="1464" y="403.0239">:</text><text fill="#000000" font-family="sans-serif" font-size="14" lengthAdjust="spacing" textLength="48" x="1474" y="403.0239">patient</text><ellipse cx="1452.5" cy="415.1225" fill="#000000" rx="2.5" ry="2.5" style="stroke:#000000;stroke-width:0.0;"/><text fill="#000000" font-family="sans-serif" font-size="14" font-weight="bold" lengthAdjust="spacing" textLength="6" x="1464" y="419.3208">:</text><text fill="#000000" font-family="sans-serif" font-size="14" lengthAdjust="spacing" textLength="72" x="1474" y="419.3208">encounter</text><ellipse cx="1452.5" cy="431.4194" fill="#000000" rx="2.5" ry="2.5" style="stroke:#000000;stroke-width:0.0;"/><text fill="#000000" font-family="sans-serif" font-size="14" font-weight="bold" lengthAdjust="spacing" textLength="6" x="1464" y="435.6177">:</text><text fill="#000000" font-family="sans-serif" font-size="14" lengthAdjust="spacing" textLength="68" x="1474" y="435.6177">requester</text></g><!--entity ISiK Medikament  --><g id="elem_ISiK Medikament  "><rect fill="#F1F1F1" height="46.2969" rx="2.5" ry="2.5" style="stroke:#181818;stroke-width:0.5;" width="161" x="1483" y="236.1382"/><rect fill="#F1F1F1" height="10" style="stroke:#181818;stroke-width:0.5;" width="15" x="1624" y="241.1382"/><rect fill="#F1F1F1" height="2" style="stroke:#181818;stroke-width:0.5;" width="4" x="1622" y="243.1382"/><rect fill="#F1F1F1" height="2" style="stroke:#181818;stroke-width:0.5;" width="4" x="1622" y="247.1382"/><text fill="#000000" font-family="sans-serif" font-size="14" lengthAdjust="spacing" textLength="113" x="1498" y="269.1333">ISiK Medikament</text></g><!--entity ISiK Patient  --><g id="elem_ISiK Patient  "><rect fill="#F1F1F1" height="46.2969" rx="2.5" ry="2.5" style="stroke:#181818;stroke-width:0.5;" width="124" x="1501.5" y="155.1382"/><rect fill="#F1F1F1" height="10" style="stroke:#181818;stroke-width:0.5;" width="15" x="1605.5" y="160.1382"/><rect fill="#F1F1F1" height="2" style="stroke:#181818;stroke-width:0.5;" width="4" x="1603.5" y="162.1382"/><rect fill="#F1F1F1" height="2" style="stroke:#181818;stroke-width:0.5;" width="4" x="1603.5" y="166.1382"/><text fill="#000000" font-family="sans-serif" font-size="14" lengthAdjust="spacing" textLength="76" x="1516.5" y="188.1333">ISiK Patient</text></g><!--entity ISiK Kontakt Gesundheitseinrichtung  --><g id="elem_ISiK Kontakt Gesundheitseinrichtung  "><rect fill="#F1F1F1" height="46.2969" rx="2.5" ry="2.5" style="stroke:#181818;stroke-width:0.5;" width="300" x="1755" y="362.1382"/><rect fill="#F1F1F1" height="10" style="stroke:#181818;stroke-width:0.5;" width="15" x="2035" y="367.1382"/><rect fill="#F1F1F1" height="2" style="stroke:#181818;stroke-width:0.5;" width="4" x="2033" y="369.1382"/><rect fill="#F1F1F1" height="2" style="stroke:#181818;stroke-width:0.5;" width="4" x="2033" y="373.1382"/><text fill="#000000" font-family="sans-serif" font-size="14" lengthAdjust="spacing" textLength="252" x="1770" y="395.1333">ISiK Kontakt Gesundheitseinrichtung</text></g><!--entity ISiK Person im Gesundheitsberuf  --><g id="elem_ISiK Person im Gesundheitsberuf  "><rect fill="#F1F1F1" height="46.2969" rx="2.5" ry="2.5" style="stroke:#181818;stroke-width:0.5;" width="274" x="1768" y="281.1382"/><rect fill="#F1F1F1" height="10" style="stroke:#181818;stroke-width:0.5;" width="15" x="2022" y="286.1382"/><rect fill="#F1F1F1" height="2" style="stroke:#181818;stroke-width:0.5;" width="4" x="2020" y="288.1382"/><rect fill="#F1F1F1" height="2" style="stroke:#181818;stroke-width:0.5;" width="4" x="2020" y="292.1382"/><text fill="#000000" font-family="sans-serif" font-size="14" lengthAdjust="spacing" textLength="226" x="1783" y="314.1333">ISiK Person im Gesundheitsberuf</text></g><!--entity DB--><g id="elem_DB"><ellipse cx="60.5" cy="1254.435" fill="#F1F1F1" rx="8" ry="8" style="stroke:#181818;stroke-width:0.5;"/><path d="M60.5,1262.435 L60.5,1289.435 M47.5,1270.435 L73.5,1270.435 M60.5,1289.435 L47.5,1304.435 M60.5,1289.435 L73.5,1304.435 " fill="none" style="stroke:#181818;stroke-width:0.5;"/><text fill="#000000" font-family="sans-serif" font-size="14" lengthAdjust="spacing" textLength="109" x="6" y="1318.9302">FHIR Repository</text><text fill="#000000" font-family="sans-serif" font-size="14" font-style="italic" lengthAdjust="spacing" textLength="94" x="13.5" y="1242.6333">&#171;Application&#187;</text></g><!--entity Heilberufler--><g id="elem_Heilberufler"><ellipse cx="60.5" cy="179.6382" fill="#F1F1F1" rx="8" ry="8" style="stroke:#181818;stroke-width:0.5;"/><path d="M60.5,187.6382 L60.5,214.6382 M47.5,195.6382 L73.5,195.6382 M60.5,214.6382 L47.5,229.6382 M60.5,214.6382 L73.5,229.6382 " fill="none" style="stroke:#181818;stroke-width:0.5;"/><text fill="#000000" font-family="sans-serif" font-size="14" lengthAdjust="spacing" textLength="78" x="21.5" y="244.1333">Heilberufler</text></g><!--entity Versicherter--><g id="elem_Versicherter"><ellipse cx="60.5" cy="773.6382" fill="#F1F1F1" rx="8" ry="8" style="stroke:#181818;stroke-width:0.5;"/><path d="M60.5,781.6382 L60.5,808.6382 M47.5,789.6382 L73.5,789.6382 M60.5,808.6382 L47.5,823.6382 M60.5,808.6382 L73.5,823.6382 " fill="none" style="stroke:#181818;stroke-width:0.5;"/><text fill="#000000" font-family="sans-serif" font-size="14" lengthAdjust="spacing" textLength="84" x="18.5" y="838.1333">Versicherter</text></g><!--link Heilberufler to gnrlUC--><g id="link_Heilberufler_gnrlUC"><path d="M99.81,209.1382 C107.0238,209.1382 114.9272,209.1382 123.2536,209.1382 C127.4168,209.1382 131.6857,209.1382 136.0271,209.1382 C136.5698,209.1382 137.1136,209.1382 137.6584,209.1382 C137.9309,209.1382 132.2036,209.1382 132.4765,209.1382 " fill="none" id="Heilberufler-to-gnrlUC" style="stroke:#181818;stroke-width:1.0;"/><polygon fill="#181818" points="138.4765,209.1382,129.4765,205.1382,133.4765,209.1382,129.4765,213.1382,138.4765,209.1382" style="stroke:#181818;stroke-width:1.0;"/></g><!--link Versicherter to Information--><g id="link_Versicherter_Information"><path d="M102.54,803.1382 C131.87,803.1382 165.55,803.1382 198.88,803.1382 " fill="none" id="Versicherter-to-Information" style="stroke:#181818;stroke-width:1.0;"/><polygon fill="#181818" points="204.88,803.1382,195.88,799.1382,199.88,803.1382,195.88,807.1382,204.88,803.1382" style="stroke:#181818;stroke-width:1.0;"/></g><!--link DB to fncts--><g id="link_DB_fncts"><path d="M115.28,1276.1382 C202.55,1276.1382 379.355,1276.1382 536.4175,1276.1382 C575.6831,1276.1382 607.7148,1276.1382 642.8052,1276.1382 " fill="none" id="DB-to-fncts" style="stroke:#181818;stroke-width:1.0;"/><polygon fill="#181818" points="648.8052,1276.1382,639.8052,1272.1382,643.8052,1276.1382,639.8052,1280.1382,648.8052,1276.1382" style="stroke:#181818;stroke-width:1.0;"/></g><!--SRC=[nLVRRXCn47tVhnZbfHUH7uYWKYW4AgY46YuIK25dCxjhuhKNsnieg7_3D_34MtwCiVVcDDcKfXAib4exDy_CEUFE2amiM0MQfvc5ETSOMwvaT60MN1PCinmA5YzOYbDx9H1YeSfvr2a5bsYl2WIbRQQYYCLMQHXDdfzTm0KMod1wlne1C_3aCJny2EEY43ncxX0uEMdidoCNCzHb8b2F6k5Rr8R76MhhX94X8UK1RBua1RuvTK47u-eDtj3lb1aSm8y8w6ci3odALump8qgP7bKwzno-eXnGsgDECc52F80NIbgs2EKKGUcv97y8f6VIegJoLZ_j0tZ2IjILyjh_FJp7J2SipfQjSwKclqJft3V0YDNlU86rmXsi6PTpll3QMlpE9O_YAzSB7-IwRKGgjMYw84IAENBPb1yUKmTwUpCJ4h2PHcfn9nlFKZPhCdhAfR4eHAU-mEzOKDzqAshxF3v_FLthhrxzJbgpsZjMCkP216bThqSvnwPyCtp9wVGmvFlIi3p7AYcKGUHncLYYq9gCoblzb7FKxKdNKUJv2uCfCXrdC2cbfxivF8A9qWFNouH4fkvYeWJvm-dKVgB4N4jzjwTNb46Ea7CQ6SpXDADPM11BmLb_b11KmJiS6cpS4wkyK9Bu1sta3wto-FXiob-4KG8qZuzRkqVqj2_JaaO5cCoOdCEIHhYDHl5WHB-SubMJjwahgcdOL11Y5hzrYiij9Go2T0aUE-YrgOUktw2UFdY6ffJp3Barn6fD7BN4fHs1wHAW6uNdeQU_KGQt9Epxwwas20Xv468-79uu3j2GVRhfiuKcVgpkp9DbE8pzJAc2xwBAsbJ_Px9q7gWTWL7VYKTmAv5WNoR1FbI2a24ReDFbkW_gzPsy4t8N-XRCwp3_672KiIe9SxsfqlYbH6Fl2lbVOBu_wFkXlWPxvzTp8-m4obliYH7i0WbwKO8RStcvgmmFGKy1JdUFrBbCDSLf4kn9ey5u8uTQqPV0XFOcIe3M0lXUffYjVj56Ys4UJnkgkcIMd6tls3OhKyu-qrgyA-sQTpsqsoXcDqtlqUH-2eH5tFJHTgYIUxUoYzA7hH-nitnZm3R1xXt6RRsvfCKk_83m_w-hvJWAlo6yFDYa8leY6GwTqEzyqK6r-Zb1zuqnSlSuJvd5DODwznxH3SXc0iqV]--></g></svg>