<?xml version="1.0" encoding="us-ascii" standalone="no"?><svg xmlns="http://www.w3.org/2000/svg" xmlns:xlink="http://www.w3.org/1999/xlink" contentStyleType="text/css" height="189px" preserveAspectRatio="none" style="width:404px;height:189px;background:#FFFFFF;" version="1.1" viewBox="0 0 404 189" width="404px" zoomAndPan="magnify"><defs/><g><!--entity User--><g id="elem_User"><ellipse cx="91.5" cy="14" fill="#F1F1F1" rx="8" ry="8" style="stroke:#181818;stroke-width:0.5;"/><path d="M91.5,22 L91.5,49 M78.5,30 L104.5,30 M91.5,49 L78.5,64 M91.5,49 L104.5,64 " fill="none" style="stroke:#181818;stroke-width:0.5;"/><text fill="#000000" font-family="sans-serif" font-size="14" lengthAdjust="spacing" textLength="32" x="75.5" y="78.4951">User</text></g><g id="elem_Use"><ellipse cx="91.728" cy="162.5456" fill="#F1F1F1" rx="85.728" ry="19.5456" style="stroke:#181818;stroke-width:0.5;"/><text fill="#000000" font-family="sans-serif" font-size="14" lengthAdjust="spacing" textLength="132" x="25.728" y="165.3923">Use the application</text></g><!--entity Admin--><g id="elem_Admin"><ellipse cx="305.5" cy="14" fill="#F1F1F1" rx="8" ry="8" style="stroke:#181818;stroke-width:0.5;"/><path d="M305.5,22 L305.5,49 M292.5,30 L318.5,30 M305.5,49 L292.5,64 M305.5,49 L318.5,64 " fill="none" style="stroke:#181818;stroke-width:0.5;"/><text fill="#000000" font-family="sans-serif" font-size="14" lengthAdjust="spacing" textLength="79" x="266" y="78.4951">Main Admin</text></g><g id="elem_Admin the application"><ellipse cx="305.2771" cy="162.4554" fill="#F1F1F1" rx="92.7771" ry="20.9554" style="stroke:#181818;stroke-width:0.5;"/><text fill="#000000" font-family="sans-serif" font-size="14" lengthAdjust="spacing" textLength="148" x="231.2771" y="165.3021">Admin the application</text></g><!--link User to Use--><g id="link_User_Use"><path d="M91.5,81.52 C91.5,101.87 91.5,120.25 91.5,136.7 " fill="none" id="User-to-Use" style="stroke:#181818;stroke-width:1.0;"/><polygon fill="#181818" points="91.5,142.7,95.5,133.7,91.5,137.7,87.5,133.7,91.5,142.7" style="stroke:#181818;stroke-width:1.0;"/></g><!--link Admin to Admin the application--><g id="link_Admin_Admin the application"><path d="M305.5,81.52 C305.5,101.34 305.5,118.97 305.5,135.39 " fill="none" id="Admin-to-Admin the application" style="stroke:#181818;stroke-width:1.0;"/><polygon fill="#181818" points="305.5,141.39,309.5,132.39,305.5,136.39,301.5,132.39,305.5,141.39" style="stroke:#181818;stroke-width:1.0;"/></g><!--SRC=[imejJYsoKj3LjLFG038rkPHy4pFp51nJSZFpb1GIYo4iBYMWd499Hgf2Oa51JcPoOabcFaGQeWci2688X8ccL1C0]--></g></svg>