<?xml version="1.0" encoding="us-ascii" standalone="no"?><svg xmlns="http://www.w3.org/2000/svg" xmlns:xlink="http://www.w3.org/1999/xlink" contentStyleType="text/css" height="1360px" preserveAspectRatio="none" style="width:2141px;height:1360px;background:#FFFFFF;" version="1.1" viewBox="0 0 2141 1360" width="2141px" zoomAndPan="magnify"><defs/><g><!--cluster adverseUC--><g id="cluster_adverseUC"><rect fill="none" height="343" rx="35" ry="35" style="stroke:#181818;stroke-width:1.0;" width="454" x="162.5" y="872.8978"/><text fill="#000000" font-family="sans-serif" font-size="14" font-weight="bold" lengthAdjust="spacing" textLength="145" x="317" y="892.8929">Adverse Use Case</text></g><!--cluster Verwechslung--><g id="cluster_Verwechslung"><rect fill="none" height="154" rx="35" ry="35" style="stroke:#181818;stroke-width:1.0;" width="405.5" x="187" y="915.8978"/><text fill="#000000" font-family="sans-serif" font-size="14" font-weight="bold" lengthAdjust="spacing" textLength="114" x="332.75" y="935.8929">Verwechslung</text></g><!--cluster gnrlUC--><g id="cluster_gnrlUC"><rect fill="none" height="661" rx="35" ry="35" style="stroke:#181818;stroke-width:1.0;" width="470" x="139" y="179.8978"/><text fill="#000000" font-family="sans-serif" font-size="14" font-weight="bold" lengthAdjust="spacing" textLength="77" x="335.5" y="199.8929">Allgemein</text></g><!--cluster AMTS--><g id="cluster_AMTS"><rect fill="none" height="149" rx="35" ry="35" style="stroke:#181818;stroke-width:1.0;" width="174" x="182.5" y="238.8978"/><text fill="#000000" font-family="sans-serif" font-size="14" font-weight="bold" lengthAdjust="spacing" textLength="44" x="247.5" y="258.8929">AMTS</text></g><!--cluster Medikations-Liste--><g id="cluster_Medikations-Liste"><rect fill="none" height="154" rx="35" ry="35" style="stroke:#181818;stroke-width:1.0;" width="406" x="171" y="411.8978"/><text fill="#000000" font-family="sans-serif" font-size="14" font-weight="bold" lengthAdjust="spacing" textLength="138" x="305" y="431.8929">Medikations-Liste</text></g><!--cluster fncts--><g id="cluster_fncts"><path d="M677.1427,67.5705 C703.7063,26.329 743.6744,14.5198 774.7013,62.7011 C802.552,17.5028 842.6081,13.3405 872.6564,60.367 C899.4544,7.4742 941.5867,6.4526 969.8565,59.0103 C1004.0058,19.0865 1046.1729,7.248 1074.0775,65.6306 C1099.4795,15.7429 1140.7576,24.6139 1165.9047,65.8874 C1198.701,24.0048 1232.8719,27.9667 1262.0893,69.9901 C1297.3416,21.245 1332.6708,17.6396 1375.0404,61.2893 C1403.7695,18.7058 1433.0347,9.0489 1466.2387,56.77 C1501.6796,12.0504 1537.5917,6 1567.0092,62.7518 C1596.4889,17.0883 1637.0771,8.6069 1670.857,58.0567 C1712.7506,16.061 1748.391,13.5117 1773.0059,75.0965 C1792.7171,31.3309 1838.9979,20.2882 1868.2981,64.7383 C1892.9431,18.0788 1934.4647,16.2279 1960.1816,63.6918 C1991.475,8.1501 2036.7977,21.1304 2066,65.8978 C2072.3871,67.2981 2073.9154,72.8439 2068.8274,77.1322 C2112.3624,105.7379 2115.45,134.6849 2072.2717,166.6278 C2120.0979,196.3556 2133.2372,231.2573 2082.9638,271.0316 C2130.2268,305.532 2124.7139,340.4955 2074.9703,366.9082 C2132.288,398.9791 2134.671,438.7875 2083.5995,479.1885 C2126.6912,517.146 2119.2636,550.6147 2072.6153,578.6629 C2118.9352,605.1648 2123.6924,642.9732 2078.2008,674.8087 C2124.5982,702.7665 2122.2877,750.3938 2078.8485,778.9106 C2125.8203,811.5868 2127.0692,847.2792 2075.7674,876.8642 C2117.4324,909.811 2127.2861,939.2238 2076.6091,972.9793 C2116.1269,1005.0537 2123.4829,1047.354 2068.7476,1071.941 C2120.189,1101.2776 2113.111,1135.6701 2070.8917,1167.1167 C2116.3449,1204.754 2108.4883,1246.8337 2059,1273.8978 C2060.6761,1272.2969 2062.3038,1272.2525 2063.3085,1274.6257 C2036.3725,1315.3905 2008.8271,1323.3362 1976.604,1280.0817 C1944.2651,1325.0015 1904.9779,1329.4892 1873.1032,1279.5751 C1848.4601,1323.0949 1804.0888,1334.8435 1773.4378,1286.0623 C1744.388,1330.3777 1699.3041,1335.4261 1666.6709,1290.3419 C1639.5449,1331.4688 1604.134,1340.2589 1573.7816,1293.7623 C1550.9029,1347.599 1504.9176,1346.0143 1476.1476,1299.4937 C1449.8121,1341.9462 1401.549,1353.5836 1375.9133,1298.7726 C1336.9673,1346.1029 1304.6525,1340.2708 1269.3563,1294.5912 C1240.6526,1334.7578 1199.1397,1333.8294 1171.7713,1292.9828 C1140.1866,1333.0903 1087.3681,1332.0688 1065.7062,1281.3901 C1040.9597,1336.6711 1009.0083,1336.0433 971.8234,1293.3032 C937.2016,1345.2362 890.3618,1332.5978 863.2952,1285.0601 C834.1971,1323.4895 808.4072,1330.0437 778.3944,1286.0018 C733.9647,1330.3236 684.9875,1327.0562 657,1266.8978 C664.6765,1269.3322 665.9948,1275.9063 660.7286,1281.6189 C613.4788,1247.8725 608.6341,1213.0272 656.5935,1175.5684 C610.5266,1140.7962 613.9626,1103.8983 658.6644,1070.9223 C614.3242,1037.3704 625.146,1010.9299 665.7248,984.2996 C607.6923,943.2801 608.5297,909.0054 671.0401,873.7834 C621.9815,851.8302 615.8022,813.1968 659.6188,779.9401 C606.6356,745.344 603.3836,714.5323 658.5698,678.8141 C619.9198,645.8733 613.3944,602.6442 669.4331,580.1264 C625.003,550.6405 612.9483,516.9637 661.0907,479.7815 C610.5234,446.7925 619.175,408.2352 667.0391,381.1845 C623.2589,354.4492 612.0286,314.9872 661.5858,283.0644 C614.0898,248.65 618.5649,216.2157 659.0769,179.6658 C598.8342,142.6204 607.3852,91.1795 664,58.8978 C671.4559,55.9038 677.7625,58.3265 677.1427,67.5705 " fill="none" style="stroke:#181818;stroke-width:1.0;"/><text fill="#000000" font-family="sans-serif" font-size="14" font-weight="bold" lengthAdjust="spacing" textLength="180" x="1271.5" y="76.8929">Search Functions() For</text></g><!--cluster CSt_MedInfo--><g id="cluster_CSt_MedInfo"><path d="M697,101.8978 L954,101.8978 A3.75,3.75 0 0 1 956.5,104.3978 L963.5,140.4916 L1352,140.4916 A2.5,2.5 0 0 1 1354.5,142.9916 L1354.5,448.3978 A2.5,2.5 0 0 1 1352,450.8978 L697,450.8978 A2.5,2.5 0 0 1 694.5,448.3978 L694.5,104.3978 A2.5,2.5 0 0 1 697,101.8978 " fill="none" style="stroke:#000000;stroke-width:1.5;"/><line style="stroke:#000000;stroke-width:1.5;" x1="694.5" x2="963.5" y1="140.4916" y2="140.4916"/><text fill="#000000" font-family="sans-serif" font-size="14" font-weight="bold" lengthAdjust="spacing" textLength="251" x="698.5" y="116.8929">Systeme mit dem Charakter der</text><text fill="#000000" font-family="sans-serif" font-size="14" font-weight="bold" lengthAdjust="spacing" textLength="184" x="737" y="133.1898">Medikationsinformation</text></g><!--cluster CSt_MedVerab--><g id="cluster_CSt_MedVerab"><path d="M683.5,474.8978 L940.5,474.8978 A3.75,3.75 0 0 1 943,477.3978 L950,513.4916 L1354,513.4916 A2.5,2.5 0 0 1 1356.5,515.9916 L1356.5,837.3978 A2.5,2.5 0 0 1 1354,839.8978 L683.5,839.8978 A2.5,2.5 0 0 1 681,837.3978 L681,477.3978 A2.5,2.5 0 0 1 683.5,474.8978 " fill="none" style="stroke:#000000;stroke-width:1.5;"/><line style="stroke:#000000;stroke-width:1.5;" x1="681" x2="950" y1="513.4916" y2="513.4916"/><text fill="#000000" font-family="sans-serif" font-size="14" font-weight="bold" lengthAdjust="spacing" textLength="251" x="685" y="489.8929">Systeme mit dem Charakter der</text><text fill="#000000" font-family="sans-serif" font-size="14" font-weight="bold" lengthAdjust="spacing" textLength="209" x="711" y="506.1898">Medikationsverabreichung</text></g><!--cluster CSt_MedVerord--><g id="cluster_CSt_MedVerord"><path d="M1389.5,101.8978 L1646.5,101.8978 A3.75,3.75 0 0 1 1649,104.3978 L1656,140.4916 L2039.5,140.4916 A2.5,2.5 0 0 1 2042,142.9916 L2042,464.3978 A2.5,2.5 0 0 1 2039.5,466.8978 L1389.5,466.8978 A2.5,2.5 0 0 1 1387,464.3978 L1387,104.3978 A2.5,2.5 0 0 1 1389.5,101.8978 " fill="none" style="stroke:#000000;stroke-width:1.5;"/><line style="stroke:#000000;stroke-width:1.5;" x1="1387" x2="1656" y1="140.4916" y2="140.4916"/><text fill="#000000" font-family="sans-serif" font-size="14" font-weight="bold" lengthAdjust="spacing" textLength="251" x="1391" y="116.8929">Systeme mit dem Charakter der</text><text fill="#000000" font-family="sans-serif" font-size="14" font-weight="bold" lengthAdjust="spacing" textLength="187" x="1428" y="133.1898">Medikationsverordnung</text></g><g id="elem_Mehrfachverordnung"><ellipse cx="269.4996" cy="1178.9977" fill="#F1F1F1" rx="90.9996" ry="20.5999" style="stroke:#181818;stroke-width:0.5;"/><text fill="#000000" font-family="sans-serif" font-size="14" lengthAdjust="spacing" textLength="144" x="197.4996" y="1181.8444">Mehrfachverordnung</text></g><g id="elem_Informationsl&#252;cke"><ellipse cx="269.4455" cy="1105.0869" fill="#F1F1F1" rx="81.4455" ry="18.6891" style="stroke:#181818;stroke-width:0.5;"/><text fill="#000000" font-family="sans-serif" font-size="14" lengthAdjust="spacing" textLength="122" x="207.3109" y="1108.3068">Informationsl&#252;cke</text></g><g id="elem_Kontraindikation"><ellipse cx="498.4563" cy="1178.6891" fill="#F1F1F1" rx="76.9563" ry="17.7913" style="stroke:#181818;stroke-width:0.5;"/><text fill="#000000" font-family="sans-serif" font-size="14" lengthAdjust="spacing" textLength="111" x="440.0675" y="1182.4079">Kontraindikation</text></g><g id="elem_Wechselwirkung"><ellipse cx="498.2532" cy="1107.8485" fill="#F1F1F1" rx="77.7532" ry="17.9506" style="stroke:#181818;stroke-width:0.5;"/><text fill="#000000" font-family="sans-serif" font-size="14" lengthAdjust="spacing" textLength="113" x="439.1994" y="1111.4787">Wechselwirkung</text></g><g id="elem_Patient"><ellipse cx="269.3836" cy="1037.0456" fill="#F1F1F1" rx="45.8836" ry="14.6478" style="stroke:#181818;stroke-width:0.5;"/><text fill="#000000" font-family="sans-serif" font-size="14" lengthAdjust="spacing" textLength="48" x="242.3836" y="1040.7932">Patient</text></g><g id="elem_Fall, Kontakt"><ellipse cx="269.4626" cy="972.0903" fill="#F1F1F1" rx="66.4626" ry="15.6925" style="stroke:#181818;stroke-width:0.5;"/><text fill="#000000" font-family="sans-serif" font-size="14" lengthAdjust="spacing" textLength="83" x="224.9626" y="975.8379">Fall, Kontakt</text></g><g id="elem_Verordnung "><ellipse cx="498.5233" cy="1037.8025" fill="#F1F1F1" rx="67.5233" ry="15.9047" style="stroke:#181818;stroke-width:0.5;"/><text fill="#000000" font-family="sans-serif" font-size="14" lengthAdjust="spacing" textLength="82" x="452.5233" y="1041.55">Verordnung</text></g><g id="elem_Intensit&#228;t, Dauer"><ellipse cx="498.6551" cy="968.9288" fill="#F1F1F1" rx="78.1551" ry="18.031" style="stroke:#181818;stroke-width:0.5;"/><text fill="#000000" font-family="sans-serif" font-size="14" lengthAdjust="spacing" textLength="114" x="439.2659" y="972.5144">Intensit&#228;t, Dauer</text></g><g id="elem_Information"><ellipse cx="269.3963" cy="800.6771" fill="#F1F1F1" rx="64.3963" ry="15.2793" style="stroke:#181818;stroke-width:0.5;"/><text fill="#000000" font-family="sans-serif" font-size="14" lengthAdjust="spacing" textLength="77" x="227.8963" y="804.4246">Information</text></g><g id="elem_Verordnung"><ellipse cx="269.613" cy="735.0204" fill="#F1F1F1" rx="66.113" ry="15.6226" style="stroke:#181818;stroke-width:0.5;"/><text fill="#000000" font-family="sans-serif" font-size="14" lengthAdjust="spacing" textLength="82" x="225.613" y="738.768">Verordnung</text></g><g id="elem_Verabreichung"><ellipse cx="269.5678" cy="666.9114" fill="#F1F1F1" rx="73.0678" ry="17.0136" style="stroke:#181818;stroke-width:0.5;"/><text fill="#000000" font-family="sans-serif" font-size="14" lengthAdjust="spacing" textLength="101" x="216.0678" y="670.659">Verabreichung</text></g><g id="elem_Abgabe"><ellipse cx="269.6151" cy="600.0852" fill="#F1F1F1" rx="49.6151" ry="14.6874" style="stroke:#181818;stroke-width:0.5;"/><text fill="#000000" font-family="sans-serif" font-size="14" lengthAdjust="spacing" textLength="53" x="240.1151" y="603.8328">Abgabe</text></g><g id="elem_Einstellung"><ellipse cx="498.5594" cy="735.1097" fill="#F1F1F1" rx="64.0594" ry="15.2119" style="stroke:#181818;stroke-width:0.5;"/><text fill="#000000" font-family="sans-serif" font-size="14" lengthAdjust="spacing" textLength="76" x="457.5594" y="738.8573">Einstellung</text></g><g id="elem_Rezeptierung"><ellipse cx="498.4333" cy="667.8845" fill="#F1F1F1" rx="70.4333" ry="16.4867" style="stroke:#181818;stroke-width:0.5;"/><text fill="#000000" font-family="sans-serif" font-size="14" lengthAdjust="spacing" textLength="94" x="448.4333" y="671.632">Rezeptierung</text></g><g id="elem_Pr&#252;fung"><ellipse cx="269.3615" cy="289.0924" fill="#F1F1F1" rx="50.3615" ry="14.6946" style="stroke:#181818;stroke-width:0.5;"/><text fill="#000000" font-family="sans-serif" font-size="14" lengthAdjust="spacing" textLength="54" x="239.3615" y="292.84">Pr&#252;fung</text></g><g id="elem_Reconcillation"><ellipse cx="269.6781" cy="355.0334" fill="#F1F1F1" rx="71.1781" ry="16.6356" style="stroke:#181818;stroke-width:0.5;"/><text fill="#000000" font-family="sans-serif" font-size="14" lengthAdjust="spacing" textLength="96" x="218.6781" y="358.781">Reconcillation</text></g><g id="elem_Zusammenstellen"><ellipse cx="269.712" cy="530.8402" fill="#F1F1F1" rx="82.712" ry="18.9424" style="stroke:#181818;stroke-width:0.5;"/><text fill="#000000" font-family="sans-serif" font-size="14" lengthAdjust="spacing" textLength="125" x="206.5208" y="533.9193">Zusammenstellen</text></g><g id="elem_Aufteilen"><ellipse cx="269.3402" cy="462.1316" fill="#F1F1F1" rx="54.8402" ry="14.7338" style="stroke:#181818;stroke-width:0.5;"/><text fill="#000000" font-family="sans-serif" font-size="14" lengthAdjust="spacing" textLength="60" x="236.3402" y="465.8792">Aufteilen</text></g><g id="elem_Ver&#228;ndern"><ellipse cx="498.7349" cy="530.8448" fill="#F1F1F1" rx="62.7349" ry="14.947" style="stroke:#181818;stroke-width:0.5;"/><text fill="#000000" font-family="sans-serif" font-size="14" lengthAdjust="spacing" textLength="72" x="459.7349" y="534.5924">Ver&#228;ndern</text></g><!--entity CStAll_MedikationsListe--><g id="elem_CStAll_MedikationsListe"><rect fill="#F1F1F1" height="119.4844" rx="2.5" ry="2.5" style="stroke:#181818;stroke-width:0.5;" width="206" x="736.5" y="1119.3978"/><rect fill="#F1F1F1" height="10" style="stroke:#181818;stroke-width:0.5;" width="15" x="922.5" y="1124.3978"/><rect fill="#F1F1F1" height="2" style="stroke:#181818;stroke-width:0.5;" width="4" x="920.5" y="1126.3978"/><rect fill="#F1F1F1" height="2" style="stroke:#181818;stroke-width:0.5;" width="4" x="920.5" y="1130.3978"/><text fill="#000000" font-family="sans-serif" font-size="14" font-weight="bold" lengthAdjust="spacing" textLength="166" x="751.5" y="1152.3929">ISiK MedikationsListe</text><line style="stroke:#181818;stroke-width:1.0;" x1="737.5" x2="941.5" y1="1155.6947" y2="1155.6947"/><line style="stroke:#181818;stroke-width:1.0;" x1="737.5" x2="941.5" y1="1157.6947" y2="1157.6947"/><text fill="#000000" font-family="sans-serif" font-size="14" lengthAdjust="spacing" textLength="129" x="751.5" y="1172.6898">Suche anhand von</text><ellipse cx="757" cy="1184.7885" fill="#000000" rx="2.5" ry="2.5" style="stroke:#000000;stroke-width:0.0;"/><text fill="#000000" font-family="sans-serif" font-size="14" font-weight="bold" lengthAdjust="spacing" textLength="6" x="768.5" y="1188.9867">:</text><text fill="#000000" font-family="sans-serif" font-size="14" lengthAdjust="spacing" textLength="76" x="783.5" y="1188.9867">medication</text><ellipse cx="757" cy="1201.0853" fill="#000000" rx="2.5" ry="2.5" style="stroke:#000000;stroke-width:0.0;"/><text fill="#000000" font-family="sans-serif" font-size="14" font-weight="bold" lengthAdjust="spacing" textLength="6" x="768.5" y="1205.2836">:</text><text fill="#000000" font-family="sans-serif" font-size="14" lengthAdjust="spacing" textLength="48" x="783.5" y="1205.2836">patient</text><ellipse cx="757" cy="1217.3822" fill="#000000" rx="2.5" ry="2.5" style="stroke:#000000;stroke-width:0.0;"/><text fill="#000000" font-family="sans-serif" font-size="14" font-weight="bold" lengthAdjust="spacing" textLength="6" x="768.5" y="1221.5804">:</text><text fill="#000000" font-family="sans-serif" font-size="14" lengthAdjust="spacing" textLength="52" x="783.5" y="1221.5804">context</text></g><!--entity CStAll_Medikament--><g id="elem_CStAll_Medikament"><rect fill="#F1F1F1" height="86.8906" rx="2.5" ry="2.5" style="stroke:#181818;stroke-width:0.5;" width="169" x="755" y="997.3978"/><rect fill="#F1F1F1" height="10" style="stroke:#181818;stroke-width:0.5;" width="15" x="904" y="1002.3978"/><rect fill="#F1F1F1" height="2" style="stroke:#181818;stroke-width:0.5;" width="4" x="902" y="1004.3978"/><rect fill="#F1F1F1" height="2" style="stroke:#181818;stroke-width:0.5;" width="4" x="902" y="1008.3978"/><text fill="#000000" font-family="sans-serif" font-size="14" font-weight="bold" lengthAdjust="spacing" textLength="129" x="770" y="1030.3929">ISiK Medikament</text><line style="stroke:#181818;stroke-width:1.0;" x1="756" x2="923" y1="1033.6947" y2="1033.6947"/><line style="stroke:#181818;stroke-width:1.0;" x1="756" x2="923" y1="1035.6947" y2="1035.6947"/><text fill="#000000" font-family="sans-serif" font-size="14" lengthAdjust="spacing" textLength="129" x="770" y="1050.6898">Suche anhand von</text><ellipse cx="775.5" cy="1062.7885" fill="#000000" rx="2.5" ry="2.5" style="stroke:#000000;stroke-width:0.0;"/><text fill="#000000" font-family="sans-serif" font-size="14" font-weight="bold" lengthAdjust="spacing" textLength="6" x="787" y="1066.9867">:</text><text fill="#000000" font-family="sans-serif" font-size="14" lengthAdjust="spacing" textLength="70" x="802" y="1066.9867">ingredient</text></g><!--entity CStAll_Patient--><g id="elem_CStAll_Patient"><rect fill="#F1F1F1" height="103.1875" rx="2.5" ry="2.5" style="stroke:#181818;stroke-width:0.5;" width="215" x="732" y="859.3978"/><rect fill="#F1F1F1" height="10" style="stroke:#181818;stroke-width:0.5;" width="15" x="927" y="864.3978"/><rect fill="#F1F1F1" height="2" style="stroke:#181818;stroke-width:0.5;" width="4" x="925" y="866.3978"/><rect fill="#F1F1F1" height="2" style="stroke:#181818;stroke-width:0.5;" width="4" x="925" y="870.3978"/><text fill="#000000" font-family="sans-serif" font-size="14" font-weight="bold" lengthAdjust="spacing" textLength="89" x="747" y="892.3929">ISiK Patient</text><line style="stroke:#181818;stroke-width:1.0;" x1="733" x2="946" y1="895.6947" y2="895.6947"/><line style="stroke:#181818;stroke-width:1.0;" x1="733" x2="946" y1="897.6947" y2="897.6947"/><text fill="#000000" font-family="sans-serif" font-size="14" lengthAdjust="spacing" textLength="157" x="747" y="912.6898">Finde alle zugeh&#246;rigen</text><ellipse cx="752.5" cy="924.7885" fill="#000000" rx="2.5" ry="2.5" style="stroke:#000000;stroke-width:0.0;"/><text fill="#000000" font-family="sans-serif" font-size="14" lengthAdjust="spacing" textLength="72" x="759" y="928.9867">Encounter</text><text fill="#000000" font-family="sans-serif" font-size="14" font-weight="bold" lengthAdjust="spacing" textLength="22" x="840" y="928.9867">via</text><text fill="#000000" font-family="sans-serif" font-size="14" lengthAdjust="spacing" textLength="48" x="871" y="928.9867">patient</text><ellipse cx="752.5" cy="941.0853" fill="#000000" rx="2.5" ry="2.5" style="stroke:#000000;stroke-width:0.0;"/><text fill="#000000" font-family="sans-serif" font-size="14" lengthAdjust="spacing" textLength="72" x="759" y="945.2836">Encounter</text><text fill="#000000" font-family="sans-serif" font-size="14" font-weight="bold" lengthAdjust="spacing" textLength="22" x="840" y="945.2836">via</text><text fill="#000000" font-family="sans-serif" font-size="14" lengthAdjust="spacing" textLength="51" x="871" y="945.2836">subject</text></g><!--entity CStAll_KontaktGesundheitseinrichtung--><g id="elem_CStAll_KontaktGesundheitseinrichtung"><rect fill="#F1F1F1" height="152.0781" rx="2.5" ry="2.5" style="stroke:#181818;stroke-width:0.5;" width="209" x="1088" y="1086.8978"/><rect fill="#F1F1F1" height="10" style="stroke:#181818;stroke-width:0.5;" width="15" x="1277" y="1091.8978"/><rect fill="#F1F1F1" height="2" style="stroke:#181818;stroke-width:0.5;" width="4" x="1275" y="1093.8978"/><rect fill="#F1F1F1" height="2" style="stroke:#181818;stroke-width:0.5;" width="4" x="1275" y="1097.8978"/><text fill="#000000" font-family="sans-serif" font-size="14" font-weight="bold" lengthAdjust="spacing" textLength="89" x="1103" y="1119.8929">ISiK Patient</text><line style="stroke:#181818;stroke-width:1.0;" x1="1089" x2="1296" y1="1123.1947" y2="1123.1947"/><line style="stroke:#181818;stroke-width:1.0;" x1="1089" x2="1296" y1="1125.1947" y2="1125.1947"/><text fill="#000000" font-family="sans-serif" font-size="14" lengthAdjust="spacing" textLength="129" x="1103" y="1140.1898">Suche anhand von</text><ellipse cx="1108.5" cy="1152.2885" fill="#000000" rx="2.5" ry="2.5" style="stroke:#000000;stroke-width:0.0;"/><text fill="#000000" font-family="sans-serif" font-size="14" font-weight="bold" lengthAdjust="spacing" textLength="6" x="1120" y="1156.4867">:</text><text fill="#000000" font-family="sans-serif" font-size="14" lengthAdjust="spacing" textLength="48" x="1135" y="1156.4867">patient</text><ellipse cx="1108.5" cy="1168.5853" fill="#000000" rx="2.5" ry="2.5" style="stroke:#000000;stroke-width:0.0;"/><text fill="#000000" font-family="sans-serif" font-size="14" font-weight="bold" lengthAdjust="spacing" textLength="6" x="1120" y="1172.7836">:</text><text fill="#000000" font-family="sans-serif" font-size="14" lengthAdjust="spacing" textLength="51" x="1135" y="1172.7836">subject</text><ellipse cx="1108.5" cy="1184.8822" fill="#000000" rx="2.5" ry="2.5" style="stroke:#000000;stroke-width:0.0;"/><text fill="#000000" font-family="sans-serif" font-size="14" font-weight="bold" lengthAdjust="spacing" textLength="6" x="1120" y="1189.0804">:</text><text fill="#000000" font-family="sans-serif" font-size="14" lengthAdjust="spacing" textLength="45" x="1135" y="1189.0804">part-of</text><text fill="#000000" font-family="sans-serif" font-size="14" lengthAdjust="spacing" textLength="157" x="1103" y="1205.3773">Finde alle zugeh&#246;rigen</text><ellipse cx="1108.5" cy="1217.476" fill="#000000" rx="2.5" ry="2.5" style="stroke:#000000;stroke-width:0.0;"/><text fill="#000000" font-family="sans-serif" font-size="14" lengthAdjust="spacing" textLength="72" x="1115" y="1221.6742">Encounter</text><text fill="#000000" font-family="sans-serif" font-size="14" font-weight="bold" lengthAdjust="spacing" textLength="22" x="1196" y="1221.6742">via</text><text fill="#000000" font-family="sans-serif" font-size="14" lengthAdjust="spacing" textLength="45" x="1227" y="1221.6742">part-of</text></g><!--entity CStAll_PersonImGesundheitsberuf--><g id="elem_CStAll_PersonImGesundheitsberuf"><rect fill="#F1F1F1" height="54.2969" rx="2.5" ry="2.5" style="stroke:#181818;stroke-width:0.5;" width="301" x="1042" y="997.8978"/><rect fill="#F1F1F1" height="10" style="stroke:#181818;stroke-width:0.5;" width="15" x="1323" y="1002.8978"/><rect fill="#F1F1F1" height="2" style="stroke:#181818;stroke-width:0.5;" width="4" x="1321" y="1004.8978"/><rect fill="#F1F1F1" height="2" style="stroke:#181818;stroke-width:0.5;" width="4" x="1321" y="1008.8978"/><text fill="#000000" font-family="sans-serif" font-size="14" font-weight="bold" lengthAdjust="spacing" textLength="261" x="1057" y="1030.8929">ISiK Person im Gesundheitsberuf</text><line style="stroke:#181818;stroke-width:1.0;" x1="1043" x2="1342" y1="1034.1947" y2="1034.1947"/><line style="stroke:#181818;stroke-width:1.0;" x1="1043" x2="1342" y1="1036.1947" y2="1036.1947"/></g><!--entity _MedInfo--><g id="elem__MedInfo"><rect fill="#F1F1F1" height="119.4844" rx="2.5" ry="2.5" style="stroke:#181818;stroke-width:0.5;" width="258" x="710.5" y="315.3978"/><rect fill="#F1F1F1" height="10" style="stroke:#181818;stroke-width:0.5;" width="15" x="948.5" y="320.3978"/><rect fill="#F1F1F1" height="2" style="stroke:#181818;stroke-width:0.5;" width="4" x="946.5" y="322.3978"/><rect fill="#F1F1F1" height="2" style="stroke:#181818;stroke-width:0.5;" width="4" x="946.5" y="326.3978"/><text fill="#000000" font-family="sans-serif" font-size="14" font-weight="bold" lengthAdjust="spacing" textLength="218" x="725.5" y="348.3929">ISiK MedikationsInformation</text><line style="stroke:#181818;stroke-width:1.0;" x1="711.5" x2="967.5" y1="351.6947" y2="351.6947"/><line style="stroke:#181818;stroke-width:1.0;" x1="711.5" x2="967.5" y1="353.6947" y2="353.6947"/><text fill="#000000" font-family="sans-serif" font-size="14" lengthAdjust="spacing" textLength="129" x="725.5" y="368.6898">Suche anhand von</text><ellipse cx="731" cy="380.7885" fill="#000000" rx="2.5" ry="2.5" style="stroke:#000000;stroke-width:0.0;"/><text fill="#000000" font-family="sans-serif" font-size="14" font-weight="bold" lengthAdjust="spacing" textLength="6" x="742.5" y="384.9867">:</text><text fill="#000000" font-family="sans-serif" font-size="14" lengthAdjust="spacing" textLength="76" x="752.5" y="384.9867">medication</text><ellipse cx="731" cy="397.0853" fill="#000000" rx="2.5" ry="2.5" style="stroke:#000000;stroke-width:0.0;"/><text fill="#000000" font-family="sans-serif" font-size="14" font-weight="bold" lengthAdjust="spacing" textLength="6" x="742.5" y="401.2836">:</text><text fill="#000000" font-family="sans-serif" font-size="14" lengthAdjust="spacing" textLength="48" x="752.5" y="401.2836">patient</text><ellipse cx="731" cy="413.3822" fill="#000000" rx="2.5" ry="2.5" style="stroke:#000000;stroke-width:0.0;"/><text fill="#000000" font-family="sans-serif" font-size="14" font-weight="bold" lengthAdjust="spacing" textLength="6" x="742.5" y="417.5804">:</text><text fill="#000000" font-family="sans-serif" font-size="14" lengthAdjust="spacing" textLength="52" x="752.5" y="417.5804">context</text></g><!--entity ISiK Medikament--><g id="elem_ISiK Medikament"><rect fill="#F1F1F1" height="46.2969" rx="2.5" ry="2.5" style="stroke:#181818;stroke-width:0.5;" width="153" x="763" y="233.8978"/><rect fill="#F1F1F1" height="10" style="stroke:#181818;stroke-width:0.5;" width="15" x="896" y="238.8978"/><rect fill="#F1F1F1" height="2" style="stroke:#181818;stroke-width:0.5;" width="4" x="894" y="240.8978"/><rect fill="#F1F1F1" height="2" style="stroke:#181818;stroke-width:0.5;" width="4" x="894" y="244.8978"/><text fill="#000000" font-family="sans-serif" font-size="14" lengthAdjust="spacing" textLength="113" x="778" y="266.8929">ISiK Medikament</text></g><!--entity ISiK Patient--><g id="elem_ISiK Patient"><rect fill="#F1F1F1" height="46.2969" rx="2.5" ry="2.5" style="stroke:#181818;stroke-width:0.5;" width="116" x="781.5" y="152.8978"/><rect fill="#F1F1F1" height="10" style="stroke:#181818;stroke-width:0.5;" width="15" x="877.5" y="157.8978"/><rect fill="#F1F1F1" height="2" style="stroke:#181818;stroke-width:0.5;" width="4" x="875.5" y="159.8978"/><rect fill="#F1F1F1" height="2" style="stroke:#181818;stroke-width:0.5;" width="4" x="875.5" y="163.8978"/><text fill="#000000" font-family="sans-serif" font-size="14" lengthAdjust="spacing" textLength="76" x="796.5" y="185.8929">ISiK Patient</text></g><!--entity ISiK Kontakt Gesundheitseinrichtung--><g id="elem_ISiK Kontakt Gesundheitseinrichtung"><rect fill="#F1F1F1" height="46.2969" rx="2.5" ry="2.5" style="stroke:#181818;stroke-width:0.5;" width="292" x="1046.5" y="355.8978"/><rect fill="#F1F1F1" height="10" style="stroke:#181818;stroke-width:0.5;" width="15" x="1318.5" y="360.8978"/><rect fill="#F1F1F1" height="2" style="stroke:#181818;stroke-width:0.5;" width="4" x="1316.5" y="362.8978"/><rect fill="#F1F1F1" height="2" style="stroke:#181818;stroke-width:0.5;" width="4" x="1316.5" y="366.8978"/><text fill="#000000" font-family="sans-serif" font-size="14" lengthAdjust="spacing" textLength="252" x="1061.5" y="388.8929">ISiK Kontakt Gesundheitseinrichtung</text></g><!--entity ISiK Person im Gesundheitsberuf--><g id="elem_ISiK Person im Gesundheitsberuf"><rect fill="#F1F1F1" height="46.2969" rx="2.5" ry="2.5" style="stroke:#181818;stroke-width:0.5;" width="266" x="1059.5" y="274.8978"/><rect fill="#F1F1F1" height="10" style="stroke:#181818;stroke-width:0.5;" width="15" x="1305.5" y="279.8978"/><rect fill="#F1F1F1" height="2" style="stroke:#181818;stroke-width:0.5;" width="4" x="1303.5" y="281.8978"/><rect fill="#F1F1F1" height="2" style="stroke:#181818;stroke-width:0.5;" width="4" x="1303.5" y="285.8978"/><text fill="#000000" font-family="sans-serif" font-size="14" lengthAdjust="spacing" textLength="226" x="1074.5" y="307.8929">ISiK Person im Gesundheitsberuf</text></g><!--entity ISiK MedikationsListe--><g id="elem_ISiK MedikationsListe"><rect fill="#F1F1F1" height="46.2969" rx="2.5" ry="2.5" style="stroke:#181818;stroke-width:0.5;" width="183" x="1101" y="193.8978"/><rect fill="#F1F1F1" height="10" style="stroke:#181818;stroke-width:0.5;" width="15" x="1264" y="198.8978"/><rect fill="#F1F1F1" height="2" style="stroke:#181818;stroke-width:0.5;" width="4" x="1262" y="200.8978"/><rect fill="#F1F1F1" height="2" style="stroke:#181818;stroke-width:0.5;" width="4" x="1262" y="204.8978"/><text fill="#000000" font-family="sans-serif" font-size="14" lengthAdjust="spacing" textLength="143" x="1116" y="226.8929">ISiK MedikationsListe</text></g><!--entity _MedVerab--><g id="elem__MedVerab"><rect fill="#F1F1F1" height="135.7813" rx="2.5" ry="2.5" style="stroke:#181818;stroke-width:0.5;" width="285" x="697" y="687.8978"/><rect fill="#F1F1F1" height="10" style="stroke:#181818;stroke-width:0.5;" width="15" x="962" y="692.8978"/><rect fill="#F1F1F1" height="2" style="stroke:#181818;stroke-width:0.5;" width="4" x="960" y="694.8978"/><rect fill="#F1F1F1" height="2" style="stroke:#181818;stroke-width:0.5;" width="4" x="960" y="698.8978"/><text fill="#000000" font-family="sans-serif" font-size="14" font-weight="bold" lengthAdjust="spacing" textLength="245" x="712" y="720.8929">ISiK MedikationsVerabreichung</text><line style="stroke:#181818;stroke-width:1.0;" x1="698" x2="981" y1="724.1947" y2="724.1947"/><line style="stroke:#181818;stroke-width:1.0;" x1="698" x2="981" y1="726.1947" y2="726.1947"/><text fill="#000000" font-family="sans-serif" font-size="14" lengthAdjust="spacing" textLength="129" x="712" y="741.1898">Suche anhand von</text><ellipse cx="717.5" cy="753.2885" fill="#000000" rx="2.5" ry="2.5" style="stroke:#000000;stroke-width:0.0;"/><text fill="#000000" font-family="sans-serif" font-size="14" font-weight="bold" lengthAdjust="spacing" textLength="6" x="729" y="757.4867">:</text><text fill="#000000" font-family="sans-serif" font-size="14" lengthAdjust="spacing" textLength="76" x="739" y="757.4867">medication</text><ellipse cx="717.5" cy="769.5853" fill="#000000" rx="2.5" ry="2.5" style="stroke:#000000;stroke-width:0.0;"/><text fill="#000000" font-family="sans-serif" font-size="14" font-weight="bold" lengthAdjust="spacing" textLength="6" x="729" y="773.7836">:</text><text fill="#000000" font-family="sans-serif" font-size="14" lengthAdjust="spacing" textLength="48" x="739" y="773.7836">patient</text><ellipse cx="717.5" cy="785.8822" fill="#000000" rx="2.5" ry="2.5" style="stroke:#000000;stroke-width:0.0;"/><text fill="#000000" font-family="sans-serif" font-size="14" font-weight="bold" lengthAdjust="spacing" textLength="6" x="729" y="790.0804">:</text><text fill="#000000" font-family="sans-serif" font-size="14" lengthAdjust="spacing" textLength="52" x="739" y="790.0804">context</text><ellipse cx="717.5" cy="802.1791" fill="#000000" rx="2.5" ry="2.5" style="stroke:#000000;stroke-width:0.0;"/><text fill="#000000" font-family="sans-serif" font-size="14" font-weight="bold" lengthAdjust="spacing" textLength="6" x="729" y="806.3773">:</text><text fill="#000000" font-family="sans-serif" font-size="14" lengthAdjust="spacing" textLength="68" x="739" y="806.3773">performer</text></g><!--entity ISiK Medikament --><g id="elem_ISiK Medikament "><rect fill="#F1F1F1" height="46.2969" rx="2.5" ry="2.5" style="stroke:#181818;stroke-width:0.5;" width="157" x="761" y="606.8978"/><rect fill="#F1F1F1" height="10" style="stroke:#181818;stroke-width:0.5;" width="15" x="898" y="611.8978"/><rect fill="#F1F1F1" height="2" style="stroke:#181818;stroke-width:0.5;" width="4" x="896" y="613.8978"/><rect fill="#F1F1F1" height="2" style="stroke:#181818;stroke-width:0.5;" width="4" x="896" y="617.8978"/><text fill="#000000" font-family="sans-serif" font-size="14" lengthAdjust="spacing" textLength="113" x="776" y="639.8929">ISiK Medikament</text></g><!--entity ISiK Patient --><g id="elem_ISiK Patient "><rect fill="#F1F1F1" height="46.2969" rx="2.5" ry="2.5" style="stroke:#181818;stroke-width:0.5;" width="120" x="779.5" y="525.8978"/><rect fill="#F1F1F1" height="10" style="stroke:#181818;stroke-width:0.5;" width="15" x="879.5" y="530.8978"/><rect fill="#F1F1F1" height="2" style="stroke:#181818;stroke-width:0.5;" width="4" x="877.5" y="532.8978"/><rect fill="#F1F1F1" height="2" style="stroke:#181818;stroke-width:0.5;" width="4" x="877.5" y="536.8978"/><text fill="#000000" font-family="sans-serif" font-size="14" lengthAdjust="spacing" textLength="76" x="794.5" y="558.8929">ISiK Patient</text></g><!--entity ISiK Kontakt Gesundheitseinrichtung --><g id="elem_ISiK Kontakt Gesundheitseinrichtung "><rect fill="#F1F1F1" height="46.2969" rx="2.5" ry="2.5" style="stroke:#181818;stroke-width:0.5;" width="296" x="1044.5" y="732.8978"/><rect fill="#F1F1F1" height="10" style="stroke:#181818;stroke-width:0.5;" width="15" x="1320.5" y="737.8978"/><rect fill="#F1F1F1" height="2" style="stroke:#181818;stroke-width:0.5;" width="4" x="1318.5" y="739.8978"/><rect fill="#F1F1F1" height="2" style="stroke:#181818;stroke-width:0.5;" width="4" x="1318.5" y="743.8978"/><text fill="#000000" font-family="sans-serif" font-size="14" lengthAdjust="spacing" textLength="252" x="1059.5" y="765.8929">ISiK Kontakt Gesundheitseinrichtung</text></g><!--entity ISiK Person im Gesundheitsberuf --><g id="elem_ISiK Person im Gesundheitsberuf "><rect fill="#F1F1F1" height="46.2969" rx="2.5" ry="2.5" style="stroke:#181818;stroke-width:0.5;" width="270" x="1057.5" y="651.8978"/><rect fill="#F1F1F1" height="10" style="stroke:#181818;stroke-width:0.5;" width="15" x="1307.5" y="656.8978"/><rect fill="#F1F1F1" height="2" style="stroke:#181818;stroke-width:0.5;" width="4" x="1305.5" y="658.8978"/><rect fill="#F1F1F1" height="2" style="stroke:#181818;stroke-width:0.5;" width="4" x="1305.5" y="662.8978"/><text fill="#000000" font-family="sans-serif" font-size="14" lengthAdjust="spacing" textLength="226" x="1072.5" y="684.8929">ISiK Person im Gesundheitsberuf</text></g><!--entity _MedVerord--><g id="elem__MedVerord"><rect fill="#F1F1F1" height="135.7813" rx="2.5" ry="2.5" style="stroke:#181818;stroke-width:0.5;" width="263" x="1403" y="314.8978"/><rect fill="#F1F1F1" height="10" style="stroke:#181818;stroke-width:0.5;" width="15" x="1646" y="319.8978"/><rect fill="#F1F1F1" height="2" style="stroke:#181818;stroke-width:0.5;" width="4" x="1644" y="321.8978"/><rect fill="#F1F1F1" height="2" style="stroke:#181818;stroke-width:0.5;" width="4" x="1644" y="325.8978"/><text fill="#000000" font-family="sans-serif" font-size="14" font-weight="bold" lengthAdjust="spacing" textLength="223" x="1418" y="347.8929">ISiK MedikationsVerordnung</text><line style="stroke:#181818;stroke-width:1.0;" x1="1404" x2="1665" y1="351.1947" y2="351.1947"/><line style="stroke:#181818;stroke-width:1.0;" x1="1404" x2="1665" y1="353.1947" y2="353.1947"/><text fill="#000000" font-family="sans-serif" font-size="14" lengthAdjust="spacing" textLength="129" x="1418" y="368.1898">Suche anhand von</text><ellipse cx="1423.5" cy="380.2885" fill="#000000" rx="2.5" ry="2.5" style="stroke:#000000;stroke-width:0.0;"/><text fill="#000000" font-family="sans-serif" font-size="14" font-weight="bold" lengthAdjust="spacing" textLength="6" x="1435" y="384.4867">:</text><text fill="#000000" font-family="sans-serif" font-size="14" lengthAdjust="spacing" textLength="76" x="1445" y="384.4867">medication</text><ellipse cx="1423.5" cy="396.5853" fill="#000000" rx="2.5" ry="2.5" style="stroke:#000000;stroke-width:0.0;"/><text fill="#000000" font-family="sans-serif" font-size="14" font-weight="bold" lengthAdjust="spacing" textLength="6" x="1435" y="400.7836">:</text><text fill="#000000" font-family="sans-serif" font-size="14" lengthAdjust="spacing" textLength="48" x="1445" y="400.7836">patient</text><ellipse cx="1423.5" cy="412.8822" fill="#000000" rx="2.5" ry="2.5" style="stroke:#000000;stroke-width:0.0;"/><text fill="#000000" font-family="sans-serif" font-size="14" font-weight="bold" lengthAdjust="spacing" textLength="6" x="1435" y="417.0804">:</text><text fill="#000000" font-family="sans-serif" font-size="14" lengthAdjust="spacing" textLength="72" x="1445" y="417.0804">encounter</text><ellipse cx="1423.5" cy="429.1791" fill="#000000" rx="2.5" ry="2.5" style="stroke:#000000;stroke-width:0.0;"/><text fill="#000000" font-family="sans-serif" font-size="14" font-weight="bold" lengthAdjust="spacing" textLength="6" x="1435" y="433.3773">:</text><text fill="#000000" font-family="sans-serif" font-size="14" lengthAdjust="spacing" textLength="68" x="1445" y="433.3773">requester</text></g><!--entity ISiK Medikament  --><g id="elem_ISiK Medikament  "><rect fill="#F1F1F1" height="46.2969" rx="2.5" ry="2.5" style="stroke:#181818;stroke-width:0.5;" width="161" x="1454" y="233.8978"/><rect fill="#F1F1F1" height="10" style="stroke:#181818;stroke-width:0.5;" width="15" x="1595" y="238.8978"/><rect fill="#F1F1F1" height="2" style="stroke:#181818;stroke-width:0.5;" width="4" x="1593" y="240.8978"/><rect fill="#F1F1F1" height="2" style="stroke:#181818;stroke-width:0.5;" width="4" x="1593" y="244.8978"/><text fill="#000000" font-family="sans-serif" font-size="14" lengthAdjust="spacing" textLength="113" x="1469" y="266.8929">ISiK Medikament</text></g><!--entity ISiK Patient  --><g id="elem_ISiK Patient  "><rect fill="#F1F1F1" height="46.2969" rx="2.5" ry="2.5" style="stroke:#181818;stroke-width:0.5;" width="124" x="1472.5" y="152.8978"/><rect fill="#F1F1F1" height="10" style="stroke:#181818;stroke-width:0.5;" width="15" x="1576.5" y="157.8978"/><rect fill="#F1F1F1" height="2" style="stroke:#181818;stroke-width:0.5;" width="4" x="1574.5" y="159.8978"/><rect fill="#F1F1F1" height="2" style="stroke:#181818;stroke-width:0.5;" width="4" x="1574.5" y="163.8978"/><text fill="#000000" font-family="sans-serif" font-size="14" lengthAdjust="spacing" textLength="76" x="1487.5" y="185.8929">ISiK Patient</text></g><!--entity ISiK Kontakt Gesundheitseinrichtung  --><g id="elem_ISiK Kontakt Gesundheitseinrichtung  "><rect fill="#F1F1F1" height="46.2969" rx="2.5" ry="2.5" style="stroke:#181818;stroke-width:0.5;" width="300" x="1726" y="359.8978"/><rect fill="#F1F1F1" height="10" style="stroke:#181818;stroke-width:0.5;" width="15" x="2006" y="364.8978"/><rect fill="#F1F1F1" height="2" style="stroke:#181818;stroke-width:0.5;" width="4" x="2004" y="366.8978"/><rect fill="#F1F1F1" height="2" style="stroke:#181818;stroke-width:0.5;" width="4" x="2004" y="370.8978"/><text fill="#000000" font-family="sans-serif" font-size="14" lengthAdjust="spacing" textLength="252" x="1741" y="392.8929">ISiK Kontakt Gesundheitseinrichtung</text></g><!--entity ISiK Person im Gesundheitsberuf  --><g id="elem_ISiK Person im Gesundheitsberuf  "><rect fill="#F1F1F1" height="46.2969" rx="2.5" ry="2.5" style="stroke:#181818;stroke-width:0.5;" width="274" x="1739" y="278.8978"/><rect fill="#F1F1F1" height="10" style="stroke:#181818;stroke-width:0.5;" width="15" x="1993" y="283.8978"/><rect fill="#F1F1F1" height="2" style="stroke:#181818;stroke-width:0.5;" width="4" x="1991" y="285.8978"/><rect fill="#F1F1F1" height="2" style="stroke:#181818;stroke-width:0.5;" width="4" x="1991" y="289.8978"/><text fill="#000000" font-family="sans-serif" font-size="14" lengthAdjust="spacing" textLength="226" x="1754" y="311.8929">ISiK Person im Gesundheitsberuf</text></g><!--entity DB--><g id="elem_DB"><ellipse cx="60.5" cy="1252.1947" fill="#F1F1F1" rx="8" ry="8" style="stroke:#181818;stroke-width:0.5;"/><path d="M60.5,1260.1947 L60.5,1287.1947 M47.5,1268.1947 L73.5,1268.1947 M60.5,1287.1947 L47.5,1302.1947 M60.5,1287.1947 L73.5,1302.1947 " fill="none" style="stroke:#181818;stroke-width:0.5;"/><text fill="#000000" font-family="sans-serif" font-size="14" lengthAdjust="spacing" textLength="109" x="6" y="1316.6898">FHIR Repository</text><text fill="#000000" font-family="sans-serif" font-size="14" font-style="italic" lengthAdjust="spacing" textLength="94" x="13.5" y="1240.3929">&#171;Application&#187;</text></g><!--entity Heilberufler--><g id="elem_Heilberufler"><ellipse cx="60.5" cy="177.3978" fill="#F1F1F1" rx="8" ry="8" style="stroke:#181818;stroke-width:0.5;"/><path d="M60.5,185.3978 L60.5,212.3978 M47.5,193.3978 L73.5,193.3978 M60.5,212.3978 L47.5,227.3978 M60.5,212.3978 L73.5,227.3978 " fill="none" style="stroke:#181818;stroke-width:0.5;"/><text fill="#000000" font-family="sans-serif" font-size="14" lengthAdjust="spacing" textLength="78" x="21.5" y="241.8929">Heilberufler</text></g><!--entity Versicherter--><g id="elem_Versicherter"><ellipse cx="60.5" cy="771.3978" fill="#F1F1F1" rx="8" ry="8" style="stroke:#181818;stroke-width:0.5;"/><path d="M60.5,779.3978 L60.5,806.3978 M47.5,787.3978 L73.5,787.3978 M60.5,806.3978 L47.5,821.3978 M60.5,806.3978 L73.5,821.3978 " fill="none" style="stroke:#181818;stroke-width:0.5;"/><text fill="#000000" font-family="sans-serif" font-size="14" lengthAdjust="spacing" textLength="84" x="18.5" y="835.8929">Versicherter</text></g><!--link Heilberufler to gnrlUC--><g id="link_Heilberufler_gnrlUC"><path d="M99.81,206.8978 C107.0238,206.8978 114.9272,206.8978 123.2536,206.8978 C127.4168,206.8978 131.6857,206.8978 136.0271,206.8978 C136.5698,206.8978 137.1136,206.8978 137.6584,206.8978 C137.9309,206.8978 132.2036,206.8978 132.4765,206.8978 " fill="none" id="Heilberufler-to-gnrlUC" style="stroke:#181818;stroke-width:1.0;"/><polygon fill="#181818" points="138.4765,206.8978,129.4765,202.8978,133.4765,206.8978,129.4765,210.8978,138.4765,206.8978" style="stroke:#181818;stroke-width:1.0;"/></g><!--link Versicherter to Information--><g id="link_Versicherter_Information"><path d="M102.54,800.8978 C131.87,800.8978 165.55,800.8978 198.88,800.8978 " fill="none" id="Versicherter-to-Information" style="stroke:#181818;stroke-width:1.0;"/><polygon fill="#181818" points="204.88,800.8978,195.88,796.8978,199.88,800.8978,195.88,804.8978,204.88,800.8978" style="stroke:#181818;stroke-width:1.0;"/></g><!--link DB to fncts--><g id="link_DB_fncts"><path d="M115.28,1273.8978 C202.55,1273.8978 379.355,1273.8978 536.4175,1273.8978 C575.6831,1273.8978 607.7148,1273.8978 642.8052,1273.8978 " fill="none" id="DB-to-fncts" style="stroke:#181818;stroke-width:1.0;"/><polygon fill="#181818" points="648.8052,1273.8978,639.8052,1269.8978,643.8052,1273.8978,639.8052,1277.8978,648.8052,1273.8978" style="stroke:#181818;stroke-width:1.0;"/></g><!--SRC=[nLVRRXCn47tVhnZbfHUH7uYWKYW4AgY46YuIK25dCxjhuhKNsnieg7_JR-29j_mOO-_DQR8f3HAib4exunaVppdZpWfCB5W5cgUPXJdN65kkP7HW5bmMJBCS2XOlM8fJUoKGOg7AUTGv1PTehme4fMsceeZ5LcaOJPwVNS055ifmUhyQ0JFmv34yV0ZZeX0yPcuJE3bfrZz7BcQeoqIW7ZN6jwWDZpFKrXaZGqR20Mo-90U-ENL91-Fg3TxGxvGP7C2F2EXfLXzIbgyOPqQKCZsgVEuvV4KOKDgZpZ9XGZo05qfQjWZjb47fkQHu2AndqgAauwrkx0DumahKbVFQ_pqynqmdBCwMRN3bfhX4wTmNm8ZLhtY1jSDjh1cNSxxmtjhype57yPNhXKzotHOYbLeqLH0YnHovR8uVRbCdUdiR2HdOJ2ELkBEDPocRDOYUScai2j6vB_0x5bGttPhQEe_FNq_NwgjNlv9sMHqTAnbp8G9Or-jPph4vlXc-vBHxcF9zQLYUOmKAPP1vN2QM9BHce-EjRkGSTRlJTHHv_S9WYap76KnAwULk3ezWelJ0rJ8Xawchc2X1yN0wjPy8c2kfh_RqYX3a23cdbi4SJZFgXGMf5DpgZnA2K_2EXuORzyGgBvGa_K6R-KFhF3u-c_8NOPQ0pUFZTjqZUjgNQKcj0ancJCvXIItSPgDyCA9VJlcgpjlq5LKtR3g8COlVEiVbbYCC0hX4ZntqhgcRhdz1tNtm34qfvnboQqZLcZHgIKix4jCbG3SApyD8VwCCxW3iw-kbDWW4UH1oFXoUE0rGatsw7RD59hwjxgsJPTYC_Kgfak-IobfN_sUnT16edO1Htqj7SAUGO5ybmJvIWb0X6wJJvReFw_MTl9Dob_eEpkiq_vXmbB4gYNEzwTBufKHZxqlv7t2-F-dxiRv6UnVNSoFi9Cgls9CZs4KIzB84j_hoSjSnF0Kz1t2-lu3EPQefJmEm1qR3yGQ6sj47O49p4m6WiG2-bobcgvyqqMA8usaZLGTcoTdsYcrRPShPPngBTy6kTTSZk_iUvW-gsSzrYFPsZBP3bVnrpReiVIJwNZhBDpffin2zNRUjDfSqmOLV2luVSpK5H-77WhS78rD4dnx3eJFwuIuwg6OyP-W-9aRkmkOfixYse1woHtJLiPb0yni0]--></g></svg>