<?xml version="1.0" encoding="us-ascii" standalone="no"?><svg xmlns="http://www.w3.org/2000/svg" xmlns:xlink="http://www.w3.org/1999/xlink" contentStyleType="text/css" height="1504px" preserveAspectRatio="none" style="width:1137px;height:1504px;background:#FFFFFF;" version="1.1" viewBox="0 0 1137 1504" width="1137px" zoomAndPan="magnify"><defs/><g><!--cluster gnrl--><g id="cluster_gnrl"><rect fill="none" height="607" rx="35" ry="35" style="stroke:#181818;stroke-width:1.0;" width="475" x="656" y="7"/><text fill="#000000" font-family="sans-serif" font-size="14" font-weight="bold" lengthAdjust="spacing" textLength="77" x="855" y="26.9951">Allgemein</text></g><!--cluster AMTS--><g id="cluster_AMTS"><rect fill="none" height="149" rx="35" ry="35" style="stroke:#181818;stroke-width:1.0;" width="174" x="699.5" y="58"/><text fill="#000000" font-family="sans-serif" font-size="14" font-weight="bold" lengthAdjust="spacing" textLength="44" x="764.5" y="77.9951">AMTS</text></g><!--cluster Liste--><g id="cluster_Liste"><rect fill="none" height="154" rx="35" ry="35" style="stroke:#181818;stroke-width:1.0;" width="411" x="688" y="231"/><text fill="#000000" font-family="sans-serif" font-size="14" font-weight="bold" lengthAdjust="spacing" textLength="38" x="874.5" y="250.9951">Liste</text></g><!--cluster fncts--><g id="cluster_fncts"><path d="M190.5408,679.983 C211.4071,657.3639 231.6021,658.97 247.8724,685.3596 C265.7747,657.0776 282.819,651.9311 304.9433,681.1706 C320.8457,656.647 350.7915,656.336 364.7963,683.3733 C377.3487,655.306 400.1776,656.1026 417.2567,678.6847 C434.5736,646.3397 457.6426,651.8107 477.247,676.2689 C500.3261,645.5918 521.9997,649.7852 538,683 C544.3447,683.4375 545.8972,687.7112 543.1108,692.8746 C567.0163,708.0407 566.6793,730.7418 541.5061,744.3787 C565.1914,760.1406 561.4019,776.4226 541.7082,792.3671 C565.96,806.9967 570.0424,829.9193 546.7815,848.8188 C576.9028,864.8494 572.0414,889.4513 547.6533,906.3084 C579.2785,923.3228 579.6216,942.4399 553.6494,965.3078 C570.8032,980.8875 571.8016,997.5318 550.3726,1010.3016 C578.9453,1022.0758 585.9354,1047.0659 558.8518,1067.1426 C582.4469,1091.7325 583.3694,1109.9847 549.4002,1125.204 C575.1484,1141.4608 571.2736,1159.7452 549.7295,1176.3068 C581.0449,1198.0464 578.5618,1219.8152 546.1214,1237.8148 C576.0097,1253.2952 574.762,1269.7018 551.0635,1290.2344 C570.9099,1309.7698 569.3803,1330.031 544.0663,1343.6507 C565.8368,1356.1622 568.0797,1379.2385 547.2238,1394.402 C569.4277,1422.151 561.6733,1439.8909 531,1453 C534.5341,1454.0232 535.1276,1456.4657 532.4793,1459.0104 C517.8997,1480.6486 493.0428,1481.9354 482.8872,1454.5364 C469.8018,1486.4769 442.5885,1487.5898 423.2939,1460.8413 C403.7005,1486.2173 378.9947,1486.892 365.0183,1455.1141 C352.2796,1491.2945 321.2063,1495.2903 300.8888,1462.1225 C281.1851,1486.9195 265.3753,1487.4368 248.6387,1459.1993 C222.9533,1492.1214 190.3313,1484.5451 178,1446 C182.6467,1445.7148 184.101,1447.6817 183.2625,1452.1162 C153.0016,1435.9673 147.8222,1414.9402 178.3459,1393.6773 C148.0807,1376.708 152.9546,1358.1735 175.8704,1338.805 C154.3976,1324.5067 147.6382,1304.6608 172.851,1287.6091 C152.2706,1267.9939 150.9087,1249.7634 177.5536,1234.3153 C147.4003,1222.3622 145.0841,1201.1951 169.8749,1181.286 C146.8638,1161.4996 143.4218,1138.8244 173.1933,1121.992 C147.0942,1105.3416 146.0755,1080.5207 174.9598,1065.5925 C147.6115,1053.8164 143.99,1036.676 168.2052,1017.6371 C140.9163,996.1275 153.3795,972.5955 178.9787,961.178 C151.2712,947.9684 144.5219,921.5168 171.4095,901.3948 C146.2651,885.1735 151.6023,862.5718 177.4593,852.685 C149.556,836.4225 148.1139,812.6732 175.4596,794.5115 C149.3532,775.5855 149.6807,749.9618 182.2231,738.0629 C158.0243,720.0815 150.1913,691.3413 185,676 C188.3905,674.503 191.1149,675.9649 190.5408,679.983 " fill="none" style="stroke:#181818;stroke-width:1.0;"/><text fill="#000000" font-family="sans-serif" font-size="14" font-weight="bold" lengthAdjust="spacing" textLength="180" x="268" y="693.9951">Search Functions() For</text></g><!--cluster CapStmtMedInfo--><g id="cluster_CapStmtMedInfo"><path d="M204.5,719 L394.5,719 A3.75,3.75 0 0 1 397,721.5 L404,741.2969 L511.5,741.2969 A2.5,2.5 0 0 1 514,743.7969 L514,887.5 A2.5,2.5 0 0 1 511.5,890 L204.5,890 A2.5,2.5 0 0 1 202,887.5 L202,721.5 A2.5,2.5 0 0 1 204.5,719 " fill="none" style="stroke:#000000;stroke-width:1.5;"/><line style="stroke:#000000;stroke-width:1.5;" x1="202" x2="404" y1="741.2969" y2="741.2969"/><text fill="#000000" font-family="sans-serif" font-size="14" font-weight="bold" lengthAdjust="spacing" textLength="189" x="206" y="733.9951">Medikations Information</text></g><!--cluster CapStmtMedVerAb--><g id="cluster_CapStmtMedVerAb"><path d="M204.5,914 L421.5,914 A3.75,3.75 0 0 1 424,916.5 L431,936.2969 L511.5,936.2969 A2.5,2.5 0 0 1 514,938.7969 L514,1082.5 A2.5,2.5 0 0 1 511.5,1085 L204.5,1085 A2.5,2.5 0 0 1 202,1082.5 L202,916.5 A2.5,2.5 0 0 1 204.5,914 " fill="none" style="stroke:#000000;stroke-width:1.5;"/><line style="stroke:#000000;stroke-width:1.5;" x1="202" x2="431" y1="936.2969" y2="936.2969"/><text fill="#000000" font-family="sans-serif" font-size="14" font-weight="bold" lengthAdjust="spacing" textLength="216" x="206" y="928.9951">Medikations Verabreichung</text></g><!--cluster CapStmtMedVerOrd--><g id="cluster_CapStmtMedVerOrd"><path d="M204.5,1109 L399.5,1109 A3.75,3.75 0 0 1 402,1111.5 L409,1131.2969 L511.5,1131.2969 A2.5,2.5 0 0 1 514,1133.7969 L514,1277.5 A2.5,2.5 0 0 1 511.5,1280 L204.5,1280 A2.5,2.5 0 0 1 202,1277.5 L202,1111.5 A2.5,2.5 0 0 1 204.5,1109 " fill="none" style="stroke:#000000;stroke-width:1.5;"/><line style="stroke:#000000;stroke-width:1.5;" x1="202" x2="409" y1="1131.2969" y2="1131.2969"/><text fill="#000000" font-family="sans-serif" font-size="14" font-weight="bold" lengthAdjust="spacing" textLength="194" x="206" y="1123.9951">Medikations Verordnung</text></g><!--cluster adverseUC--><g id="cluster_adverseUC"><rect fill="none" height="371" rx="35" ry="35" style="stroke:#181818;stroke-width:1.0;" width="230" x="671.5" y="1090"/><text fill="#000000" font-family="sans-serif" font-size="14" font-weight="bold" lengthAdjust="spacing" textLength="145" x="714" y="1109.9951">Adverse Use Case</text></g><!--cluster Verwechslung--><g id="cluster_Verwechslung"><rect fill="none" height="145" rx="35" ry="35" style="stroke:#181818;stroke-width:1.0;" width="130" x="721.5" y="1141"/><text fill="#000000" font-family="sans-serif" font-size="14" font-weight="bold" lengthAdjust="spacing" textLength="114" x="729.5" y="1160.9951">Verwechslung</text></g><g id="elem_Information"><ellipse cx="786.3963" cy="554.7793" fill="#F1F1F1" rx="64.3963" ry="15.2793" style="stroke:#181818;stroke-width:0.5;"/><text fill="#000000" font-family="sans-serif" font-size="14" lengthAdjust="spacing" textLength="77" x="744.8963" y="558.5268">Information</text></g><g id="elem_Verordnung"><ellipse cx="786.613" cy="489.1226" fill="#F1F1F1" rx="66.113" ry="15.6226" style="stroke:#181818;stroke-width:0.5;"/><text fill="#000000" font-family="sans-serif" font-size="14" lengthAdjust="spacing" textLength="82" x="742.613" y="492.8702">Verordnung</text></g><g id="elem_Verabreichung"><ellipse cx="786.5678" cy="421.0136" fill="#F1F1F1" rx="73.0678" ry="17.0136" style="stroke:#181818;stroke-width:0.5;"/><text fill="#000000" font-family="sans-serif" font-size="14" lengthAdjust="spacing" textLength="101" x="733.0678" y="424.7611">Verabreichung</text></g><g id="elem_Abgabe"><ellipse cx="1020.6151" cy="489.1874" fill="#F1F1F1" rx="49.6151" ry="14.6874" style="stroke:#181818;stroke-width:0.5;"/><text fill="#000000" font-family="sans-serif" font-size="14" lengthAdjust="spacing" textLength="53" x="991.1151" y="492.9349">Abgabe</text></g><g id="elem_Einstellung"><ellipse cx="1020.5594" cy="424.2119" fill="#F1F1F1" rx="64.0594" ry="15.2119" style="stroke:#181818;stroke-width:0.5;"/><text fill="#000000" font-family="sans-serif" font-size="14" lengthAdjust="spacing" textLength="76" x="979.5594" y="427.9594">Einstellung</text></g><g id="elem_Pr&#252;fung"><ellipse cx="786.3615" cy="108.1946" fill="#F1F1F1" rx="50.3615" ry="14.6946" style="stroke:#181818;stroke-width:0.5;"/><text fill="#000000" font-family="sans-serif" font-size="14" lengthAdjust="spacing" textLength="54" x="756.3615" y="111.9422">Pr&#252;fung</text></g><g id="elem_Reconcillation"><ellipse cx="786.6781" cy="174.1356" fill="#F1F1F1" rx="71.1781" ry="16.6356" style="stroke:#181818;stroke-width:0.5;"/><text fill="#000000" font-family="sans-serif" font-size="14" lengthAdjust="spacing" textLength="96" x="735.6781" y="177.8832">Reconcillation</text></g><g id="elem_Zusammenstellen"><ellipse cx="786.712" cy="349.9424" fill="#F1F1F1" rx="82.712" ry="18.9424" style="stroke:#181818;stroke-width:0.5;"/><text fill="#000000" font-family="sans-serif" font-size="14" lengthAdjust="spacing" textLength="125" x="723.5208" y="353.0215">Zusammenstellen</text></g><g id="elem_Aufteilen"><ellipse cx="786.3402" cy="281.2338" fill="#F1F1F1" rx="54.8402" ry="14.7338" style="stroke:#181818;stroke-width:0.5;"/><text fill="#000000" font-family="sans-serif" font-size="14" lengthAdjust="spacing" textLength="60" x="753.3402" y="284.9814">Aufteilen</text></g><g id="elem_Ver&#228;ndern"><ellipse cx="1020.7349" cy="349.947" fill="#F1F1F1" rx="62.7349" ry="14.947" style="stroke:#181818;stroke-width:0.5;"/><text fill="#000000" font-family="sans-serif" font-size="14" lengthAdjust="spacing" textLength="72" x="981.7349" y="353.6945">Ver&#228;ndern</text></g><!--entity Some3--><g id="elem_Some3"><rect fill="#F1F1F1" height="119.4844" rx="2.5" ry="2.5" style="stroke:#181818;stroke-width:0.5;" width="280" x="218" y="1298.5"/><rect fill="#F1F1F1" height="10" style="stroke:#181818;stroke-width:0.5;" width="15" x="478" y="1303.5"/><rect fill="#F1F1F1" height="2" style="stroke:#181818;stroke-width:0.5;" width="4" x="476" y="1305.5"/><rect fill="#F1F1F1" height="2" style="stroke:#181818;stroke-width:0.5;" width="4" x="476" y="1309.5"/><text fill="#000000" font-family="sans-serif" font-size="14" font-weight="bold" lengthAdjust="spacing" textLength="28" x="233" y="1331.4951">List</text><line style="stroke:#181818;stroke-width:1.0;" x1="219" x2="497" y1="1334.7969" y2="1334.7969"/><line style="stroke:#181818;stroke-width:1.0;" x1="219" x2="497" y1="1336.7969" y2="1336.7969"/><text fill="#000000" font-family="sans-serif" font-size="14" lengthAdjust="spacing" textLength="134" x="233" y="1351.792">Suche anhand von:</text><ellipse cx="238.5" cy="1363.8906" fill="#000000" rx="2.5" ry="2.5" style="stroke:#000000;stroke-width:0.0;"/><text fill="#000000" font-family="sans-serif" font-size="14" lengthAdjust="spacing" textLength="228" x="245" y="1368.0889">MedicationStatement:medication</text><ellipse cx="238.5" cy="1380.1875" fill="#000000" rx="2.5" ry="2.5" style="stroke:#000000;stroke-width:0.0;"/><text fill="#000000" font-family="sans-serif" font-size="14" lengthAdjust="spacing" textLength="200" x="245" y="1384.3857">MedicationStatement:patient</text><ellipse cx="238.5" cy="1396.4844" fill="#000000" rx="2.5" ry="2.5" style="stroke:#000000;stroke-width:0.0;"/><text fill="#000000" font-family="sans-serif" font-size="14" lengthAdjust="spacing" textLength="204" x="245" y="1400.6826">MedicationStatement:context</text></g><!--entity MedState--><g id="elem_MedState"><rect fill="#F1F1F1" height="119.4844" rx="2.5" ry="2.5" style="stroke:#181818;stroke-width:0.5;" width="280" x="218" y="754.5"/><rect fill="#F1F1F1" height="10" style="stroke:#181818;stroke-width:0.5;" width="15" x="478" y="759.5"/><rect fill="#F1F1F1" height="2" style="stroke:#181818;stroke-width:0.5;" width="4" x="476" y="761.5"/><rect fill="#F1F1F1" height="2" style="stroke:#181818;stroke-width:0.5;" width="4" x="476" y="765.5"/><text fill="#000000" font-family="sans-serif" font-size="14" font-weight="bold" lengthAdjust="spacing" textLength="166" x="233" y="787.4951">MedicationStatement</text><line style="stroke:#181818;stroke-width:1.0;" x1="219" x2="497" y1="790.7969" y2="790.7969"/><line style="stroke:#181818;stroke-width:1.0;" x1="219" x2="497" y1="792.7969" y2="792.7969"/><text fill="#000000" font-family="sans-serif" font-size="14" lengthAdjust="spacing" textLength="134" x="233" y="807.792">Suche anhand von:</text><ellipse cx="238.5" cy="819.8906" fill="#000000" rx="2.5" ry="2.5" style="stroke:#000000;stroke-width:0.0;"/><text fill="#000000" font-family="sans-serif" font-size="14" lengthAdjust="spacing" textLength="228" x="245" y="824.0889">MedicationStatement:medication</text><ellipse cx="238.5" cy="836.1875" fill="#000000" rx="2.5" ry="2.5" style="stroke:#000000;stroke-width:0.0;"/><text fill="#000000" font-family="sans-serif" font-size="14" lengthAdjust="spacing" textLength="200" x="245" y="840.3857">MedicationStatement:patient</text><ellipse cx="238.5" cy="852.4844" fill="#000000" rx="2.5" ry="2.5" style="stroke:#000000;stroke-width:0.0;"/><text fill="#000000" font-family="sans-serif" font-size="14" lengthAdjust="spacing" textLength="204" x="245" y="856.6826">MedicationStatement:context</text></g><!--entity Some1--><g id="elem_Some1"><rect fill="#F1F1F1" height="119.4844" rx="2.5" ry="2.5" style="stroke:#181818;stroke-width:0.5;" width="280" x="218" y="949.5"/><rect fill="#F1F1F1" height="10" style="stroke:#181818;stroke-width:0.5;" width="15" x="478" y="954.5"/><rect fill="#F1F1F1" height="2" style="stroke:#181818;stroke-width:0.5;" width="4" x="476" y="956.5"/><rect fill="#F1F1F1" height="2" style="stroke:#181818;stroke-width:0.5;" width="4" x="476" y="960.5"/><text fill="#000000" font-family="sans-serif" font-size="14" font-weight="bold" lengthAdjust="spacing" textLength="199" x="233" y="982.4951">MedicationAdministration</text><line style="stroke:#181818;stroke-width:1.0;" x1="219" x2="497" y1="985.7969" y2="985.7969"/><line style="stroke:#181818;stroke-width:1.0;" x1="219" x2="497" y1="987.7969" y2="987.7969"/><text fill="#000000" font-family="sans-serif" font-size="14" lengthAdjust="spacing" textLength="134" x="233" y="1002.792">Suche anhand von:</text><ellipse cx="238.5" cy="1014.8906" fill="#000000" rx="2.5" ry="2.5" style="stroke:#000000;stroke-width:0.0;"/><text fill="#000000" font-family="sans-serif" font-size="14" lengthAdjust="spacing" textLength="228" x="245" y="1019.0889">MedicationStatement:medication</text><ellipse cx="238.5" cy="1031.1875" fill="#000000" rx="2.5" ry="2.5" style="stroke:#000000;stroke-width:0.0;"/><text fill="#000000" font-family="sans-serif" font-size="14" lengthAdjust="spacing" textLength="200" x="245" y="1035.3857">MedicationStatement:patient</text><ellipse cx="238.5" cy="1047.4844" fill="#000000" rx="2.5" ry="2.5" style="stroke:#000000;stroke-width:0.0;"/><text fill="#000000" font-family="sans-serif" font-size="14" lengthAdjust="spacing" textLength="204" x="245" y="1051.6826">MedicationStatement:context</text></g><!--entity Some2--><g id="elem_Some2"><rect fill="#F1F1F1" height="119.4844" rx="2.5" ry="2.5" style="stroke:#181818;stroke-width:0.5;" width="280" x="218" y="1144.5"/><rect fill="#F1F1F1" height="10" style="stroke:#181818;stroke-width:0.5;" width="15" x="478" y="1149.5"/><rect fill="#F1F1F1" height="2" style="stroke:#181818;stroke-width:0.5;" width="4" x="476" y="1151.5"/><rect fill="#F1F1F1" height="2" style="stroke:#181818;stroke-width:0.5;" width="4" x="476" y="1155.5"/><text fill="#000000" font-family="sans-serif" font-size="14" font-weight="bold" lengthAdjust="spacing" textLength="9" x="233" y="1177.4951">L</text><line style="stroke:#181818;stroke-width:1.0;" x1="219" x2="497" y1="1180.7969" y2="1180.7969"/><line style="stroke:#181818;stroke-width:1.0;" x1="219" x2="497" y1="1182.7969" y2="1182.7969"/><text fill="#000000" font-family="sans-serif" font-size="14" lengthAdjust="spacing" textLength="134" x="233" y="1197.792">Suche anhand von:</text><ellipse cx="238.5" cy="1209.8906" fill="#000000" rx="2.5" ry="2.5" style="stroke:#000000;stroke-width:0.0;"/><text fill="#000000" font-family="sans-serif" font-size="14" lengthAdjust="spacing" textLength="228" x="245" y="1214.0889">MedicationStatement:medication</text><ellipse cx="238.5" cy="1226.1875" fill="#000000" rx="2.5" ry="2.5" style="stroke:#000000;stroke-width:0.0;"/><text fill="#000000" font-family="sans-serif" font-size="14" lengthAdjust="spacing" textLength="200" x="245" y="1230.3857">MedicationStatement:patient</text><ellipse cx="238.5" cy="1242.4844" fill="#000000" rx="2.5" ry="2.5" style="stroke:#000000;stroke-width:0.0;"/><text fill="#000000" font-family="sans-serif" font-size="14" lengthAdjust="spacing" textLength="204" x="245" y="1246.6826">MedicationStatement:context</text></g><g id="elem_Mehrfachverordnung"><ellipse cx="786.4996" cy="1325.0999" fill="#F1F1F1" rx="90.9996" ry="20.5999" style="stroke:#181818;stroke-width:0.5;"/><text fill="#000000" font-family="sans-serif" font-size="14" lengthAdjust="spacing" textLength="144" x="714.4996" y="1327.9466">Mehrfachverordnung</text></g><g id="elem_Informationsl&#252;cke"><ellipse cx="786.4455" cy="1399.1891" fill="#F1F1F1" rx="81.4455" ry="18.6891" style="stroke:#181818;stroke-width:0.5;"/><text fill="#000000" font-family="sans-serif" font-size="14" lengthAdjust="spacing" textLength="122" x="724.3109" y="1402.409">Informationsl&#252;cke</text></g><g id="elem_Patient"><ellipse cx="786.3836" cy="1191.1478" fill="#F1F1F1" rx="45.8836" ry="14.6478" style="stroke:#181818;stroke-width:0.5;"/><text fill="#000000" font-family="sans-serif" font-size="14" lengthAdjust="spacing" textLength="48" x="759.3836" y="1194.8954">Patient</text></g><g id="elem_Fall"><ellipse cx="786.5416" cy="1255.0236" fill="#F1F1F1" rx="27.0416" ry="14.5236" style="stroke:#181818;stroke-width:0.5;"/><text fill="#000000" font-family="sans-serif" font-size="14" lengthAdjust="spacing" textLength="22" x="775.5416" y="1257.8703">Fall</text></g><!--entity Heilberufler--><g id="elem_Heilberufler"><ellipse cx="358" cy="576.5" fill="#F1F1F1" rx="8" ry="8" style="stroke:#181818;stroke-width:0.5;"/><path d="M358,584.5 L358,611.5 M345,592.5 L371,592.5 M358,611.5 L345,626.5 M358,611.5 L371,626.5 " fill="none" style="stroke:#181818;stroke-width:0.5;"/><text fill="#000000" font-family="sans-serif" font-size="14" lengthAdjust="spacing" textLength="78" x="319" y="640.9951">Heilberufler</text></g><!--entity Versicherter--><g id="elem_Versicherter"><ellipse cx="358" cy="465.5" fill="#F1F1F1" rx="8" ry="8" style="stroke:#181818;stroke-width:0.5;"/><path d="M358,473.5 L358,500.5 M345,481.5 L371,481.5 M358,500.5 L345,515.5 M358,500.5 L371,515.5 " fill="none" style="stroke:#181818;stroke-width:0.5;"/><text fill="#000000" font-family="sans-serif" font-size="14" lengthAdjust="spacing" textLength="84" x="316" y="529.9951">Versicherter</text></g><!--entity DB--><g id="elem_DB"><ellipse cx="60.5" cy="1431.2969" fill="#F1F1F1" rx="8" ry="8" style="stroke:#181818;stroke-width:0.5;"/><path d="M60.5,1439.2969 L60.5,1466.2969 M47.5,1447.2969 L73.5,1447.2969 M60.5,1466.2969 L47.5,1481.2969 M60.5,1466.2969 L73.5,1481.2969 " fill="none" style="stroke:#181818;stroke-width:0.5;"/><text fill="#000000" font-family="sans-serif" font-size="14" lengthAdjust="spacing" textLength="109" x="6" y="1495.792">FHIR Repository</text><text fill="#000000" font-family="sans-serif" font-size="14" font-style="italic" lengthAdjust="spacing" textLength="94" x="13.5" y="1419.4951">&#171;Application&#187;</text></g><!--link Heilberufler to gnrl--><g id="link_Heilberufler_gnrl"><path d="M397.22,606 C449.155,606 545.12,606 628.6475,606 C633.868,606 639.0399,606 644.1494,606 C646.7041,606 649.2433,606 651.7651,606 C653.0261,606 648.2827,606 649.5347,606 " fill="none" id="Heilberufler-to-gnrl" style="stroke:#181818;stroke-width:1.0;"/><polygon fill="#181818" points="655.5347,606,646.5347,602,650.5347,606,646.5347,610,655.5347,606" style="stroke:#181818;stroke-width:1.0;"/></g><!--link Versicherter to Information--><g id="link_Versicherter_Information"><path d="M400.28,500.81 C477.53,511.67 637.9685,534.244 724.5985,546.434 " fill="none" id="Versicherter-to-Information" style="stroke:#181818;stroke-width:1.0;"/><polygon fill="#181818" points="730.54,547.27,722.1852,542.055,725.5888,546.5733,721.0704,549.9769,730.54,547.27" style="stroke:#181818;stroke-width:1.0;"/></g><!--link DB to fncts--><g id="link_DB_fncts"><path d="M115.01,1453 C125.4888,1453 137.0527,1453 149.276,1453 C155.3877,1453 161.6642,1453 168.0524,1453 C168.4517,1453 162.8514,1453 163.2515,1453 " fill="none" id="DB-to-fncts" style="stroke:#181818;stroke-width:1.0;"/><polygon fill="#181818" points="169.2515,1453,160.2515,1449,164.2515,1453,160.2515,1457,169.2515,1453" style="stroke:#181818;stroke-width:1.0;"/></g><!--link fncts to adverseUC--><g id="link_fncts_adverseUC"><path d="M547.7163,1453 C549.3466,1453 550.9789,1453 552.6128,1453 C559.1483,1453 565.7085,1453 572.2688,1453 C598.5097,1453 624.7502,1453 649.401,1453 C655.5637,1453 661.627,1453 667.5661,1453 C668.3085,1453 669.049,1453 669.7875,1453 C670.1567,1453 664.5254,1453 664.8936,1453 " fill="none" id="fncts-to-adverseUC" style="stroke:#181818;stroke-width:1.0;"/><polygon fill="#181818" points="670.8936,1453,661.8936,1449,665.8936,1453,661.8936,1457,670.8936,1453" style="stroke:#181818;stroke-width:1.0;"/><text fill="#000000" font-family="sans-serif" font-size="13" lengthAdjust="spacing" textLength="60" x="571" y="1449.0669">mitigates</text></g><!--link fncts to gnrl--><g id="link_fncts_gnrl"><path d="M396.5223,1461.0997 C396.7811,1461.142 397.041,1461.1842 397.3018,1461.2263 C398.3451,1461.3946 399.4042,1461.5614 400.4784,1461.7259 C402.6267,1462.055 404.8351,1462.3754 407.0979,1462.6832 C416.1493,1463.9142 426.0709,1464.9425 436.4938,1465.5125 C478.185,1467.7925 527.895,1462.74 562,1434 C566.52,1430.19 621.56,1226.3825 675.8825,1021.95 C703.0437,919.7338 730.0256,817.3613 750.4234,739.7541 C760.6223,700.9505 769.1752,668.3382 775.2815,645.0325 C778.3347,633.3796 780.7762,624.0533 782.5059,617.4431 C782.7222,616.6169 782.9273,615.833 783.121,615.0924 C783.2179,614.7221 781.7933,620.1672 781.8846,619.8185 " fill="none" id="fncts-to-gnrl" style="stroke:#181818;stroke-width:1.0;"/><polygon fill="#181818" points="783.4032,614.0139,777.2555,621.7084,782.1377,618.8511,784.995,623.7333,783.4032,614.0139" style="stroke:#181818;stroke-width:1.0;"/><text fill="#000000" font-family="sans-serif" font-size="13" lengthAdjust="spacing" textLength="50" x="576" y="1204.0669">enables</text></g><!--SRC=[tLN1Rjim3BtxAuXScWJ8OTlDo0fusO8MQB0XNdVOq8CYqxOGMJ8aELinv6_s6RtrnqRBYIElANhk10G97obIUbGU9UOEd0OZYj919Wno9xIABknMg9ePLa7D-9OLcBfxYS2bRhA8SQSDn5Sev0PDaqiqyH7yXiOANg9n0RYykbx36cjj1TdtCJ0B7p_0V0v9NKl1MLiKBY-Zo9AVga6XZ6oZHecK1LOer0X-Hq1hVAroRIg_PT8XL5ERJ3MgE05iOv3ESSAIJS4sU30-2MKTIjcxZtN7oUfhEkag-SWlvl4XxyCyj4Qk5HTI1cVO3xFS24eVfldUM5PLs5L55MHBcjmHaGECpl_uHsLe-kpxAFBSmoX5PdW9oqRvLjdn19RQZ5goSeBiWQPSIzeF2rQdhd8hp5hQFAFqMspzqIq4N1xvRHVNLQqLAWSKd3hc47xqpkcqpT3rpFleMcuwxVtlQVL6sj1R0APAfZBOQHMVqi2PD77LOoy4rcJJzmjHr2Y7lqvHTq6pdZ14h2UR9nGDtj9vab9TuPjd64goIYXw3SPR_mbDdqrsZgV3d_1vajuEIBfvXMmCx_DkU1zgyokuqXs9oL6eMBOZlSRRHQUrdGMtz5amYyT6zh96FVw9lBHUDqEHx0uHADYIIJaKj852TsIELrYQdF5ozw-01xfavUC3tv9mxwDmuC1iTkcdH7GHZXoOpsPmUfRHmDTk2J97D89QoCjcr8bdQvz8YQ4IJXJ4OkZtioa6L6mZqVu5]--></g></svg>